{"glyphs":{"0":{"ha":792,"x_min":50,"x_max":742,"o":"m 396 -11 q 162 26 232 -11 q 71 158 92 63 q 50 478 50 254 q 71 797 50 701 q 162 930 92 893 q 396 967 232 967 q 630 930 560 967 q 721 797 700 893 q 742 478 742 701 q 721 158 742 254 q 630 26 700 63 q 396 -11 560 -11 m 396 207 q 440 220 429 207 q 454 283 451 233 q 457 478 457 332 q 454 673 457 624 q 440 735 451 722 q 396 749 429 749 q 352 736 363 749 q 339 675 342 724 q 336 478 336 626 q 339 281 336 329 q 352 219 342 232 q 396 207 363 207 z "},"1":{"ha":508,"x_min":10,"x_max":446,"o":"m 158 0 l 158 672 l 10 614 l 10 838 l 243 956 l 446 956 l 446 0 l 158 0 z "},"2":{"ha":747,"x_min":51,"x_max":693,"o":"m 336 301 q 329 269 331 290 q 328 221 328 249 l 693 221 l 693 0 l 51 0 l 51 136 q 58 329 51 267 q 90 434 64 392 q 175 503 115 476 l 342 579 q 385 601 374 593 q 402 626 397 610 q 407 675 407 642 q 399 725 407 710 q 370 744 390 740 q 304 749 350 749 q 67 732 226 749 l 67 938 q 214 958 128 950 q 374 967 300 967 q 542 948 475 967 q 651 869 610 929 q 693 690 693 808 q 658 499 693 561 q 561 411 624 438 l 378 331 q 349 317 358 322 q 336 301 340 311 z "},"3":{"ha":736,"x_min":47,"x_max":688,"o":"m 335 -11 q 190 -3 271 -11 q 47 18 108 6 l 47 221 q 293 207 193 207 q 365 211 344 207 q 392 231 385 215 q 400 286 400 247 q 393 347 400 329 q 370 371 386 365 q 315 376 354 376 l 178 376 l 178 589 l 315 589 q 369 594 354 589 q 389 616 385 600 q 393 671 393 632 q 387 725 393 710 q 359 744 381 740 q 282 749 338 749 q 51 733 174 749 l 51 938 q 193 958 113 950 q 336 967 274 967 q 538 941 463 967 q 646 861 613 915 q 679 718 679 807 q 644 563 679 615 q 532 490 608 510 l 532 485 q 620 447 588 471 q 670 376 653 422 q 688 254 688 331 q 656 103 688 161 q 548 17 625 46 q 335 -11 471 -11 z "},"4":{"ha":789,"x_min":29,"x_max":767,"o":"m 399 0 l 399 174 l 29 174 l 29 367 l 256 956 l 557 956 l 315 392 l 410 392 l 494 575 l 681 575 l 681 392 l 767 392 l 767 174 l 681 174 l 681 0 l 399 0 z "},"5":{"ha":760,"x_min":74,"x_max":713,"o":"m 74 219 q 307 207 211 207 q 387 213 364 207 q 417 237 410 218 q 425 304 425 256 q 417 371 425 351 q 388 397 410 390 q 310 403 365 403 q 82 392 189 403 l 82 956 l 657 956 l 657 735 l 329 735 l 329 610 q 456 618 382 618 q 656 544 600 618 q 713 324 713 471 q 683 129 713 200 q 578 24 654 58 q 361 -11 503 -11 q 218 -3 299 -11 q 74 18 138 6 l 74 219 z "},"6":{"ha":794,"x_min":50,"x_max":750,"o":"m 411 -11 q 251 1 313 -11 q 149 51 190 14 q 81 158 107 88 q 50 479 50 238 q 86 789 50 696 q 201 926 122 886 q 429 967 281 967 q 558 958 482 967 q 704 936 635 950 l 704 733 q 481 749 536 749 q 381 735 411 749 q 342 683 351 722 q 332 553 332 644 l 343 553 q 394 597 357 576 q 499 618 432 618 q 638 596 585 618 q 721 511 692 574 q 750 329 750 449 q 722 129 750 201 q 620 23 693 57 q 411 -11 547 -11 m 404 203 q 453 209 439 203 q 474 235 468 215 q 481 303 481 256 q 474 370 481 350 q 453 397 468 390 q 404 403 439 403 q 357 396 371 403 q 339 369 343 389 q 335 307 335 350 q 341 234 335 256 q 360 208 347 213 q 404 203 374 203 z "},"7":{"ha":701,"x_min":33,"x_max":675,"o":"m 89 0 l 379 735 l 33 735 l 33 956 l 675 956 l 675 756 l 397 0 l 89 0 z "},"8":{"ha":813,"x_min":46,"x_max":767,"o":"m 407 -11 q 190 17 268 -11 q 78 103 111 46 q 46 254 46 161 q 83 415 46 365 q 203 485 121 465 l 203 490 q 91 563 126 510 q 56 718 56 615 q 90 861 56 807 q 201 941 124 915 q 407 967 278 967 q 613 941 536 967 q 724 861 689 915 q 758 718 758 807 q 722 563 758 615 q 611 490 686 510 l 611 485 q 729 415 692 465 q 767 254 767 365 q 734 103 767 161 q 623 17 701 46 q 407 -11 544 -11 m 407 575 q 455 580 442 575 q 472 603 468 585 q 476 667 476 621 q 472 731 476 713 q 455 753 468 749 q 407 758 442 758 q 359 753 372 758 q 342 731 346 749 q 338 667 338 713 q 342 603 338 621 q 359 580 346 585 q 407 575 372 575 m 407 196 q 456 202 442 196 q 476 227 471 208 q 482 292 482 246 q 476 358 482 338 q 456 383 471 378 q 407 389 442 389 q 358 383 372 389 q 338 358 343 378 q 332 292 332 338 q 338 227 332 246 q 358 202 343 208 q 407 196 372 196 z "},"9":{"ha":794,"x_min":44,"x_max":744,"o":"m 365 -11 q 234 -2 311 -11 q 90 19 157 7 l 90 222 q 315 207 258 207 q 414 220 385 207 q 453 272 443 233 q 463 403 463 311 l 453 403 q 399 358 438 378 q 296 338 361 338 q 156 360 210 338 q 74 444 103 382 q 44 626 44 507 q 73 826 44 754 q 174 933 101 899 q 383 967 247 967 q 554 953 490 967 q 658 903 618 940 q 717 793 697 865 q 744 476 744 689 q 700 146 744 243 q 581 25 660 61 q 365 -11 503 -11 m 392 553 q 439 560 425 553 q 457 586 453 567 q 461 649 461 606 q 455 722 461 700 q 435 748 449 743 q 392 753 422 753 q 342 747 357 753 q 320 720 326 740 q 314 653 314 700 q 320 585 314 606 q 342 559 326 565 q 392 553 357 553 z "},"\u0000":{"ha":0,"x_min":0,"x_max":0,"o":""},"\r":{"ha":308,"x_min":0,"x_max":0,"o":""}," ":{"ha":308,"x_min":0,"x_max":0,"o":""},"A":{"ha":842,"x_min":-3,"x_max":844,"o":"m 560 0 l 531 153 l 306 153 l 278 0 l -3 0 l 218 956 l 625 956 l 844 0 l 560 0 m 422 715 l 411 715 l 347 364 l 489 364 l 422 715 z "},"Á":{"ha":842,"x_min":-3,"x_max":844,"o":"m 560 0 l 531 153 l 306 153 l 278 0 l -3 0 l 218 956 l 625 956 l 844 0 l 560 0 m 422 715 l 411 715 l 347 364 l 489 364 l 422 715 m 290 1042 l 290 1049 l 388 1247 l 633 1247 l 633 1240 l 482 1042 l 290 1042 z "},"Ă":{"ha":842,"x_min":-3,"x_max":844,"o":"m 560 0 l 531 153 l 306 153 l 278 0 l -3 0 l 218 956 l 625 956 l 844 0 l 560 0 m 422 715 l 411 715 l 347 364 l 489 364 l 422 715 m 631 1233 q 615 1125 631 1168 q 553 1058 599 1082 q 421 1033 507 1033 q 290 1058 336 1033 q 228 1125 244 1082 q 213 1233 213 1168 l 356 1233 q 366 1183 356 1199 q 421 1167 376 1167 q 467 1175 453 1167 q 484 1197 481 1183 q 488 1233 488 1210 l 631 1233 z "},"Ắ":{"ha":842,"x_min":-3,"x_max":844,"o":"m 560 0 l 531 153 l 306 153 l 278 0 l -3 0 l 218 956 l 625 956 l 844 0 l 560 0 m 422 715 l 411 715 l 347 364 l 489 364 l 422 715 m 628 1233 q 612 1125 628 1168 q 550 1058 596 1082 q 418 1033 504 1033 q 288 1058 333 1033 q 226 1125 242 1082 q 210 1233 210 1168 l 353 1233 q 363 1183 353 1199 q 418 1167 374 1167 q 464 1175 450 1167 q 481 1197 478 1183 q 485 1233 485 1210 l 628 1233 m 307 1268 l 307 1275 l 404 1474 l 650 1474 l 650 1467 l 499 1268 l 307 1268 z "},"Ặ":{"ha":842,"x_min":-3,"x_max":844,"o":"m 560 0 l 531 153 l 306 153 l 278 0 l -3 0 l 218 956 l 625 956 l 844 0 l 560 0 m 422 715 l 411 715 l 347 364 l 489 364 l 422 715 m 285 -311 l 285 -86 l 558 -86 l 558 -311 l 285 -311 m 631 1233 q 615 1125 631 1168 q 553 1058 599 1082 q 421 1033 507 1033 q 290 1058 336 1033 q 228 1125 244 1082 q 213 1233 213 1168 l 356 1233 q 366 1183 356 1199 q 421 1167 376 1167 q 467 1175 453 1167 q 484 1197 481 1183 q 488 1233 488 1210 l 631 1233 z "},"Ằ":{"ha":842,"x_min":-3,"x_max":844,"o":"m 560 0 l 531 153 l 306 153 l 278 0 l -3 0 l 218 956 l 625 956 l 844 0 l 560 0 m 422 715 l 411 715 l 347 364 l 489 364 l 422 715 m 635 1233 q 619 1125 635 1168 q 557 1058 603 1082 q 425 1033 511 1033 q 294 1058 340 1033 q 233 1125 249 1082 q 217 1233 217 1168 l 360 1233 q 370 1183 360 1199 q 425 1167 381 1167 q 471 1175 457 1167 q 488 1197 485 1183 q 492 1233 492 1210 l 635 1233 m 335 1268 l 183 1467 l 183 1474 l 431 1474 l 526 1275 l 526 1268 l 335 1268 z "},"Ẳ":{"ha":842,"x_min":-3,"x_max":844,"o":"m 560 0 l 531 153 l 306 153 l 278 0 l -3 0 l 218 956 l 625 956 l 844 0 l 560 0 m 422 715 l 411 715 l 347 364 l 489 364 l 422 715 m 622 1233 q 606 1125 622 1168 q 544 1058 590 1082 q 413 1033 499 1033 q 282 1058 328 1033 q 220 1125 236 1082 q 204 1233 204 1168 l 347 1233 q 358 1183 347 1199 q 413 1167 368 1167 q 458 1175 444 1167 q 476 1197 472 1183 q 479 1233 479 1210 l 622 1233 m 342 1261 q 353 1325 342 1307 q 404 1353 365 1343 l 422 1358 q 462 1374 453 1367 q 471 1394 471 1381 q 458 1419 471 1414 q 406 1424 446 1424 q 261 1418 336 1424 l 261 1539 q 443 1557 354 1557 q 548 1549 507 1557 q 615 1510 589 1540 q 640 1418 640 1481 q 630 1354 640 1376 q 601 1319 619 1332 q 544 1294 582 1307 l 531 1290 q 492 1272 500 1279 q 483 1246 483 1264 l 342 1246 l 342 1261 z "},"Ẵ":{"ha":842,"x_min":-3,"x_max":844,"o":"m 560 0 l 531 153 l 306 153 l 278 0 l -3 0 l 218 956 l 625 956 l 844 0 l 560 0 m 422 715 l 411 715 l 347 364 l 489 364 l 422 715 m 628 1233 q 612 1125 628 1168 q 550 1058 596 1082 q 418 1033 504 1033 q 288 1058 333 1033 q 226 1125 242 1082 q 210 1233 210 1168 l 353 1233 q 363 1183 353 1199 q 418 1167 374 1167 q 464 1175 450 1167 q 481 1197 478 1183 q 485 1233 485 1210 l 628 1233 m 678 1519 q 672 1399 678 1439 q 638 1336 665 1360 q 547 1313 610 1313 q 404 1333 493 1313 l 371 1339 q 324 1346 339 1346 q 301 1336 306 1346 q 297 1296 297 1326 l 165 1296 q 172 1415 165 1375 q 206 1479 178 1456 q 296 1503 235 1503 q 440 1482 351 1503 q 519 1469 500 1469 q 542 1479 538 1469 q 546 1519 546 1489 l 678 1519 z "},"Ǎ":{"ha":842,"x_min":-3,"x_max":844,"o":"m 560 0 l 531 153 l 306 153 l 278 0 l -3 0 l 218 956 l 625 956 l 844 0 l 560 0 m 422 715 l 411 715 l 347 364 l 489 364 l 422 715 m 301 1039 l 188 1222 l 188 1233 l 357 1233 l 424 1140 l 486 1233 l 656 1233 l 656 1222 l 540 1039 l 301 1039 z "},"Â":{"ha":842,"x_min":-3,"x_max":844,"o":"m 560 0 l 531 153 l 306 153 l 278 0 l -3 0 l 218 956 l 625 956 l 844 0 l 560 0 m 422 715 l 411 715 l 347 364 l 489 364 l 422 715 m 186 1042 l 186 1054 l 300 1236 l 539 1236 l 654 1054 l 654 1042 l 485 1042 l 419 1135 l 356 1042 l 186 1042 z "},"Ấ":{"ha":842,"x_min":-3,"x_max":844,"o":"m 560 0 l 531 153 l 306 153 l 278 0 l -3 0 l 218 956 l 625 956 l 844 0 l 560 0 m 422 715 l 411 715 l 347 364 l 489 364 l 422 715 m 188 1019 l 188 1032 l 301 1214 l 540 1214 l 656 1032 l 656 1019 l 486 1019 l 421 1113 l 357 1019 l 188 1019 m 433 1249 l 433 1256 l 531 1454 l 776 1454 l 776 1447 l 625 1249 l 433 1249 z "},"Ậ":{"ha":842,"x_min":-3,"x_max":844,"o":"m 560 0 l 531 153 l 306 153 l 278 0 l -3 0 l 218 956 l 625 956 l 844 0 l 560 0 m 422 715 l 411 715 l 347 364 l 489 364 l 422 715 m 285 -311 l 285 -86 l 558 -86 l 558 -311 l 285 -311 m 188 1039 l 188 1051 l 301 1233 l 540 1233 l 656 1051 l 656 1039 l 486 1039 l 421 1132 l 357 1039 l 188 1039 z "},"Ầ":{"ha":842,"x_min":-3,"x_max":844,"o":"m 560 0 l 531 153 l 306 153 l 278 0 l -3 0 l 218 956 l 625 956 l 844 0 l 560 0 m 422 715 l 411 715 l 347 364 l 489 364 l 422 715 m 171 1019 l 171 1032 l 285 1214 l 524 1214 l 639 1032 l 639 1019 l 469 1019 l 404 1113 l 340 1019 l 171 1019 m 479 1249 l 328 1447 l 328 1454 l 575 1454 l 671 1256 l 671 1249 l 479 1249 z "},"Ẩ":{"ha":842,"x_min":-3,"x_max":844,"o":"m 560 0 l 531 153 l 306 153 l 278 0 l -3 0 l 218 956 l 625 956 l 844 0 l 560 0 m 422 715 l 411 715 l 347 364 l 489 364 l 422 715 m 188 1019 l 188 1032 l 301 1214 l 540 1214 l 656 1032 l 656 1019 l 486 1019 l 421 1113 l 357 1019 l 188 1019 m 499 1258 q 510 1322 499 1304 q 561 1350 522 1340 l 579 1356 q 619 1371 610 1364 q 628 1392 628 1378 q 615 1416 628 1411 q 563 1421 603 1421 q 418 1415 493 1421 l 418 1536 q 600 1554 511 1554 q 705 1546 664 1554 q 772 1508 746 1538 q 797 1415 797 1478 q 787 1351 797 1374 q 758 1317 776 1329 q 701 1292 739 1304 l 688 1288 q 649 1269 657 1276 q 640 1243 640 1261 l 499 1243 l 499 1258 z "},"Ẫ":{"ha":842,"x_min":-3,"x_max":844,"o":"m 560 0 l 531 153 l 306 153 l 278 0 l -3 0 l 218 956 l 625 956 l 844 0 l 560 0 m 422 715 l 411 715 l 347 364 l 489 364 l 422 715 m 185 1019 l 185 1032 l 299 1214 l 538 1214 l 653 1032 l 653 1019 l 483 1019 l 418 1113 l 354 1019 l 185 1019 m 678 1454 q 672 1334 678 1374 q 638 1271 665 1294 q 547 1247 610 1247 q 404 1268 493 1247 l 371 1274 q 324 1281 339 1281 q 301 1271 306 1281 q 297 1231 297 1261 l 165 1231 q 172 1350 165 1310 q 206 1414 178 1390 q 296 1438 235 1438 q 440 1417 351 1438 q 519 1404 500 1404 q 542 1414 538 1404 q 546 1454 546 1424 l 678 1454 z "},"Ȁ":{"ha":842,"x_min":-3,"x_max":844,"o":"m 560 0 l 531 153 l 306 153 l 278 0 l -3 0 l 218 956 l 625 956 l 844 0 l 560 0 m 422 715 l 411 715 l 347 364 l 489 364 l 422 715 m 392 1050 l 235 1050 l 117 1208 l 117 1214 l 315 1214 l 392 1056 l 392 1050 m 628 1050 l 472 1050 l 353 1208 l 353 1214 l 553 1214 l 628 1056 l 628 1050 z "},"Ä":{"ha":842,"x_min":-3,"x_max":844,"o":"m 560 0 l 531 153 l 306 153 l 278 0 l -3 0 l 218 956 l 625 956 l 844 0 l 560 0 m 422 715 l 411 715 l 347 364 l 489 364 l 422 715 m 178 1079 l 178 1244 l 386 1244 l 386 1079 l 178 1079 m 454 1079 l 454 1244 l 664 1244 l 664 1079 l 454 1079 z "},"Ạ":{"ha":842,"x_min":-3,"x_max":844,"o":"m 560 0 l 531 153 l 306 153 l 278 0 l -3 0 l 218 956 l 625 956 l 844 0 l 560 0 m 422 715 l 411 715 l 347 364 l 489 364 l 422 715 m 285 -311 l 285 -86 l 558 -86 l 558 -311 l 285 -311 z "},"À":{"ha":842,"x_min":-3,"x_max":844,"o":"m 560 0 l 531 153 l 306 153 l 278 0 l -3 0 l 218 956 l 625 956 l 844 0 l 560 0 m 422 715 l 411 715 l 347 364 l 489 364 l 422 715 m 336 1042 l 185 1240 l 185 1247 l 432 1247 l 528 1049 l 528 1042 l 336 1042 z "},"Ả":{"ha":842,"x_min":-3,"x_max":844,"o":"m 560 0 l 531 153 l 306 153 l 278 0 l -3 0 l 218 956 l 625 956 l 844 0 l 560 0 m 422 715 l 411 715 l 347 364 l 489 364 l 422 715 m 314 1024 q 326 1088 314 1069 q 376 1115 338 1106 l 394 1119 q 434 1135 425 1129 q 443 1157 443 1142 q 431 1181 443 1176 q 378 1185 418 1185 q 233 1179 308 1185 l 233 1300 q 415 1318 326 1318 q 520 1310 479 1318 q 587 1272 561 1301 q 613 1179 613 1242 q 591 1098 613 1121 q 517 1057 569 1075 l 503 1051 q 464 1033 472 1040 q 456 1008 456 1025 l 314 1008 l 314 1024 z "},"Ȃ":{"ha":842,"x_min":-3,"x_max":844,"o":"m 560 0 l 531 153 l 306 153 l 278 0 l -3 0 l 218 956 l 625 956 l 844 0 l 560 0 m 422 715 l 411 715 l 347 364 l 489 364 l 422 715 m 213 1040 q 228 1149 213 1106 q 290 1216 244 1192 q 422 1240 336 1240 q 553 1216 507 1240 q 615 1149 599 1192 q 631 1040 631 1106 l 488 1040 q 477 1091 488 1075 q 422 1107 467 1107 q 376 1099 390 1107 q 359 1077 363 1090 q 356 1040 356 1064 l 213 1040 z "},"Ā":{"ha":842,"x_min":-3,"x_max":844,"o":"m 560 0 l 531 153 l 306 153 l 278 0 l -3 0 l 218 956 l 625 956 l 844 0 l 560 0 m 422 715 l 411 715 l 347 364 l 489 364 l 422 715 m 244 1026 l 244 1233 l 601 1233 l 601 1026 l 244 1026 z "},"Ą":{"ha":842,"x_min":-3,"x_max":844,"o":"m 686 -99 q 699 -135 686 -122 q 746 -147 711 -147 l 765 -146 l 765 -267 q 661 -272 713 -272 q 523 -237 564 -272 q 482 -147 482 -203 q 503 -72 482 -111 q 560 1 524 -32 l 531 153 l 306 153 l 278 0 l -3 0 l 218 956 l 625 956 l 844 0 l 756 0 q 707 -47 728 -19 q 686 -99 686 -74 m 347 364 l 489 364 l 422 715 l 411 715 l 347 364 z "},"Å":{"ha":842,"x_min":-3,"x_max":844,"o":"m 844 0 l 560 0 l 531 153 l 306 153 l 278 0 l -3 0 l 218 954 q 199 1004 204 975 q 194 1082 194 1033 q 209 1194 194 1157 q 271 1249 224 1232 q 421 1267 318 1267 q 571 1249 524 1267 q 633 1194 618 1232 q 647 1082 647 1157 q 642 1006 647 1036 q 625 956 638 976 l 844 0 m 421 1015 q 472 1021 457 1015 q 490 1039 486 1026 q 493 1082 493 1051 q 490 1126 493 1114 q 472 1144 486 1139 q 421 1150 457 1150 q 372 1144 386 1150 q 355 1126 358 1139 q 351 1082 351 1114 q 355 1039 351 1051 q 372 1021 358 1026 q 421 1015 386 1015 m 347 364 l 489 364 l 422 715 l 411 715 l 347 364 z "},"Ǻ":{"ha":842,"x_min":-3,"x_max":844,"o":"m 844 0 l 560 0 l 531 153 l 306 153 l 278 0 l -3 0 l 218 954 q 199 1004 204 975 q 194 1082 194 1033 q 209 1194 194 1157 q 271 1249 224 1232 q 421 1267 318 1267 q 571 1249 524 1267 q 633 1194 618 1232 q 647 1082 647 1157 q 642 1006 647 1036 q 625 956 638 976 l 844 0 m 421 1015 q 472 1021 457 1015 q 490 1039 486 1026 q 493 1082 493 1051 q 490 1126 493 1114 q 472 1144 486 1139 q 421 1150 457 1150 q 372 1144 386 1150 q 355 1126 358 1139 q 351 1082 351 1114 q 355 1039 351 1051 q 372 1021 358 1026 q 421 1015 386 1015 m 347 364 l 489 364 l 422 715 l 411 715 l 347 364 m 319 1339 l 319 1346 l 417 1544 l 663 1544 l 663 1538 l 511 1339 l 319 1339 z "},"Ã":{"ha":842,"x_min":-3,"x_max":844,"o":"m 560 0 l 531 153 l 306 153 l 278 0 l -3 0 l 218 956 l 625 956 l 844 0 l 560 0 m 422 715 l 411 715 l 347 364 l 489 364 l 422 715 m 678 1265 q 672 1145 678 1185 q 638 1082 665 1106 q 547 1058 610 1058 q 404 1079 493 1058 l 371 1085 q 324 1092 339 1092 q 301 1082 306 1092 q 297 1042 297 1072 l 165 1042 q 172 1161 165 1121 q 206 1225 178 1201 q 296 1249 235 1249 q 440 1228 351 1249 q 519 1215 500 1215 q 542 1225 538 1215 q 546 1265 546 1235 l 678 1265 z "},"Æ":{"ha":1163,"x_min":-31,"x_max":1106,"o":"m 539 0 l 525 156 l 294 156 l 250 0 l -31 0 l 310 956 l 1106 956 l 1106 738 l 729 738 l 743 590 l 1056 590 l 1056 375 l 765 375 l 781 218 l 1106 218 l 1106 0 l 539 0 m 478 735 l 467 735 l 358 367 l 508 367 l 478 735 z "},"Ǽ":{"ha":1163,"x_min":-31,"x_max":1106,"o":"m 539 0 l 525 156 l 294 156 l 250 0 l -31 0 l 310 956 l 1106 956 l 1106 738 l 729 738 l 743 590 l 1056 590 l 1056 375 l 765 375 l 781 218 l 1106 218 l 1106 0 l 539 0 m 478 735 l 467 735 l 358 367 l 508 367 l 478 735 m 481 1028 l 481 1035 l 578 1233 l 824 1233 l 824 1226 l 672 1028 l 481 1028 z "},"B":{"ha":800,"x_min":64,"x_max":758,"o":"m 64 956 l 497 956 q 753 715 753 956 q 717 561 753 613 q 604 490 681 510 l 604 485 q 690 448 657 471 q 740 379 722 425 q 758 256 758 333 q 694 63 758 126 q 496 0 631 0 l 64 0 l 64 956 m 399 578 q 447 583 433 578 q 466 603 461 588 q 471 660 471 619 q 466 717 471 701 q 447 738 461 733 q 399 743 433 743 l 344 743 l 344 578 l 399 578 m 399 213 q 447 217 433 213 q 466 240 461 222 q 471 300 471 257 q 466 359 471 342 q 447 382 461 376 q 399 388 433 388 l 344 388 l 344 213 l 399 213 z "},"C":{"ha":674,"x_min":50,"x_max":632,"o":"m 632 13 q 531 -4 593 3 q 411 -11 468 -11 q 174 33 250 -11 q 74 177 99 78 q 50 478 50 276 q 74 778 50 679 q 175 922 99 878 q 411 967 251 967 q 528 960 468 967 q 628 942 589 953 l 628 739 q 475 749 507 749 q 376 733 403 749 q 344 667 350 717 q 338 478 338 617 q 344 288 338 338 q 376 223 350 239 q 475 207 403 207 q 632 217 554 207 l 632 13 z "},"Ć":{"ha":674,"x_min":50,"x_max":632,"o":"m 632 13 q 531 -4 593 3 q 411 -11 468 -11 q 174 33 250 -11 q 74 177 99 78 q 50 478 50 276 q 74 778 50 679 q 175 922 99 878 q 411 967 251 967 q 528 960 468 967 q 628 942 589 953 l 628 739 q 475 749 507 749 q 376 733 403 749 q 344 667 350 717 q 338 478 338 617 q 344 288 338 338 q 376 223 350 239 q 475 207 403 207 q 632 217 554 207 l 632 13 m 236 1028 l 236 1035 l 333 1233 l 579 1233 l 579 1226 l 428 1028 l 236 1028 z "},"Č":{"ha":674,"x_min":50,"x_max":632,"o":"m 632 13 q 531 -4 593 3 q 411 -11 468 -11 q 174 33 250 -11 q 74 177 99 78 q 50 478 50 276 q 74 778 50 679 q 175 922 99 878 q 411 967 251 967 q 528 960 468 967 q 628 942 589 953 l 628 739 q 475 749 507 749 q 376 733 403 749 q 344 667 350 717 q 338 478 338 617 q 344 288 338 338 q 376 223 350 239 q 475 207 403 207 q 632 217 554 207 l 632 13 m 217 1039 l 103 1222 l 103 1233 l 272 1233 l 339 1140 l 401 1233 l 571 1233 l 571 1222 l 456 1039 l 217 1039 z "},"Ç":{"ha":674,"x_min":50,"x_max":632,"o":"m 632 13 q 538 -3 596 3 q 421 -11 479 -10 l 378 -262 l 150 -262 l 150 -256 l 253 3 q 122 77 165 24 q 64 222 78 131 q 50 478 50 314 q 74 778 50 679 q 175 922 99 878 q 411 967 251 967 q 528 960 468 967 q 628 942 589 953 l 628 739 q 475 749 507 749 q 376 733 403 749 q 344 667 350 717 q 338 478 338 617 q 344 288 338 338 q 376 223 350 239 q 475 207 403 207 q 632 217 554 207 l 632 13 z "},"Ĉ":{"ha":674,"x_min":50,"x_max":632,"o":"m 632 13 q 531 -4 593 3 q 411 -11 468 -11 q 174 33 250 -11 q 74 177 99 78 q 50 478 50 276 q 74 778 50 679 q 175 922 99 878 q 411 967 251 967 q 528 960 468 967 q 628 942 589 953 l 628 739 q 475 749 507 749 q 376 733 403 749 q 344 667 350 717 q 338 478 338 617 q 344 288 338 338 q 376 223 350 239 q 475 207 403 207 q 632 217 554 207 l 632 13 m 103 1039 l 103 1051 l 217 1233 l 456 1233 l 571 1051 l 571 1039 l 401 1039 l 336 1132 l 272 1039 l 103 1039 z "},"Ċ":{"ha":674,"x_min":50,"x_max":632,"o":"m 632 13 q 531 -4 593 3 q 411 -11 468 -11 q 174 33 250 -11 q 74 177 99 78 q 50 478 50 276 q 74 778 50 679 q 175 922 99 878 q 411 967 251 967 q 528 960 468 967 q 628 942 589 953 l 628 739 q 475 749 507 749 q 376 733 403 749 q 344 667 350 717 q 338 478 338 617 q 344 288 338 338 q 376 223 350 239 q 475 207 403 207 q 632 217 554 207 l 632 13 m 232 1050 l 232 1215 l 442 1215 l 442 1050 l 232 1050 z "},"D":{"ha":813,"x_min":64,"x_max":763,"o":"m 64 956 l 379 956 q 647 915 568 956 q 744 783 725 874 q 763 478 763 693 q 744 172 763 263 q 647 41 725 82 q 379 0 568 0 l 64 0 l 64 956 m 382 218 q 449 231 432 218 q 471 290 467 243 q 475 476 475 336 q 471 666 475 619 q 450 725 467 713 q 382 738 433 738 l 349 738 l 349 218 l 382 218 z "},"Ǳ":{"ha":1557,"x_min":64,"x_max":1510,"o":"m 64 956 l 379 956 q 647 915 568 956 q 744 783 725 874 q 763 478 763 693 q 744 172 763 263 q 647 41 725 82 q 379 0 568 0 l 64 0 l 64 956 m 382 218 q 449 231 432 218 q 471 290 467 243 q 475 476 475 336 q 471 666 475 619 q 450 725 467 713 q 382 738 433 738 l 349 738 l 349 218 l 382 218 m 860 0 l 860 208 l 1172 738 l 872 738 l 872 956 l 1510 956 l 1510 751 l 1193 218 l 1508 218 l 1508 0 l 860 0 z "},"Ǆ":{"ha":1557,"x_min":64,"x_max":1510,"o":"m 64 956 l 379 956 q 647 915 568 956 q 744 783 725 874 q 763 478 763 693 q 744 172 763 263 q 647 41 725 82 q 379 0 568 0 l 64 0 l 64 956 m 382 218 q 449 231 432 218 q 471 290 467 243 q 475 476 475 336 q 471 666 475 619 q 450 725 467 713 q 382 738 433 738 l 349 738 l 349 218 l 382 218 m 860 0 l 860 208 l 1172 738 l 872 738 l 872 956 l 1510 956 l 1510 751 l 1193 218 l 1508 218 l 1508 0 l 860 0 m 1067 1039 l 953 1222 l 953 1233 l 1122 1233 l 1189 1140 l 1251 1233 l 1421 1233 l 1421 1222 l 1306 1039 l 1067 1039 z "},"Ð":{"ha":813,"x_min":-8,"x_max":763,"o":"m 64 388 l -8 388 l -8 579 l 64 579 l 64 956 l 379 956 q 647 915 568 956 q 744 783 725 874 q 763 478 763 693 q 744 172 763 263 q 647 41 725 82 q 379 0 568 0 l 64 0 l 64 388 m 382 218 q 449 231 432 218 q 471 290 467 243 q 475 476 475 336 q 471 666 475 619 q 450 725 467 713 q 382 738 433 738 l 349 738 l 349 579 l 422 579 l 422 388 l 349 388 l 349 218 l 382 218 z "},"Ď":{"ha":813,"x_min":64,"x_max":763,"o":"m 64 956 l 379 956 q 647 915 568 956 q 744 783 725 874 q 763 478 763 693 q 744 172 763 263 q 647 41 725 82 q 379 0 568 0 l 64 0 l 64 956 m 382 218 q 449 231 432 218 q 471 290 467 243 q 475 476 475 336 q 471 666 475 619 q 450 725 467 713 q 382 738 433 738 l 349 738 l 349 218 l 382 218 m 285 1039 l 171 1222 l 171 1233 l 340 1233 l 407 1140 l 469 1233 l 639 1233 l 639 1222 l 524 1039 l 285 1039 z "},"Đ":{"ha":813,"x_min":-8,"x_max":763,"o":"m 64 388 l -8 388 l -8 579 l 64 579 l 64 956 l 379 956 q 647 915 568 956 q 744 783 725 874 q 763 478 763 693 q 744 172 763 263 q 647 41 725 82 q 379 0 568 0 l 64 0 l 64 388 m 382 218 q 449 231 432 218 q 471 290 467 243 q 475 476 475 336 q 471 666 475 619 q 450 725 467 713 q 382 738 433 738 l 349 738 l 349 579 l 422 579 l 422 388 l 349 388 l 349 218 l 382 218 z "},"Ḍ":{"ha":813,"x_min":64,"x_max":763,"o":"m 64 956 l 379 956 q 647 915 568 956 q 744 783 725 874 q 763 478 763 693 q 744 172 763 263 q 647 41 725 82 q 379 0 568 0 l 64 0 l 64 956 m 382 218 q 449 231 432 218 q 471 290 467 243 q 475 476 475 336 q 471 666 475 619 q 450 725 467 713 q 382 738 433 738 l 349 738 l 349 218 l 382 218 m 268 -311 l 268 -86 l 542 -86 l 542 -311 l 268 -311 z "},"ǲ":{"ha":1469,"x_min":64,"x_max":1425,"o":"m 64 956 l 379 956 q 647 915 568 956 q 744 783 725 874 q 763 478 763 693 q 744 172 763 263 q 647 41 725 82 q 379 0 568 0 l 64 0 l 64 956 m 382 218 q 449 231 432 218 q 471 290 467 243 q 475 476 475 336 q 471 666 475 619 q 450 725 467 713 q 382 738 433 738 l 349 738 l 349 218 l 382 218 m 857 0 l 857 183 l 1103 514 l 869 514 l 869 708 l 1424 708 l 1424 525 l 1178 194 l 1425 194 l 1425 0 l 857 0 z "},"ǅ":{"ha":1469,"x_min":64,"x_max":1425,"o":"m 64 956 l 379 956 q 647 915 568 956 q 744 783 725 874 q 763 478 763 693 q 744 172 763 263 q 647 41 725 82 q 379 0 568 0 l 64 0 l 64 956 m 382 218 q 449 231 432 218 q 471 290 467 243 q 475 476 475 336 q 471 666 475 619 q 450 725 467 713 q 382 738 433 738 l 349 738 l 349 218 l 382 218 m 857 0 l 857 183 l 1103 514 l 869 514 l 869 708 l 1424 708 l 1424 525 l 1178 194 l 1425 194 l 1425 0 l 857 0 m 1028 838 l 914 1021 l 914 1032 l 1083 1032 l 1150 939 l 1213 1032 l 1382 1032 l 1382 1021 l 1267 838 l 1028 838 z "},"E":{"ha":714,"x_min":64,"x_max":658,"o":"m 64 0 l 64 956 l 658 956 l 658 738 l 349 738 l 349 590 l 607 590 l 607 375 l 349 375 l 349 218 l 658 218 l 658 0 l 64 0 z "},"É":{"ha":714,"x_min":64,"x_max":658,"o":"m 64 0 l 64 956 l 658 956 l 658 738 l 349 738 l 349 590 l 607 590 l 607 375 l 349 375 l 349 218 l 658 218 l 658 0 l 64 0 m 257 1042 l 257 1049 l 354 1247 l 600 1247 l 600 1240 l 449 1042 l 257 1042 z "},"Ĕ":{"ha":714,"x_min":64,"x_max":658,"o":"m 64 0 l 64 956 l 658 956 l 658 738 l 349 738 l 349 590 l 607 590 l 607 375 l 349 375 l 349 218 l 658 218 l 658 0 l 64 0 m 568 1233 q 552 1125 568 1168 q 490 1058 536 1082 q 358 1033 444 1033 q 228 1058 274 1033 q 166 1125 182 1082 q 150 1233 150 1168 l 293 1233 q 303 1183 293 1199 q 358 1167 314 1167 q 404 1175 390 1167 q 422 1197 418 1183 q 425 1233 425 1210 l 568 1233 z "},"Ě":{"ha":714,"x_min":64,"x_max":658,"o":"m 64 0 l 64 956 l 658 956 l 658 738 l 349 738 l 349 590 l 607 590 l 607 375 l 349 375 l 349 218 l 658 218 l 658 0 l 64 0 m 239 1039 l 125 1222 l 125 1233 l 294 1233 l 361 1140 l 424 1233 l 593 1233 l 593 1222 l 478 1039 l 239 1039 z "},"Ê":{"ha":714,"x_min":64,"x_max":658,"o":"m 64 0 l 64 956 l 658 956 l 658 738 l 349 738 l 349 590 l 607 590 l 607 375 l 349 375 l 349 218 l 658 218 l 658 0 l 64 0 m 125 1042 l 125 1054 l 239 1236 l 478 1236 l 593 1054 l 593 1042 l 424 1042 l 358 1135 l 294 1042 l 125 1042 z "},"Ế":{"ha":714,"x_min":64,"x_max":714,"o":"m 64 0 l 64 956 l 658 956 l 658 738 l 349 738 l 349 590 l 607 590 l 607 375 l 349 375 l 349 218 l 658 218 l 658 0 l 64 0 m 125 1019 l 125 1032 l 239 1214 l 478 1214 l 593 1032 l 593 1019 l 424 1019 l 358 1113 l 294 1019 l 125 1019 m 371 1249 l 371 1256 l 468 1454 l 714 1454 l 714 1447 l 563 1249 l 371 1249 z "},"Ệ":{"ha":714,"x_min":64,"x_max":658,"o":"m 64 0 l 64 956 l 658 956 l 658 738 l 349 738 l 349 590 l 607 590 l 607 375 l 349 375 l 349 218 l 658 218 l 658 0 l 64 0 m 222 -311 l 222 -86 l 496 -86 l 496 -311 l 222 -311 m 125 1039 l 125 1051 l 239 1233 l 478 1233 l 593 1051 l 593 1039 l 424 1039 l 358 1132 l 294 1039 l 125 1039 z "},"Ề":{"ha":714,"x_min":64,"x_max":658,"o":"m 64 0 l 64 956 l 658 956 l 658 738 l 349 738 l 349 590 l 607 590 l 607 375 l 349 375 l 349 218 l 658 218 l 658 0 l 64 0 m 108 1019 l 108 1032 l 222 1214 l 461 1214 l 576 1032 l 576 1019 l 407 1019 l 342 1113 l 278 1019 l 108 1019 m 417 1249 l 265 1447 l 265 1454 l 513 1454 l 608 1256 l 608 1249 l 417 1249 z "},"Ể":{"ha":714,"x_min":64,"x_max":735,"o":"m 64 0 l 64 956 l 658 956 l 658 738 l 349 738 l 349 590 l 607 590 l 607 375 l 349 375 l 349 218 l 658 218 l 658 0 l 64 0 m 125 1019 l 125 1032 l 239 1214 l 478 1214 l 593 1032 l 593 1019 l 424 1019 l 358 1113 l 294 1019 l 125 1019 m 436 1258 q 448 1322 436 1304 q 499 1350 460 1340 l 517 1356 q 556 1371 547 1364 q 565 1392 565 1378 q 553 1416 565 1411 q 500 1421 540 1421 q 356 1415 431 1421 l 356 1536 q 538 1554 449 1554 q 642 1546 601 1554 q 709 1508 683 1538 q 735 1415 735 1478 q 724 1351 735 1374 q 695 1317 714 1329 q 639 1292 676 1304 l 625 1288 q 586 1269 594 1276 q 578 1243 578 1261 l 436 1243 l 436 1258 z "},"Ễ":{"ha":714,"x_min":64,"x_max":658,"o":"m 64 0 l 64 956 l 658 956 l 658 738 l 349 738 l 349 590 l 607 590 l 607 375 l 349 375 l 349 218 l 658 218 l 658 0 l 64 0 m 122 1019 l 122 1032 l 236 1214 l 475 1214 l 590 1032 l 590 1019 l 421 1019 l 356 1113 l 292 1019 l 122 1019 m 615 1454 q 609 1334 615 1374 q 575 1271 603 1294 q 485 1247 547 1247 q 342 1268 431 1247 l 308 1274 q 261 1281 276 1281 q 239 1271 243 1281 q 235 1231 235 1261 l 103 1231 q 109 1350 103 1310 q 144 1414 115 1390 q 233 1438 172 1438 q 378 1417 289 1438 q 457 1404 438 1404 q 479 1414 475 1404 q 483 1454 483 1424 l 615 1454 z "},"Ȅ":{"ha":714,"x_min":54,"x_max":658,"o":"m 64 0 l 64 956 l 658 956 l 658 738 l 349 738 l 349 590 l 607 590 l 607 375 l 349 375 l 349 218 l 658 218 l 658 0 l 64 0 m 329 1050 l 172 1050 l 54 1208 l 54 1214 l 253 1214 l 329 1056 l 329 1050 m 565 1050 l 410 1050 l 290 1208 l 290 1214 l 490 1214 l 565 1056 l 565 1050 z "},"Ë":{"ha":714,"x_min":64,"x_max":658,"o":"m 64 0 l 64 956 l 658 956 l 658 738 l 349 738 l 349 590 l 607 590 l 607 375 l 349 375 l 349 218 l 658 218 l 658 0 l 64 0 m 118 1056 l 118 1221 l 326 1221 l 326 1056 l 118 1056 m 394 1056 l 394 1221 l 604 1221 l 604 1056 l 394 1056 z "},"Ė":{"ha":714,"x_min":64,"x_max":658,"o":"m 64 0 l 64 956 l 658 956 l 658 738 l 349 738 l 349 590 l 607 590 l 607 375 l 349 375 l 349 218 l 658 218 l 658 0 l 64 0 m 254 1050 l 254 1215 l 464 1215 l 464 1050 l 254 1050 z "},"Ẹ":{"ha":714,"x_min":64,"x_max":658,"o":"m 64 0 l 64 956 l 658 956 l 658 738 l 349 738 l 349 590 l 607 590 l 607 375 l 349 375 l 349 218 l 658 218 l 658 0 l 64 0 m 222 -311 l 222 -86 l 496 -86 l 496 -311 l 222 -311 z "},"È":{"ha":714,"x_min":64,"x_max":658,"o":"m 64 0 l 64 956 l 658 956 l 658 738 l 349 738 l 349 590 l 607 590 l 607 375 l 349 375 l 349 218 l 658 218 l 658 0 l 64 0 m 297 1042 l 146 1240 l 146 1247 l 393 1247 l 489 1049 l 489 1042 l 297 1042 z "},"Ẻ":{"ha":714,"x_min":64,"x_max":658,"o":"m 64 0 l 64 956 l 658 956 l 658 738 l 349 738 l 349 590 l 607 590 l 607 375 l 349 375 l 349 218 l 658 218 l 658 0 l 64 0 m 251 1024 q 263 1088 251 1069 q 314 1115 275 1106 l 332 1119 q 372 1135 363 1129 q 381 1157 381 1142 q 368 1181 381 1176 q 315 1185 356 1185 q 171 1179 246 1185 l 171 1300 q 353 1318 264 1318 q 458 1310 417 1318 q 524 1272 499 1301 q 550 1179 550 1242 q 528 1098 550 1121 q 454 1057 507 1075 l 440 1051 q 401 1033 410 1040 q 393 1008 393 1025 l 251 1008 l 251 1024 z "},"Ȇ":{"ha":714,"x_min":64,"x_max":658,"o":"m 64 0 l 64 956 l 658 956 l 658 738 l 349 738 l 349 590 l 607 590 l 607 375 l 349 375 l 349 218 l 658 218 l 658 0 l 64 0 m 150 1040 q 166 1149 150 1106 q 228 1216 182 1192 q 360 1240 274 1240 q 490 1216 444 1240 q 552 1149 536 1192 q 568 1040 568 1106 l 425 1040 q 415 1091 425 1075 q 360 1107 404 1107 q 314 1099 328 1107 q 297 1077 300 1090 q 293 1040 293 1064 l 150 1040 z "},"Ē":{"ha":714,"x_min":64,"x_max":658,"o":"m 64 0 l 64 956 l 658 956 l 658 738 l 349 738 l 349 590 l 607 590 l 607 375 l 349 375 l 349 218 l 658 218 l 658 0 l 64 0 m 182 1026 l 182 1233 l 539 1233 l 539 1026 l 182 1026 z "},"Ę":{"ha":714,"x_min":63,"x_max":658,"o":"m 539 -272 q 401 -238 443 -272 q 358 -153 358 -204 q 384 -74 358 -111 q 456 0 410 -36 l 63 0 l 63 956 l 658 956 l 658 738 l 349 738 l 349 590 l 607 590 l 607 375 l 349 375 l 349 218 l 658 218 l 658 0 q 592 -45 621 -18 q 564 -104 564 -72 q 622 -147 564 -147 l 643 -146 l 643 -267 q 539 -272 588 -272 z "},"Ẽ":{"ha":714,"x_min":64,"x_max":658,"o":"m 64 0 l 64 956 l 658 956 l 658 738 l 349 738 l 349 590 l 607 590 l 607 375 l 349 375 l 349 218 l 658 218 l 658 0 l 64 0 m 615 1233 q 609 1113 615 1153 q 575 1050 603 1074 q 485 1026 547 1026 q 342 1047 431 1026 l 308 1053 q 261 1060 276 1060 q 239 1050 243 1060 q 235 1010 235 1040 l 103 1010 q 109 1129 103 1089 q 144 1193 115 1169 q 233 1217 172 1217 q 378 1196 289 1217 q 457 1183 438 1183 q 479 1193 475 1183 q 483 1233 483 1203 l 615 1233 z "},"F":{"ha":671,"x_min":64,"x_max":633,"o":"m 64 0 l 64 956 l 633 956 l 633 738 l 349 738 l 349 557 l 593 557 l 593 339 l 349 339 l 349 0 l 64 0 z "},"G":{"ha":803,"x_min":50,"x_max":743,"o":"m 417 372 l 417 574 l 743 574 l 743 18 q 590 -3 678 6 q 431 -11 501 -11 q 191 31 271 -11 q 81 174 111 72 q 50 478 50 276 q 81 781 50 679 q 194 925 113 883 q 439 967 276 967 q 591 958 506 967 q 740 935 676 949 l 740 732 q 526 749 588 749 q 388 735 424 749 q 342 672 353 722 q 332 478 332 621 q 339 294 332 349 q 368 220 346 239 q 443 201 390 201 l 492 203 l 492 372 l 417 372 z "},"Ǵ":{"ha":803,"x_min":50,"x_max":743,"o":"m 417 372 l 417 574 l 743 574 l 743 18 q 590 -3 678 6 q 431 -11 501 -11 q 191 31 271 -11 q 81 174 111 72 q 50 478 50 276 q 81 781 50 679 q 194 925 113 883 q 439 967 276 967 q 591 958 506 967 q 740 935 676 949 l 740 732 q 526 749 588 749 q 388 735 424 749 q 342 672 353 722 q 332 478 332 621 q 339 294 332 349 q 368 220 346 239 q 443 201 390 201 l 492 203 l 492 372 l 417 372 m 297 1028 l 297 1035 l 394 1233 l 640 1233 l 640 1226 l 489 1028 l 297 1028 z "},"Ğ":{"ha":803,"x_min":50,"x_max":743,"o":"m 417 372 l 417 574 l 743 574 l 743 18 q 590 -3 678 6 q 431 -11 501 -11 q 191 31 271 -11 q 81 174 111 72 q 50 478 50 276 q 81 781 50 679 q 194 925 113 883 q 439 967 276 967 q 591 958 506 967 q 740 935 676 949 l 740 732 q 526 749 588 749 q 388 735 424 749 q 342 672 353 722 q 332 478 332 621 q 339 294 332 349 q 368 220 346 239 q 443 201 390 201 l 492 203 l 492 372 l 417 372 m 607 1233 q 591 1125 607 1168 q 529 1058 575 1082 q 397 1033 483 1033 q 267 1058 313 1033 q 205 1125 221 1082 q 189 1233 189 1168 l 332 1233 q 342 1183 332 1199 q 397 1167 353 1167 q 443 1175 429 1167 q 460 1197 457 1183 q 464 1233 464 1210 l 607 1233 z "},"Ǧ":{"ha":803,"x_min":50,"x_max":743,"o":"m 417 372 l 417 574 l 743 574 l 743 18 q 590 -3 678 6 q 431 -11 501 -11 q 191 31 271 -11 q 81 174 111 72 q 50 478 50 276 q 81 781 50 679 q 194 925 113 883 q 439 967 276 967 q 591 958 506 967 q 740 935 676 949 l 740 732 q 526 749 588 749 q 388 735 424 749 q 342 672 353 722 q 332 478 332 621 q 339 294 332 349 q 368 220 346 239 q 443 201 390 201 l 492 203 l 492 372 l 417 372 m 278 1039 l 164 1222 l 164 1233 l 333 1233 l 400 1140 l 463 1233 l 632 1233 l 632 1222 l 517 1039 l 278 1039 z "},"Ĝ":{"ha":803,"x_min":50,"x_max":743,"o":"m 417 372 l 417 574 l 743 574 l 743 18 q 590 -3 678 6 q 431 -11 501 -11 q 191 31 271 -11 q 81 174 111 72 q 50 478 50 276 q 81 781 50 679 q 194 925 113 883 q 439 967 276 967 q 591 958 506 967 q 740 935 676 949 l 740 732 q 526 749 588 749 q 388 735 424 749 q 342 672 353 722 q 332 478 332 621 q 339 294 332 349 q 368 220 346 239 q 443 201 390 201 l 492 203 l 492 372 l 417 372 m 164 1039 l 164 1051 l 278 1233 l 517 1233 l 632 1051 l 632 1039 l 463 1039 l 397 1132 l 333 1039 l 164 1039 z "},"Ģ":{"ha":803,"x_min":50,"x_max":743,"o":"m 417 372 l 417 574 l 743 574 l 743 18 q 590 -3 678 6 q 431 -11 501 -11 q 191 31 271 -11 q 81 174 111 72 q 50 478 50 276 q 81 781 50 679 q 194 925 113 883 q 439 967 276 967 q 591 958 506 967 q 740 935 676 949 l 740 732 q 526 749 588 749 q 388 735 424 749 q 342 672 353 722 q 332 478 332 621 q 339 294 332 349 q 368 220 346 239 q 443 201 390 201 l 492 203 l 492 372 l 417 372 m 272 -306 q 344 -294 328 -306 q 360 -250 360 -283 l 360 -239 l 269 -239 l 269 -82 l 526 -82 l 526 -178 q 510 -317 526 -272 q 440 -382 493 -362 q 272 -401 386 -401 l 272 -306 z "},"Ġ":{"ha":803,"x_min":50,"x_max":743,"o":"m 417 372 l 417 574 l 743 574 l 743 18 q 590 -3 678 6 q 431 -11 501 -11 q 191 31 271 -11 q 81 174 111 72 q 50 478 50 276 q 81 781 50 679 q 194 925 113 883 q 439 967 276 967 q 591 958 506 967 q 740 935 676 949 l 740 732 q 526 749 588 749 q 388 735 424 749 q 342 672 353 722 q 332 478 332 621 q 339 294 332 349 q 368 220 346 239 q 443 201 390 201 l 492 203 l 492 372 l 417 372 m 293 1050 l 293 1215 l 503 1215 l 503 1050 l 293 1050 z "},"H":{"ha":844,"x_min":63,"x_max":782,"o":"m 494 0 l 494 360 l 350 360 l 350 0 l 63 0 l 63 956 l 350 956 l 350 600 l 494 600 l 494 956 l 782 956 l 782 0 l 494 0 z "},"Ħ":{"ha":844,"x_min":63,"x_max":782,"o":"m 494 956 l 782 956 l 782 0 l 494 0 l 494 304 l 350 304 l 350 0 l 63 0 l 63 956 l 350 956 l 350 849 l 494 849 l 494 956 m 350 544 l 494 544 l 494 658 l 350 658 l 350 544 z "},"Ĥ":{"ha":844,"x_min":63,"x_max":782,"o":"m 494 0 l 494 360 l 350 360 l 350 0 l 63 0 l 63 956 l 350 956 l 350 600 l 494 600 l 494 956 l 782 956 l 782 0 l 494 0 m 188 1039 l 188 1051 l 301 1233 l 540 1233 l 656 1051 l 656 1039 l 486 1039 l 421 1132 l 357 1039 l 188 1039 z "},"Ḥ":{"ha":844,"x_min":63,"x_max":782,"o":"m 494 0 l 494 360 l 350 360 l 350 0 l 63 0 l 63 956 l 350 956 l 350 600 l 494 600 l 494 956 l 782 956 l 782 0 l 494 0 m 285 -311 l 285 -86 l 558 -86 l 558 -311 l 285 -311 z "},"I":{"ha":414,"x_min":64,"x_max":350,"o":"m 64 0 l 64 956 l 350 956 l 350 0 l 64 0 z "},"Ĳ":{"ha":943,"x_min":64,"x_max":882,"o":"m 64 0 l 64 956 l 350 956 l 350 0 l 64 0 m 432 206 q 547 214 515 206 q 587 252 578 222 q 596 363 596 282 l 596 956 l 882 956 l 882 456 q 858 133 882 218 q 751 24 835 49 q 432 0 667 0 l 432 206 z "},"Í":{"ha":414,"x_min":64,"x_max":410,"o":"m 64 0 l 64 956 l 350 956 l 350 0 l 64 0 m 67 1040 l 67 1047 l 164 1246 l 410 1246 l 410 1239 l 258 1040 l 67 1040 z "},"Ĭ":{"ha":414,"x_min":-3,"x_max":415,"o":"m 64 0 l 64 956 l 350 956 l 350 0 l 64 0 m 415 1233 q 399 1125 415 1168 q 338 1058 383 1082 q 206 1033 292 1033 q 75 1058 121 1033 q 13 1125 29 1082 q -3 1233 -3 1168 l 140 1233 q 151 1183 140 1199 q 206 1167 161 1167 q 251 1175 238 1167 q 269 1197 265 1183 q 272 1233 272 1210 l 415 1233 z "},"Ǐ":{"ha":414,"x_min":-28,"x_max":440,"o":"m 64 0 l 64 956 l 350 956 l 350 0 l 64 0 m 86 1039 l -28 1222 l -28 1233 l 142 1233 l 208 1140 l 271 1233 l 440 1233 l 440 1222 l 325 1039 l 86 1039 z "},"Î":{"ha":414,"x_min":-28,"x_max":440,"o":"m 64 0 l 64 956 l 350 956 l 350 0 l 64 0 m -28 1040 l -28 1053 l 86 1235 l 325 1235 l 440 1053 l 440 1040 l 271 1040 l 206 1133 l 142 1040 l -28 1040 z "},"Ȉ":{"ha":414,"x_min":-99,"x_max":413,"o":"m 64 0 l 64 956 l 350 956 l 350 0 l 64 0 m 176 1050 l 19 1050 l -99 1208 l -99 1214 l 100 1214 l 176 1056 l 176 1050 m 413 1050 l 257 1050 l 138 1208 l 138 1214 l 338 1214 l 413 1056 l 413 1050 z "},"Ï":{"ha":414,"x_min":-36,"x_max":450,"o":"m 64 0 l 64 956 l 350 956 l 350 0 l 64 0 m -36 1079 l -36 1244 l 172 1244 l 172 1079 l -36 1079 m 240 1079 l 240 1244 l 450 1244 l 450 1079 l 240 1079 z "},"İ":{"ha":414,"x_min":64,"x_max":350,"o":"m 64 0 l 64 956 l 350 956 l 350 0 l 64 0 m 101 1050 l 101 1215 l 311 1215 l 311 1050 l 101 1050 z "},"Ị":{"ha":414,"x_min":64,"x_max":350,"o":"m 64 0 l 64 956 l 350 956 l 350 0 l 64 0 m 69 -311 l 69 -86 l 343 -86 l 343 -311 l 69 -311 z "},"Ì":{"ha":414,"x_min":6,"x_max":350,"o":"m 64 0 l 64 956 l 350 956 l 350 0 l 64 0 m 157 1042 l 6 1240 l 6 1247 l 253 1247 l 349 1049 l 349 1042 l 157 1042 z "},"Ỉ":{"ha":414,"x_min":18,"x_max":397,"o":"m 64 0 l 64 956 l 350 956 l 350 0 l 64 0 m 99 1024 q 110 1088 99 1069 q 161 1115 122 1106 l 179 1119 q 219 1135 210 1129 q 228 1157 228 1142 q 215 1181 228 1176 q 163 1185 203 1185 q 18 1179 93 1185 l 18 1300 q 200 1318 111 1318 q 305 1310 264 1318 q 372 1272 346 1301 q 397 1179 397 1242 q 376 1098 397 1121 q 301 1057 354 1075 l 288 1051 q 249 1033 257 1040 q 240 1008 240 1025 l 99 1008 l 99 1024 z "},"Ȋ":{"ha":414,"x_min":-3,"x_max":415,"o":"m 64 0 l 64 956 l 350 956 l 350 0 l 64 0 m -3 1040 q 13 1149 -3 1106 q 75 1216 29 1192 q 207 1240 121 1240 q 338 1216 292 1240 q 399 1149 383 1192 q 415 1040 415 1106 l 272 1040 q 262 1091 272 1075 q 207 1107 251 1107 q 161 1099 175 1107 q 144 1077 147 1090 q 140 1040 140 1064 l -3 1040 z "},"Ī":{"ha":414,"x_min":29,"x_max":386,"o":"m 64 0 l 64 956 l 350 956 l 350 0 l 64 0 m 29 1026 l 29 1233 l 386 1233 l 386 1026 l 29 1026 z "},"Į":{"ha":414,"x_min":64,"x_max":351,"o":"m 247 -272 q 110 -238 151 -272 q 68 -150 68 -204 q 149 0 68 -74 l 64 0 l 64 956 l 350 956 l 350 0 q 297 -44 321 -17 q 272 -101 272 -72 q 331 -147 272 -147 l 351 -146 l 351 -267 q 247 -272 296 -272 z "},"Ĩ":{"ha":414,"x_min":-50,"x_max":463,"o":"m 64 0 l 64 956 l 350 956 l 350 0 l 64 0 m 463 1233 q 456 1113 463 1153 q 422 1050 450 1074 q 332 1026 394 1026 q 189 1047 278 1026 l 156 1053 q 108 1060 124 1060 q 86 1050 90 1060 q 82 1010 82 1040 l -50 1010 q -44 1129 -50 1089 q -9 1193 -37 1169 q 81 1217 19 1217 q 225 1196 136 1217 q 304 1183 285 1183 q 326 1193 322 1183 q 331 1233 331 1203 l 463 1233 z "},"J":{"ha":529,"x_min":18,"x_max":468,"o":"m 18 206 q 133 214 101 206 q 173 252 164 222 q 182 363 182 282 l 182 956 l 468 956 l 468 456 q 444 133 468 218 q 337 24 421 49 q 18 0 253 0 l 18 206 z "},"Ĵ":{"ha":529,"x_min":18,"x_max":558,"o":"m 18 206 q 133 214 101 206 q 173 252 164 222 q 182 363 182 282 l 182 956 l 468 956 l 468 456 q 444 133 468 218 q 337 24 421 49 q 18 0 253 0 l 18 206 m 90 1039 l 90 1051 l 204 1233 l 443 1233 l 558 1051 l 558 1039 l 389 1039 l 324 1132 l 260 1039 l 90 1039 z "},"K":{"ha":836,"x_min":64,"x_max":835,"o":"m 525 0 l 367 376 l 350 376 l 350 0 l 64 0 l 64 956 l 350 956 l 350 594 l 367 594 l 529 956 l 832 956 l 597 504 l 835 0 l 525 0 z "},"Ķ":{"ha":836,"x_min":64,"x_max":835,"o":"m 525 0 l 367 376 l 350 376 l 350 0 l 64 0 l 64 956 l 350 956 l 350 594 l 367 594 l 529 956 l 832 956 l 597 504 l 835 0 l 525 0 m 292 -306 q 363 -294 347 -306 q 379 -250 379 -283 l 379 -239 l 289 -239 l 289 -82 l 546 -82 l 546 -178 q 529 -317 546 -272 q 459 -382 513 -362 q 292 -401 406 -401 l 292 -306 z "},"L":{"ha":638,"x_min":64,"x_max":615,"o":"m 64 0 l 64 956 l 350 956 l 350 228 l 615 228 l 615 0 l 64 0 z "},"Ǉ":{"ha":1167,"x_min":64,"x_max":1106,"o":"m 64 0 l 64 956 l 350 956 l 350 228 l 615 228 l 615 0 l 64 0 m 656 206 q 770 214 739 206 q 810 252 801 222 q 819 363 819 282 l 819 956 l 1106 956 l 1106 456 q 1082 133 1106 218 q 974 24 1058 49 q 656 0 890 0 l 656 206 z "},"Ĺ":{"ha":638,"x_min":64,"x_max":615,"o":"m 64 0 l 64 956 l 350 956 l 350 228 l 615 228 l 615 0 l 64 0 m 106 1028 l 106 1035 l 203 1233 l 449 1233 l 449 1226 l 297 1028 l 106 1028 z "},"Ľ":{"ha":638,"x_min":64,"x_max":688,"o":"m 64 0 l 64 956 l 350 956 l 350 228 l 615 228 l 615 0 l 64 0 m 439 586 l 456 894 l 456 957 l 688 957 l 688 894 l 619 586 l 439 586 z "},"Ļ":{"ha":638,"x_min":64,"x_max":615,"o":"m 64 0 l 64 956 l 350 956 l 350 228 l 615 228 l 615 0 l 64 0 m 199 -306 q 270 -294 254 -306 q 286 -250 286 -283 l 286 -239 l 196 -239 l 196 -82 l 453 -82 l 453 -178 q 436 -317 453 -272 q 366 -382 419 -362 q 199 -401 313 -401 l 199 -306 z "},"Ŀ":{"ha":682,"x_min":64,"x_max":683,"o":"m 64 0 l 64 956 l 350 956 l 350 228 l 615 228 l 615 0 l 64 0 m 410 422 l 410 647 l 683 647 l 683 422 l 410 422 z "},"ǈ":{"ha":1015,"x_min":64,"x_max":960,"o":"m 64 0 l 64 956 l 350 956 l 350 228 l 615 228 l 615 0 l 64 0 m 692 831 l 692 1032 l 960 1032 l 960 831 l 692 831 m 604 -99 q 664 -92 646 -99 q 687 -71 682 -85 q 692 -28 692 -57 l 692 708 l 960 708 l 960 50 q 933 -169 960 -103 q 835 -256 906 -236 q 604 -276 765 -276 l 604 -99 z "},"Ł":{"ha":638,"x_min":-1,"x_max":615,"o":"m 350 228 l 615 228 l 615 0 l 64 0 l 64 344 l -1 321 l -1 513 l 64 536 l 64 956 l 350 956 l 350 642 l 499 696 l 499 506 l 350 450 l 350 228 z "},"M":{"ha":1129,"x_min":63,"x_max":1065,"o":"m 792 0 l 792 594 l 778 594 l 668 0 l 454 0 l 344 594 l 331 594 l 331 0 l 63 0 l 63 956 l 469 956 l 561 440 l 572 440 l 663 956 l 1065 956 l 1065 0 l 792 0 z "},"N":{"ha":854,"x_min":63,"x_max":792,"o":"m 532 0 l 343 439 l 336 439 l 336 0 l 63 0 l 63 956 l 349 956 l 508 585 l 518 585 l 518 956 l 792 956 l 792 0 l 532 0 z "},"Ǌ":{"ha":1383,"x_min":63,"x_max":1322,"o":"m 532 0 l 343 439 l 336 439 l 336 0 l 63 0 l 63 956 l 349 956 l 508 585 l 518 585 l 518 956 l 792 956 l 792 0 l 532 0 m 872 206 q 987 214 956 206 q 1027 252 1018 222 q 1036 363 1036 282 l 1036 956 l 1322 956 l 1322 456 q 1299 133 1322 218 q 1191 24 1275 49 q 872 0 1107 0 l 872 206 z "},"Ń":{"ha":854,"x_min":63,"x_max":792,"o":"m 532 0 l 343 439 l 336 439 l 336 0 l 63 0 l 63 956 l 349 956 l 508 585 l 518 585 l 518 956 l 792 956 l 792 0 l 532 0 m 326 1028 l 326 1035 l 424 1233 l 669 1233 l 669 1226 l 518 1028 l 326 1028 z "},"Ň":{"ha":854,"x_min":63,"x_max":792,"o":"m 532 0 l 343 439 l 336 439 l 336 0 l 63 0 l 63 956 l 349 956 l 508 585 l 518 585 l 518 956 l 792 956 l 792 0 l 532 0 m 307 1039 l 193 1222 l 193 1233 l 363 1233 l 429 1140 l 492 1233 l 661 1233 l 661 1222 l 546 1039 l 307 1039 z "},"Ņ":{"ha":854,"x_min":63,"x_max":792,"o":"m 532 0 l 343 439 l 336 439 l 336 0 l 63 0 l 63 956 l 349 956 l 508 585 l 518 585 l 518 956 l 792 956 l 792 0 l 532 0 m 301 -306 q 373 -294 357 -306 q 389 -250 389 -283 l 389 -239 l 299 -239 l 299 -82 l 556 -82 l 556 -178 q 539 -317 556 -272 q 469 -382 522 -362 q 301 -401 415 -401 l 301 -306 z "},"Ṅ":{"ha":854,"x_min":63,"x_max":792,"o":"m 532 0 l 343 439 l 336 439 l 336 0 l 63 0 l 63 956 l 349 956 l 508 585 l 518 585 l 518 956 l 792 956 l 792 0 l 532 0 m 322 1050 l 322 1215 l 532 1215 l 532 1050 l 322 1050 z "},"Ŋ":{"ha":854,"x_min":63,"x_max":792,"o":"m 792 956 l 792 33 q 763 -174 790 -111 q 663 -257 735 -237 q 431 -276 592 -276 l 431 -99 q 490 -92 472 -99 q 513 -71 508 -85 q 518 -28 518 -57 l 518 36 l 343 439 l 336 439 l 336 0 l 63 0 l 63 956 l 349 956 l 508 585 l 518 585 l 518 956 l 792 956 z "},"Ɲ":{"ha":854,"x_min":-25,"x_max":792,"o":"m 792 956 l 792 0 l 532 0 l 343 439 l 336 439 l 336 50 q 309 -169 336 -103 q 210 -256 282 -236 q -25 -276 139 -276 l -25 -99 q 35 -92 17 -99 q 58 -71 53 -85 q 63 -28 63 -57 l 63 956 l 349 956 l 508 585 l 518 585 l 518 956 l 792 956 z "},"ǋ":{"ha":1232,"x_min":63,"x_max":1176,"o":"m 532 0 l 343 439 l 336 439 l 336 0 l 63 0 l 63 956 l 349 956 l 508 585 l 518 585 l 518 956 l 792 956 l 792 0 l 532 0 m 908 831 l 908 1032 l 1176 1032 l 1176 831 l 908 831 m 821 -99 q 881 -92 863 -99 q 903 -71 899 -85 q 908 -28 908 -57 l 908 708 l 1176 708 l 1176 50 q 1149 -169 1176 -103 q 1052 -256 1122 -236 q 821 -276 982 -276 l 821 -99 z "},"Ñ":{"ha":854,"x_min":63,"x_max":792,"o":"m 532 0 l 343 439 l 336 439 l 336 0 l 63 0 l 63 956 l 349 956 l 508 585 l 518 585 l 518 956 l 792 956 l 792 0 l 532 0 m 683 1267 q 677 1147 683 1186 q 643 1083 671 1107 q 553 1060 615 1060 q 410 1081 499 1060 l 376 1086 q 329 1093 344 1093 q 307 1083 311 1093 q 303 1043 303 1074 l 171 1043 q 177 1163 171 1122 q 212 1226 183 1203 q 301 1250 240 1250 q 446 1229 357 1250 q 525 1217 506 1217 q 547 1226 543 1217 q 551 1267 551 1236 l 683 1267 z "},"O":{"ha":836,"x_min":50,"x_max":785,"o":"m 417 -11 q 161 32 238 -11 q 67 167 85 75 q 50 478 50 260 q 67 788 50 696 q 161 924 85 881 q 417 967 238 967 q 673 924 597 967 q 767 788 749 881 q 785 478 785 696 q 767 167 785 260 q 673 32 749 75 q 417 -11 597 -11 m 417 207 q 476 220 461 207 q 494 281 490 233 q 497 478 497 329 q 494 674 497 626 q 476 735 490 722 q 417 749 461 749 q 359 735 374 749 q 341 674 344 722 q 338 478 338 626 q 341 281 338 329 q 359 220 344 233 q 417 207 374 207 z "},"Ó":{"ha":836,"x_min":50,"x_max":785,"o":"m 417 -11 q 161 32 238 -11 q 67 167 85 75 q 50 478 50 260 q 67 788 50 696 q 161 924 85 881 q 417 967 238 967 q 673 924 597 967 q 767 788 749 881 q 785 478 785 696 q 767 167 785 260 q 673 32 749 75 q 417 -11 597 -11 m 417 207 q 476 220 461 207 q 494 281 490 233 q 497 478 497 329 q 494 674 497 626 q 476 735 490 722 q 417 749 461 749 q 359 735 374 749 q 341 674 344 722 q 338 478 338 626 q 341 281 338 329 q 359 220 344 233 q 417 207 374 207 m 310 1042 l 310 1049 l 407 1247 l 653 1247 l 653 1240 l 501 1042 l 310 1042 z "},"Ŏ":{"ha":836,"x_min":50,"x_max":785,"o":"m 417 -11 q 161 32 238 -11 q 67 167 85 75 q 50 478 50 260 q 67 788 50 696 q 161 924 85 881 q 417 967 238 967 q 673 924 597 967 q 767 788 749 881 q 785 478 785 696 q 767 167 785 260 q 673 32 749 75 q 417 -11 597 -11 m 417 207 q 476 220 461 207 q 494 281 490 233 q 497 478 497 329 q 494 674 497 626 q 476 735 490 722 q 417 749 461 749 q 359 735 374 749 q 341 674 344 722 q 338 478 338 626 q 341 281 338 329 q 359 220 344 233 q 417 207 374 207 m 626 1233 q 610 1125 626 1168 q 549 1058 594 1082 q 417 1033 503 1033 q 286 1058 332 1033 q 224 1125 240 1082 q 208 1233 208 1168 l 351 1233 q 362 1183 351 1199 q 417 1167 372 1167 q 463 1175 449 1167 q 480 1197 476 1183 q 483 1233 483 1210 l 626 1233 z "},"Ǒ":{"ha":836,"x_min":50,"x_max":785,"o":"m 417 -11 q 161 32 238 -11 q 67 167 85 75 q 50 478 50 260 q 67 788 50 696 q 161 924 85 881 q 417 967 238 967 q 673 924 597 967 q 767 788 749 881 q 785 478 785 696 q 767 167 785 260 q 673 32 749 75 q 417 -11 597 -11 m 417 207 q 476 220 461 207 q 494 281 490 233 q 497 478 497 329 q 494 674 497 626 q 476 735 490 722 q 417 749 461 749 q 359 735 374 749 q 341 674 344 722 q 338 478 338 626 q 341 281 338 329 q 359 220 344 233 q 417 207 374 207 m 297 1039 l 183 1222 l 183 1233 l 353 1233 l 419 1140 l 482 1233 l 651 1233 l 651 1222 l 536 1039 l 297 1039 z "},"Ô":{"ha":836,"x_min":50,"x_max":785,"o":"m 417 -11 q 161 32 238 -11 q 67 167 85 75 q 50 478 50 260 q 67 788 50 696 q 161 924 85 881 q 417 967 238 967 q 673 924 597 967 q 767 788 749 881 q 785 478 785 696 q 767 167 785 260 q 673 32 749 75 q 417 -11 597 -11 m 417 207 q 476 220 461 207 q 494 281 490 233 q 497 478 497 329 q 494 674 497 626 q 476 735 490 722 q 417 749 461 749 q 359 735 374 749 q 341 674 344 722 q 338 478 338 626 q 341 281 338 329 q 359 220 344 233 q 417 207 374 207 m 183 1042 l 183 1054 l 297 1236 l 536 1236 l 651 1054 l 651 1042 l 482 1042 l 417 1135 l 353 1042 l 183 1042 z "},"Ố":{"ha":836,"x_min":50,"x_max":785,"o":"m 417 -11 q 161 32 238 -11 q 67 167 85 75 q 50 478 50 260 q 67 788 50 696 q 161 924 85 881 q 417 967 238 967 q 673 924 597 967 q 767 788 749 881 q 785 478 785 696 q 767 167 785 260 q 673 32 749 75 q 417 -11 597 -11 m 417 207 q 476 220 461 207 q 494 281 490 233 q 497 478 497 329 q 494 674 497 626 q 476 735 490 722 q 417 749 461 749 q 359 735 374 749 q 341 674 344 722 q 338 478 338 626 q 341 281 338 329 q 359 220 344 233 q 417 207 374 207 m 183 1019 l 183 1032 l 297 1214 l 536 1214 l 651 1032 l 651 1019 l 482 1019 l 417 1113 l 353 1019 l 183 1019 m 429 1249 l 429 1256 l 526 1454 l 772 1454 l 772 1447 l 621 1249 l 429 1249 z "},"Ộ":{"ha":836,"x_min":50,"x_max":785,"o":"m 417 -11 q 161 32 238 -11 q 67 167 85 75 q 50 478 50 260 q 67 788 50 696 q 161 924 85 881 q 417 967 238 967 q 673 924 597 967 q 767 788 749 881 q 785 478 785 696 q 767 167 785 260 q 673 32 749 75 q 417 -11 597 -11 m 417 207 q 476 220 461 207 q 494 281 490 233 q 497 478 497 329 q 494 674 497 626 q 476 735 490 722 q 417 749 461 749 q 359 735 374 749 q 341 674 344 722 q 338 478 338 626 q 341 281 338 329 q 359 220 344 233 q 417 207 374 207 m 281 -311 l 281 -86 l 554 -86 l 554 -311 l 281 -311 m 183 1039 l 183 1051 l 297 1233 l 536 1233 l 651 1051 l 651 1039 l 482 1039 l 417 1132 l 353 1039 l 183 1039 z "},"Ồ":{"ha":836,"x_min":50,"x_max":785,"o":"m 417 -11 q 161 32 238 -11 q 67 167 85 75 q 50 478 50 260 q 67 788 50 696 q 161 924 85 881 q 417 967 238 967 q 673 924 597 967 q 767 788 749 881 q 785 478 785 696 q 767 167 785 260 q 673 32 749 75 q 417 -11 597 -11 m 417 207 q 476 220 461 207 q 494 281 490 233 q 497 478 497 329 q 494 674 497 626 q 476 735 490 722 q 417 749 461 749 q 359 735 374 749 q 341 674 344 722 q 338 478 338 626 q 341 281 338 329 q 359 220 344 233 q 417 207 374 207 m 167 1019 l 167 1032 l 281 1214 l 519 1214 l 635 1032 l 635 1019 l 465 1019 l 400 1113 l 336 1019 l 167 1019 m 475 1249 l 324 1447 l 324 1454 l 571 1454 l 667 1256 l 667 1249 l 475 1249 z "},"Ổ":{"ha":836,"x_min":50,"x_max":793,"o":"m 417 -11 q 161 32 238 -11 q 67 167 85 75 q 50 478 50 260 q 67 788 50 696 q 161 924 85 881 q 417 967 238 967 q 673 924 597 967 q 767 788 749 881 q 785 478 785 696 q 767 167 785 260 q 673 32 749 75 q 417 -11 597 -11 m 417 207 q 476 220 461 207 q 494 281 490 233 q 497 478 497 329 q 494 674 497 626 q 476 735 490 722 q 417 749 461 749 q 359 735 374 749 q 341 674 344 722 q 338 478 338 626 q 341 281 338 329 q 359 220 344 233 q 417 207 374 207 m 183 1019 l 183 1032 l 297 1214 l 536 1214 l 651 1032 l 651 1019 l 482 1019 l 417 1113 l 353 1019 l 183 1019 m 494 1258 q 506 1322 494 1304 q 557 1350 518 1340 l 575 1356 q 615 1371 606 1364 q 624 1392 624 1378 q 611 1416 624 1411 q 558 1421 599 1421 q 414 1415 489 1421 l 414 1536 q 596 1554 507 1554 q 701 1546 660 1554 q 767 1508 742 1538 q 793 1415 793 1478 q 783 1351 793 1374 q 753 1317 772 1329 q 697 1292 735 1304 l 683 1288 q 644 1269 653 1276 q 636 1243 636 1261 l 494 1243 l 494 1258 z "},"Ỗ":{"ha":836,"x_min":50,"x_max":785,"o":"m 417 -11 q 161 32 238 -11 q 67 167 85 75 q 50 478 50 260 q 67 788 50 696 q 161 924 85 881 q 417 967 238 967 q 673 924 597 967 q 767 788 749 881 q 785 478 785 696 q 767 167 785 260 q 673 32 749 75 q 417 -11 597 -11 m 417 207 q 476 220 461 207 q 494 281 490 233 q 497 478 497 329 q 494 674 497 626 q 476 735 490 722 q 417 749 461 749 q 359 735 374 749 q 341 674 344 722 q 338 478 338 626 q 341 281 338 329 q 359 220 344 233 q 417 207 374 207 m 181 1019 l 181 1032 l 294 1214 l 533 1214 l 649 1032 l 649 1019 l 479 1019 l 414 1113 l 350 1019 l 181 1019 m 674 1454 q 667 1334 674 1374 q 633 1271 661 1294 q 543 1247 606 1247 q 400 1268 489 1247 l 367 1274 q 319 1281 335 1281 q 297 1271 301 1281 q 293 1231 293 1261 l 161 1231 q 167 1350 161 1310 q 202 1414 174 1390 q 292 1438 231 1438 q 436 1417 347 1438 q 515 1404 496 1404 q 538 1414 533 1404 q 542 1454 542 1424 l 674 1454 z "},"Ȍ":{"ha":836,"x_min":50,"x_max":785,"o":"m 417 -11 q 161 32 238 -11 q 67 167 85 75 q 50 478 50 260 q 67 788 50 696 q 161 924 85 881 q 417 967 238 967 q 673 924 597 967 q 767 788 749 881 q 785 478 785 696 q 767 167 785 260 q 673 32 749 75 q 417 -11 597 -11 m 417 207 q 476 220 461 207 q 494 281 490 233 q 497 478 497 329 q 494 674 497 626 q 476 735 490 722 q 417 749 461 749 q 359 735 374 749 q 341 674 344 722 q 338 478 338 626 q 341 281 338 329 q 359 220 344 233 q 417 207 374 207 m 388 1050 l 231 1050 l 113 1208 l 113 1214 l 311 1214 l 388 1056 l 388 1050 m 624 1050 l 468 1050 l 349 1208 l 349 1214 l 549 1214 l 624 1056 l 624 1050 z "},"Ö":{"ha":836,"x_min":50,"x_max":785,"o":"m 417 -11 q 161 32 238 -11 q 67 167 85 75 q 50 478 50 260 q 67 788 50 696 q 161 924 85 881 q 417 967 238 967 q 673 924 597 967 q 767 788 749 881 q 785 478 785 696 q 767 167 785 260 q 673 32 749 75 q 417 -11 597 -11 m 417 207 q 476 220 461 207 q 494 281 490 233 q 497 478 497 329 q 494 674 497 626 q 476 735 490 722 q 417 749 461 749 q 359 735 374 749 q 341 674 344 722 q 338 478 338 626 q 341 281 338 329 q 359 220 344 233 q 417 207 374 207 m 175 1079 l 175 1244 l 383 1244 l 383 1079 l 175 1079 m 451 1079 l 451 1244 l 661 1244 l 661 1079 l 451 1079 z "},"Ọ":{"ha":836,"x_min":50,"x_max":785,"o":"m 417 -11 q 161 32 238 -11 q 67 167 85 75 q 50 478 50 260 q 67 788 50 696 q 161 924 85 881 q 417 967 238 967 q 673 924 597 967 q 767 788 749 881 q 785 478 785 696 q 767 167 785 260 q 673 32 749 75 q 417 -11 597 -11 m 417 207 q 476 220 461 207 q 494 281 490 233 q 497 478 497 329 q 494 674 497 626 q 476 735 490 722 q 417 749 461 749 q 359 735 374 749 q 341 674 344 722 q 338 478 338 626 q 341 281 338 329 q 359 220 344 233 q 417 207 374 207 m 281 -311 l 281 -86 l 554 -86 l 554 -311 l 281 -311 z "},"Ò":{"ha":836,"x_min":50,"x_max":785,"o":"m 417 -11 q 161 32 238 -11 q 67 167 85 75 q 50 478 50 260 q 67 788 50 696 q 161 924 85 881 q 417 967 238 967 q 673 924 597 967 q 767 788 749 881 q 785 478 785 696 q 767 167 785 260 q 673 32 749 75 q 417 -11 597 -11 m 417 207 q 476 220 461 207 q 494 281 490 233 q 497 478 497 329 q 494 674 497 626 q 476 735 490 722 q 417 749 461 749 q 359 735 374 749 q 341 674 344 722 q 338 478 338 626 q 341 281 338 329 q 359 220 344 233 q 417 207 374 207 m 335 1042 l 183 1240 l 183 1247 l 431 1247 l 526 1049 l 526 1042 l 335 1042 z "},"Ỏ":{"ha":836,"x_min":50,"x_max":785,"o":"m 417 -11 q 161 32 238 -11 q 67 167 85 75 q 50 478 50 260 q 67 788 50 696 q 161 924 85 881 q 417 967 238 967 q 673 924 597 967 q 767 788 749 881 q 785 478 785 696 q 767 167 785 260 q 673 32 749 75 q 417 -11 597 -11 m 417 207 q 476 220 461 207 q 494 281 490 233 q 497 478 497 329 q 494 674 497 626 q 476 735 490 722 q 417 749 461 749 q 359 735 374 749 q 341 674 344 722 q 338 478 338 626 q 341 281 338 329 q 359 220 344 233 q 417 207 374 207 m 310 1024 q 322 1088 310 1069 q 372 1115 333 1106 l 390 1119 q 430 1135 421 1129 q 439 1157 439 1142 q 426 1181 439 1176 q 374 1185 414 1185 q 229 1179 304 1185 l 229 1300 q 411 1318 322 1318 q 516 1310 475 1318 q 583 1272 557 1301 q 608 1179 608 1242 q 587 1098 608 1121 q 513 1057 565 1075 l 499 1051 q 460 1033 468 1040 q 451 1008 451 1025 l 310 1008 l 310 1024 z "},"Ơ":{"ha":836,"x_min":50,"x_max":860,"o":"m 860 1078 l 860 1060 q 851 958 860 994 q 815 899 842 921 q 733 868 788 876 q 776 733 768 817 q 785 478 785 649 q 767 167 785 260 q 673 32 749 75 q 417 -11 597 -11 q 161 32 238 -11 q 67 167 85 75 q 50 478 50 260 q 67 788 50 696 q 161 924 85 881 q 417 967 238 967 q 575 956 518 967 l 606 956 q 663 963 644 956 q 687 989 681 971 q 693 1043 693 1007 l 693 1078 l 860 1078 m 417 207 q 476 220 461 207 q 494 281 490 233 q 497 478 497 329 q 494 674 497 626 q 476 735 490 722 q 417 749 461 749 q 359 735 374 749 q 341 674 344 722 q 338 478 338 626 q 341 281 338 329 q 359 220 344 233 q 417 207 374 207 z "},"Ớ":{"ha":836,"x_min":50,"x_max":860,"o":"m 860 1078 l 860 1060 q 851 958 860 994 q 815 899 842 921 q 733 868 788 876 q 776 733 768 817 q 785 478 785 649 q 767 167 785 260 q 673 32 749 75 q 417 -11 597 -11 q 161 32 238 -11 q 67 167 85 75 q 50 478 50 260 q 67 788 50 696 q 161 924 85 881 q 417 967 238 967 q 575 956 518 967 l 606 956 q 663 963 644 956 q 687 989 681 971 q 693 1043 693 1007 l 693 1078 l 860 1078 m 417 207 q 476 220 461 207 q 494 281 490 233 q 497 478 497 329 q 494 674 497 626 q 476 735 490 722 q 417 749 461 749 q 359 735 374 749 q 341 674 344 722 q 338 478 338 626 q 341 281 338 329 q 359 220 344 233 q 417 207 374 207 m 317 1028 l 317 1035 l 414 1233 l 660 1233 l 660 1226 l 508 1028 l 317 1028 z "},"Ợ":{"ha":836,"x_min":50,"x_max":860,"o":"m 860 1078 l 860 1060 q 851 958 860 994 q 815 899 842 921 q 733 868 788 876 q 776 733 768 817 q 785 478 785 649 q 767 167 785 260 q 673 32 749 75 q 417 -11 597 -11 q 161 32 238 -11 q 67 167 85 75 q 50 478 50 260 q 67 788 50 696 q 161 924 85 881 q 417 967 238 967 q 575 956 518 967 l 606 956 q 663 963 644 956 q 687 989 681 971 q 693 1043 693 1007 l 693 1078 l 860 1078 m 417 207 q 476 220 461 207 q 494 281 490 233 q 497 478 497 329 q 494 674 497 626 q 476 735 490 722 q 417 749 461 749 q 359 735 374 749 q 341 674 344 722 q 338 478 338 626 q 341 281 338 329 q 359 220 344 233 q 417 207 374 207 m 281 -311 l 281 -86 l 554 -86 l 554 -311 l 281 -311 z "},"Ờ":{"ha":836,"x_min":50,"x_max":860,"o":"m 860 1078 l 860 1060 q 851 958 860 994 q 815 899 842 921 q 733 868 788 876 q 776 733 768 817 q 785 478 785 649 q 767 167 785 260 q 673 32 749 75 q 417 -11 597 -11 q 161 32 238 -11 q 67 167 85 75 q 50 478 50 260 q 67 788 50 696 q 161 924 85 881 q 417 967 238 967 q 575 956 518 967 l 606 956 q 663 963 644 956 q 687 989 681 971 q 693 1043 693 1007 l 693 1078 l 860 1078 m 417 207 q 476 220 461 207 q 494 281 490 233 q 497 478 497 329 q 494 674 497 626 q 476 735 490 722 q 417 749 461 749 q 359 735 374 749 q 341 674 344 722 q 338 478 338 626 q 341 281 338 329 q 359 220 344 233 q 417 207 374 207 m 333 1028 l 182 1226 l 182 1233 l 429 1233 l 525 1035 l 525 1028 l 333 1028 z "},"Ở":{"ha":836,"x_min":50,"x_max":860,"o":"m 860 1078 l 860 1060 q 851 958 860 994 q 815 899 842 921 q 733 868 788 876 q 776 733 768 817 q 785 478 785 649 q 767 167 785 260 q 673 32 749 75 q 417 -11 597 -11 q 161 32 238 -11 q 67 167 85 75 q 50 478 50 260 q 67 788 50 696 q 161 924 85 881 q 417 967 238 967 q 575 956 518 967 l 606 956 q 663 963 644 956 q 687 989 681 971 q 693 1043 693 1007 l 693 1078 l 860 1078 m 417 207 q 476 220 461 207 q 494 281 490 233 q 497 478 497 329 q 494 674 497 626 q 476 735 490 722 q 417 749 461 749 q 359 735 374 749 q 341 674 344 722 q 338 478 338 626 q 341 281 338 329 q 359 220 344 233 q 417 207 374 207 m 310 1024 q 322 1088 310 1069 q 372 1115 333 1106 l 390 1119 q 430 1135 421 1129 q 439 1157 439 1142 q 426 1181 439 1176 q 374 1185 414 1185 q 229 1179 304 1185 l 229 1300 q 411 1318 322 1318 q 516 1310 475 1318 q 583 1272 557 1301 q 608 1179 608 1242 q 587 1098 608 1121 q 513 1057 565 1075 l 499 1051 q 460 1033 468 1040 q 451 1008 451 1025 l 310 1008 l 310 1024 z "},"Ỡ":{"ha":836,"x_min":50,"x_max":860,"o":"m 860 1078 l 860 1060 q 851 958 860 994 q 815 899 842 921 q 733 868 788 876 q 776 733 768 817 q 785 478 785 649 q 767 167 785 260 q 673 32 749 75 q 417 -11 597 -11 q 161 32 238 -11 q 67 167 85 75 q 50 478 50 260 q 67 788 50 696 q 161 924 85 881 q 417 967 238 967 q 575 956 518 967 l 606 956 q 663 963 644 956 q 687 989 681 971 q 693 1043 693 1007 l 693 1078 l 860 1078 m 417 207 q 476 220 461 207 q 494 281 490 233 q 497 478 497 329 q 494 674 497 626 q 476 735 490 722 q 417 749 461 749 q 359 735 374 749 q 341 674 344 722 q 338 478 338 626 q 341 281 338 329 q 359 220 344 233 q 417 207 374 207 m 674 1233 q 667 1113 674 1153 q 633 1050 661 1074 q 543 1026 606 1026 q 400 1047 489 1026 l 367 1053 q 319 1060 335 1060 q 297 1050 301 1060 q 293 1010 293 1040 l 161 1010 q 167 1129 161 1089 q 202 1193 174 1169 q 292 1217 231 1217 q 436 1196 347 1217 q 515 1183 496 1183 q 538 1193 533 1183 q 542 1233 542 1203 l 674 1233 z "},"Ő":{"ha":836,"x_min":50,"x_max":785,"o":"m 417 -11 q 161 32 238 -11 q 67 167 85 75 q 50 478 50 260 q 67 788 50 696 q 161 924 85 881 q 417 967 238 967 q 673 924 597 967 q 767 788 749 881 q 785 478 785 696 q 767 167 785 260 q 673 32 749 75 q 417 -11 597 -11 m 417 207 q 476 220 461 207 q 494 281 490 233 q 497 478 497 329 q 494 674 497 626 q 476 735 490 722 q 417 749 461 749 q 359 735 374 749 q 341 674 344 722 q 338 478 338 626 q 341 281 338 329 q 359 220 344 233 q 417 207 374 207 m 228 1050 l 228 1056 l 303 1214 l 503 1214 l 503 1208 l 383 1050 l 228 1050 m 464 1050 l 464 1056 l 540 1214 l 739 1214 l 739 1208 l 621 1050 l 464 1050 z "},"Ȏ":{"ha":836,"x_min":50,"x_max":785,"o":"m 417 -11 q 161 32 238 -11 q 67 167 85 75 q 50 478 50 260 q 67 788 50 696 q 161 924 85 881 q 417 967 238 967 q 673 924 597 967 q 767 788 749 881 q 785 478 785 696 q 767 167 785 260 q 673 32 749 75 q 417 -11 597 -11 m 417 207 q 476 220 461 207 q 494 281 490 233 q 497 478 497 329 q 494 674 497 626 q 476 735 490 722 q 417 749 461 749 q 359 735 374 749 q 341 674 344 722 q 338 478 338 626 q 341 281 338 329 q 359 220 344 233 q 417 207 374 207 m 208 1040 q 224 1149 208 1106 q 286 1216 240 1192 q 418 1240 332 1240 q 549 1216 503 1240 q 610 1149 594 1192 q 626 1040 626 1106 l 483 1040 q 473 1091 483 1075 q 418 1107 463 1107 q 372 1099 386 1107 q 355 1077 358 1090 q 351 1040 351 1064 l 208 1040 z "},"Ō":{"ha":836,"x_min":50,"x_max":785,"o":"m 417 -11 q 161 32 238 -11 q 67 167 85 75 q 50 478 50 260 q 67 788 50 696 q 161 924 85 881 q 417 967 238 967 q 673 924 597 967 q 767 788 749 881 q 785 478 785 696 q 767 167 785 260 q 673 32 749 75 q 417 -11 597 -11 m 417 207 q 476 220 461 207 q 494 281 490 233 q 497 478 497 329 q 494 674 497 626 q 476 735 490 722 q 417 749 461 749 q 359 735 374 749 q 341 674 344 722 q 338 478 338 626 q 341 281 338 329 q 359 220 344 233 q 417 207 374 207 m 240 1026 l 240 1233 l 597 1233 l 597 1026 l 240 1026 z "},"Ǫ":{"ha":836,"x_min":50,"x_max":785,"o":"m 553 -272 q 414 -238 456 -272 q 372 -150 372 -204 q 432 -11 372 -79 l 417 -11 q 161 32 238 -11 q 67 167 85 75 q 50 478 50 260 q 67 788 50 696 q 161 924 85 881 q 417 967 238 967 q 673 924 597 967 q 767 788 749 881 q 785 478 785 696 q 779 251 785 328 q 751 120 774 175 q 676 35 728 65 q 603 -26 629 10 q 578 -103 578 -61 q 636 -147 578 -147 l 657 -146 l 657 -267 q 553 -272 601 -272 m 417 207 q 474 220 460 207 q 493 283 489 233 q 497 478 497 332 q 493 673 497 624 q 474 735 489 722 q 417 749 460 749 q 359 735 374 749 q 341 674 344 722 q 338 478 338 626 q 341 281 338 329 q 359 220 344 233 q 417 207 374 207 z "},"Ø":{"ha":836,"x_min":50,"x_max":785,"o":"m 717 889 q 763 800 749 854 q 781 676 778 746 q 785 478 785 606 q 767 167 785 260 q 673 32 749 75 q 417 -11 597 -11 q 301 -6 347 -11 l 269 -76 l 50 -76 l 117 67 q 72 156 86 101 q 53 280 57 210 q 50 478 50 350 q 67 788 50 696 q 161 924 85 881 q 417 967 238 967 q 532 961 488 967 l 565 1032 l 785 1032 l 717 889 m 417 207 q 476 220 461 207 q 494 281 490 233 q 497 478 497 329 q 494 674 497 626 q 476 735 490 722 q 417 749 461 749 q 359 735 374 749 q 341 674 344 722 q 338 478 338 626 q 341 281 338 329 q 359 220 344 233 q 417 207 374 207 z "},"Ǿ":{"ha":836,"x_min":50,"x_max":785,"o":"m 717 889 q 763 800 749 854 q 781 676 778 746 q 785 478 785 606 q 767 167 785 260 q 673 32 749 75 q 417 -11 597 -11 q 301 -6 347 -11 l 269 -76 l 50 -76 l 117 67 q 72 156 86 101 q 53 280 57 210 q 50 478 50 350 q 67 788 50 696 q 161 924 85 881 q 417 967 238 967 q 532 961 488 967 l 565 1032 l 785 1032 l 717 889 m 417 207 q 476 220 461 207 q 494 281 490 233 q 497 478 497 329 q 494 674 497 626 q 476 735 490 722 q 417 749 461 749 q 359 735 374 749 q 341 674 344 722 q 338 478 338 626 q 341 281 338 329 q 359 220 344 233 q 417 207 374 207 m 299 1028 l 299 1035 l 396 1233 l 642 1233 l 642 1226 l 490 1028 l 299 1028 z "},"Õ":{"ha":836,"x_min":50,"x_max":785,"o":"m 417 -11 q 161 32 238 -11 q 67 167 85 75 q 50 478 50 260 q 67 788 50 696 q 161 924 85 881 q 417 967 238 967 q 673 924 597 967 q 767 788 749 881 q 785 478 785 696 q 767 167 785 260 q 673 32 749 75 q 417 -11 597 -11 m 417 207 q 476 220 461 207 q 494 281 490 233 q 497 478 497 329 q 494 674 497 626 q 476 735 490 722 q 417 749 461 749 q 359 735 374 749 q 341 674 344 722 q 338 478 338 626 q 341 281 338 329 q 359 220 344 233 q 417 207 374 207 m 676 1265 q 670 1145 676 1185 q 636 1082 664 1106 q 546 1058 608 1058 q 403 1079 492 1058 l 369 1085 q 322 1092 338 1092 q 300 1082 304 1092 q 296 1042 296 1072 l 164 1042 q 170 1161 164 1121 q 205 1225 176 1201 q 294 1249 233 1249 q 439 1228 350 1249 q 518 1215 499 1215 q 540 1225 536 1215 q 544 1265 544 1235 l 676 1265 z "},"Œ":{"ha":1171,"x_min":50,"x_max":1114,"o":"m 417 0 q 161 42 238 0 q 67 174 85 85 q 50 478 50 264 q 67 781 50 692 q 161 913 85 871 q 417 956 238 956 l 1114 956 l 1114 738 l 853 738 q 764 746 789 738 q 783 590 779 678 l 1064 590 l 1064 375 l 785 375 q 764 210 782 269 q 853 218 797 218 l 1114 218 l 1114 0 l 417 0 m 417 218 q 476 231 461 218 q 494 290 490 243 q 497 478 497 336 q 494 666 497 619 q 476 725 490 713 q 417 738 461 738 q 359 725 374 738 q 341 666 344 713 q 338 478 338 619 q 341 290 338 336 q 359 231 344 243 q 417 218 374 218 z "},"P":{"ha":776,"x_min":64,"x_max":751,"o":"m 64 956 l 481 956 q 653 920 596 956 q 731 815 711 885 q 751 622 751 746 q 733 436 751 506 q 656 328 715 367 q 481 289 597 289 l 350 289 l 350 0 l 64 0 l 64 956 m 388 503 q 440 509 425 503 q 459 539 454 515 q 464 622 464 563 q 459 706 464 682 q 440 735 454 729 q 388 740 425 740 l 350 740 l 350 503 l 388 503 z "},"Þ":{"ha":776,"x_min":64,"x_max":751,"o":"m 64 956 l 350 956 l 350 824 l 481 824 q 653 788 596 824 q 731 683 711 753 q 751 489 751 613 q 733 303 751 372 q 656 195 715 235 q 481 156 597 156 l 350 156 l 350 0 l 64 0 l 64 956 m 388 371 q 440 377 425 371 q 459 407 454 383 q 464 489 464 431 q 459 572 464 549 q 440 602 454 596 q 388 608 425 608 l 350 608 l 350 371 l 388 371 z "},"Q":{"ha":836,"x_min":50,"x_max":850,"o":"m 465 -10 l 417 -11 q 161 32 238 -11 q 67 167 85 75 q 50 478 50 260 q 67 788 50 696 q 161 924 85 881 q 417 967 238 967 q 673 924 597 967 q 767 788 749 881 q 785 478 785 696 q 769 207 785 299 q 707 67 754 115 l 850 -149 l 850 -160 l 557 -160 l 465 -10 m 417 207 q 474 220 460 207 q 493 283 489 233 q 497 478 497 332 q 493 673 497 624 q 474 735 489 722 q 417 749 460 749 q 359 735 374 749 q 341 674 344 722 q 338 478 338 626 q 341 281 338 329 q 359 220 344 233 q 417 207 374 207 z "},"R":{"ha":810,"x_min":64,"x_max":785,"o":"m 490 0 l 404 317 l 350 317 l 350 0 l 64 0 l 64 956 l 490 956 q 664 922 606 956 q 742 821 722 888 q 763 636 763 754 q 744 460 763 526 q 667 358 725 394 l 785 0 l 490 0 m 399 522 q 451 528 436 522 q 471 555 465 533 q 476 631 476 576 q 472 707 476 686 q 453 734 468 728 q 397 740 438 740 l 350 740 l 350 522 l 399 522 z "},"Ŕ":{"ha":810,"x_min":64,"x_max":785,"o":"m 490 0 l 404 317 l 350 317 l 350 0 l 64 0 l 64 956 l 490 956 q 664 922 606 956 q 742 821 722 888 q 763 636 763 754 q 744 460 763 526 q 667 358 725 394 l 785 0 l 490 0 m 399 522 q 451 528 436 522 q 471 555 465 533 q 476 631 476 576 q 472 707 476 686 q 453 734 468 728 q 397 740 438 740 l 350 740 l 350 522 l 399 522 m 304 1028 l 304 1035 l 401 1233 l 647 1233 l 647 1226 l 496 1028 l 304 1028 z "},"Ř":{"ha":810,"x_min":64,"x_max":785,"o":"m 490 0 l 404 317 l 350 317 l 350 0 l 64 0 l 64 956 l 490 956 q 664 922 606 956 q 742 821 722 888 q 763 636 763 754 q 744 460 763 526 q 667 358 725 394 l 785 0 l 490 0 m 399 522 q 451 528 436 522 q 471 555 465 533 q 476 631 476 576 q 472 707 476 686 q 453 734 468 728 q 397 740 438 740 l 350 740 l 350 522 l 399 522 m 285 1039 l 171 1222 l 171 1233 l 340 1233 l 407 1140 l 469 1233 l 639 1233 l 639 1222 l 524 1039 l 285 1039 z "},"Ŗ":{"ha":810,"x_min":64,"x_max":785,"o":"m 490 0 l 404 317 l 350 317 l 350 0 l 64 0 l 64 956 l 490 956 q 664 922 606 956 q 742 821 722 888 q 763 636 763 754 q 744 460 763 526 q 667 358 725 394 l 785 0 l 490 0 m 399 522 q 451 528 436 522 q 471 555 465 533 q 476 631 476 576 q 472 707 476 686 q 453 734 468 728 q 397 740 438 740 l 350 740 l 350 522 l 399 522 m 279 -306 q 351 -294 335 -306 q 367 -250 367 -283 l 367 -239 l 276 -239 l 276 -82 l 533 -82 l 533 -178 q 517 -317 533 -272 q 447 -382 500 -362 q 279 -401 393 -401 l 279 -306 z "},"Ȑ":{"ha":810,"x_min":64,"x_max":785,"o":"m 490 0 l 404 317 l 350 317 l 350 0 l 64 0 l 64 956 l 490 956 q 664 922 606 956 q 742 821 722 888 q 763 636 763 754 q 744 460 763 526 q 667 358 725 394 l 785 0 l 490 0 m 399 522 q 451 528 436 522 q 471 555 465 533 q 476 631 476 576 q 472 707 476 686 q 453 734 468 728 q 397 740 438 740 l 350 740 l 350 522 l 399 522 m 375 1050 l 218 1050 l 100 1208 l 100 1214 l 299 1214 l 375 1056 l 375 1050 m 611 1050 l 456 1050 l 336 1208 l 336 1214 l 536 1214 l 611 1056 l 611 1050 z "},"Ṛ":{"ha":810,"x_min":64,"x_max":785,"o":"m 490 0 l 404 317 l 350 317 l 350 0 l 64 0 l 64 956 l 490 956 q 664 922 606 956 q 742 821 722 888 q 763 636 763 754 q 744 460 763 526 q 667 358 725 394 l 785 0 l 490 0 m 399 522 q 451 528 436 522 q 471 555 465 533 q 476 631 476 576 q 472 707 476 686 q 453 734 468 728 q 397 740 438 740 l 350 740 l 350 522 l 399 522 m 268 -311 l 268 -86 l 542 -86 l 542 -311 l 268 -311 z "},"Ȓ":{"ha":810,"x_min":64,"x_max":785,"o":"m 490 0 l 404 317 l 350 317 l 350 0 l 64 0 l 64 956 l 490 956 q 664 922 606 956 q 742 821 722 888 q 763 636 763 754 q 744 460 763 526 q 667 358 725 394 l 785 0 l 490 0 m 399 522 q 451 528 436 522 q 471 555 465 533 q 476 631 476 576 q 472 707 476 686 q 453 734 468 728 q 397 740 438 740 l 350 740 l 350 522 l 399 522 m 196 1040 q 212 1149 196 1106 q 274 1216 228 1192 q 406 1240 319 1240 q 536 1216 490 1240 q 598 1149 582 1192 q 614 1040 614 1106 l 471 1040 q 460 1091 471 1075 q 406 1107 450 1107 q 360 1099 374 1107 q 342 1077 346 1090 q 339 1040 339 1064 l 196 1040 z "},"S":{"ha":735,"x_min":39,"x_max":697,"o":"m 378 -11 q 213 -4 303 -11 q 61 14 124 3 l 61 219 q 290 207 221 207 q 365 210 343 207 q 397 221 388 213 q 408 242 406 229 q 411 279 411 254 q 404 329 411 314 q 377 351 397 344 q 304 365 357 358 l 164 386 q 67 469 94 397 q 39 672 39 540 q 81 858 39 793 q 196 944 124 922 q 375 967 268 967 q 531 958 453 967 q 654 939 608 949 l 654 736 q 431 749 547 749 q 373 747 393 749 q 344 738 353 744 q 329 716 333 729 q 325 681 325 703 q 329 638 325 651 q 347 619 333 625 q 392 607 360 613 l 515 589 q 608 558 571 579 q 671 485 646 538 q 697 310 697 425 q 657 101 697 171 q 550 10 617 31 q 378 -11 483 -11 z "},"Ś":{"ha":735,"x_min":39,"x_max":697,"o":"m 378 -11 q 213 -4 303 -11 q 61 14 124 3 l 61 219 q 290 207 221 207 q 365 210 343 207 q 397 221 388 213 q 408 242 406 229 q 411 279 411 254 q 404 329 411 314 q 377 351 397 344 q 304 365 357 358 l 164 386 q 67 469 94 397 q 39 672 39 540 q 81 858 39 793 q 196 944 124 922 q 375 967 268 967 q 531 958 453 967 q 654 939 608 949 l 654 736 q 431 749 547 749 q 373 747 393 749 q 344 738 353 744 q 329 716 333 729 q 325 681 325 703 q 329 638 325 651 q 347 619 333 625 q 392 607 360 613 l 515 589 q 608 558 571 579 q 671 485 646 538 q 697 310 697 425 q 657 101 697 171 q 550 10 617 31 q 378 -11 483 -11 m 267 1028 l 267 1035 l 364 1233 l 610 1233 l 610 1226 l 458 1028 l 267 1028 z "},"Ꞌ":{"ha":311,"x_min":40,"x_max":272,"o":"m 40 363 l 40 956 l 272 956 l 272 726 l 221 363 l 40 363 z "},"Š":{"ha":735,"x_min":39,"x_max":697,"o":"m 378 -11 q 213 -4 303 -11 q 61 14 124 3 l 61 219 q 290 207 221 207 q 365 210 343 207 q 397 221 388 213 q 408 242 406 229 q 411 279 411 254 q 404 329 411 314 q 377 351 397 344 q 304 365 357 358 l 164 386 q 67 469 94 397 q 39 672 39 540 q 81 858 39 793 q 196 944 124 922 q 375 967 268 967 q 531 958 453 967 q 654 939 608 949 l 654 736 q 431 749 547 749 q 373 747 393 749 q 344 738 353 744 q 329 716 333 729 q 325 681 325 703 q 329 638 325 651 q 347 619 333 625 q 392 607 360 613 l 515 589 q 608 558 571 579 q 671 485 646 538 q 697 310 697 425 q 657 101 697 171 q 550 10 617 31 q 378 -11 483 -11 m 250 1042 l 136 1225 l 136 1236 l 306 1236 l 372 1143 l 435 1236 l 604 1236 l 604 1225 l 489 1042 l 250 1042 z "},"Ş":{"ha":735,"x_min":39,"x_max":697,"o":"m 697 310 q 667 121 697 189 q 583 25 636 53 q 451 -8 531 -3 l 408 -262 l 181 -262 l 181 -256 l 278 -8 q 61 14 151 -1 l 61 219 q 290 207 221 207 q 365 210 343 207 q 397 221 388 213 q 408 242 406 229 q 411 279 411 254 q 404 329 411 314 q 377 351 397 344 q 304 365 357 358 l 164 386 q 67 469 94 397 q 39 672 39 540 q 81 858 39 793 q 196 944 124 922 q 375 967 268 967 q 531 958 453 967 q 654 939 608 949 l 654 736 q 431 749 547 749 q 373 747 393 749 q 344 738 353 744 q 329 716 333 729 q 325 681 325 703 q 329 638 325 651 q 347 619 333 625 q 392 607 360 613 l 515 589 q 608 558 571 579 q 671 485 646 538 q 697 310 697 425 z "},"Ŝ":{"ha":735,"x_min":39,"x_max":697,"o":"m 378 -11 q 213 -4 303 -11 q 61 14 124 3 l 61 219 q 290 207 221 207 q 365 210 343 207 q 397 221 388 213 q 408 242 406 229 q 411 279 411 254 q 404 329 411 314 q 377 351 397 344 q 304 365 357 358 l 164 386 q 67 469 94 397 q 39 672 39 540 q 81 858 39 793 q 196 944 124 922 q 375 967 268 967 q 531 958 453 967 q 654 939 608 949 l 654 736 q 431 749 547 749 q 373 747 393 749 q 344 738 353 744 q 329 716 333 729 q 325 681 325 703 q 329 638 325 651 q 347 619 333 625 q 392 607 360 613 l 515 589 q 608 558 571 579 q 671 485 646 538 q 697 310 697 425 q 657 101 697 171 q 550 10 617 31 q 378 -11 483 -11 m 133 1039 l 133 1051 l 247 1233 l 486 1233 l 601 1051 l 601 1039 l 432 1039 l 367 1132 l 303 1039 l 133 1039 z "},"Ș":{"ha":735,"x_min":39,"x_max":697,"o":"m 378 -11 q 213 -4 303 -11 q 61 14 124 3 l 61 219 q 290 207 221 207 q 365 210 343 207 q 397 221 388 213 q 408 242 406 229 q 411 279 411 254 q 404 329 411 314 q 377 351 397 344 q 304 365 357 358 l 164 386 q 67 469 94 397 q 39 672 39 540 q 81 858 39 793 q 196 944 124 922 q 375 967 268 967 q 531 958 453 967 q 654 939 608 949 l 654 736 q 431 749 547 749 q 373 747 393 749 q 344 738 353 744 q 329 716 333 729 q 325 681 325 703 q 329 638 325 651 q 347 619 333 625 q 392 607 360 613 l 515 589 q 608 558 571 579 q 671 485 646 538 q 697 310 697 425 q 657 101 697 171 q 550 10 617 31 q 378 -11 483 -11 m 242 -306 q 313 -294 297 -306 q 329 -250 329 -283 l 329 -239 l 239 -239 l 239 -82 l 496 -82 l 496 -178 q 479 -317 496 -272 q 409 -382 463 -362 q 242 -401 356 -401 l 242 -306 z "},"Ṣ":{"ha":735,"x_min":39,"x_max":697,"o":"m 378 -11 q 213 -4 303 -11 q 61 14 124 3 l 61 219 q 290 207 221 207 q 365 210 343 207 q 397 221 388 213 q 408 242 406 229 q 411 279 411 254 q 404 329 411 314 q 377 351 397 344 q 304 365 357 358 l 164 386 q 67 469 94 397 q 39 672 39 540 q 81 858 39 793 q 196 944 124 922 q 375 967 268 967 q 531 958 453 967 q 654 939 608 949 l 654 736 q 431 749 547 749 q 373 747 393 749 q 344 738 353 744 q 329 716 333 729 q 325 681 325 703 q 329 638 325 651 q 347 619 333 625 q 392 607 360 613 l 515 589 q 608 558 571 579 q 671 485 646 538 q 697 310 697 425 q 657 101 697 171 q 550 10 617 31 q 378 -11 483 -11 m 231 -311 l 231 -86 l 504 -86 l 504 -311 l 231 -311 z "},"ẞ":{"ha":964,"x_min":61,"x_max":922,"o":"m 714 525 q 872 449 821 510 q 922 254 922 389 q 893 103 922 161 q 792 17 864 46 q 593 -11 721 -11 q 504 -3 554 -11 q 418 18 454 6 l 418 221 q 529 207 483 207 q 600 211 581 207 q 627 231 619 215 q 635 286 635 247 q 626 347 635 329 q 598 371 618 365 q 532 376 578 376 l 436 376 l 436 560 l 575 744 q 488 749 517 749 q 388 731 415 749 q 355 660 361 713 q 349 460 349 607 l 349 0 l 61 0 l 61 460 q 87 778 61 675 q 193 924 113 881 q 449 967 274 967 q 879 926 615 967 l 879 743 l 714 525 z "},"Ə":{"ha":835,"x_min":50,"x_max":776,"o":"m 378 967 q 638 922 554 967 q 749 777 722 876 q 776 478 776 678 q 758 167 776 260 q 665 32 740 75 q 408 -11 589 -11 q 159 32 233 -11 q 67 167 85 75 q 50 478 50 260 l 50 590 l 488 590 q 471 696 485 664 q 422 738 457 728 q 310 749 388 749 q 143 739 226 749 l 143 943 q 250 960 185 954 q 378 967 315 967 m 408 207 q 469 215 451 207 q 493 257 486 224 q 501 375 500 290 l 324 375 q 331 257 325 290 q 353 215 338 224 q 408 207 368 207 z "},"T":{"ha":715,"x_min":14,"x_max":701,"o":"m 214 0 l 214 728 l 14 728 l 14 956 l 701 956 l 701 728 l 500 728 l 500 0 l 214 0 z "},"Ŧ":{"ha":715,"x_min":14,"x_max":701,"o":"m 701 728 l 500 728 l 500 553 l 669 553 l 669 369 l 500 369 l 500 0 l 214 0 l 214 369 l 44 369 l 44 553 l 214 553 l 214 728 l 14 728 l 14 956 l 701 956 l 701 728 z "},"Ť":{"ha":715,"x_min":14,"x_max":701,"o":"m 214 0 l 214 728 l 14 728 l 14 956 l 701 956 l 701 728 l 500 728 l 500 0 l 214 0 m 238 1039 l 124 1222 l 124 1233 l 293 1233 l 360 1140 l 422 1233 l 592 1233 l 592 1222 l 476 1039 l 238 1039 z "},"Ţ":{"ha":715,"x_min":14,"x_max":701,"o":"m 14 956 l 701 956 l 701 728 l 500 728 l 500 0 l 443 0 l 399 -262 l 171 -262 l 171 -256 l 272 0 l 214 0 l 214 728 l 14 728 l 14 956 z "},"Ț":{"ha":715,"x_min":14,"x_max":701,"o":"m 214 0 l 214 728 l 14 728 l 14 956 l 701 956 l 701 728 l 500 728 l 500 0 l 214 0 m 232 -306 q 303 -294 288 -306 q 319 -250 319 -283 l 319 -239 l 229 -239 l 229 -82 l 486 -82 l 486 -178 q 469 -317 486 -272 q 399 -382 453 -362 q 232 -401 346 -401 l 232 -306 z "},"Ṭ":{"ha":715,"x_min":14,"x_max":701,"o":"m 214 0 l 214 728 l 14 728 l 14 956 l 701 956 l 701 728 l 500 728 l 500 0 l 214 0 m 221 -311 l 221 -86 l 494 -86 l 494 -311 l 221 -311 z "},"U":{"ha":819,"x_min":61,"x_max":758,"o":"m 758 956 l 758 435 q 741 153 758 238 q 651 29 724 69 q 410 -11 579 -11 q 168 29 240 -11 q 78 153 96 69 q 61 435 61 238 l 61 956 l 349 956 l 349 375 q 351 256 349 286 q 365 218 354 226 q 410 210 376 210 q 455 218 443 210 q 469 257 467 226 q 472 375 472 288 l 472 956 l 758 956 z "},"Ú":{"ha":819,"x_min":61,"x_max":758,"o":"m 758 956 l 758 435 q 741 153 758 238 q 651 29 724 69 q 410 -11 579 -11 q 168 29 240 -11 q 78 153 96 69 q 61 435 61 238 l 61 956 l 349 956 l 349 375 q 351 256 349 286 q 365 218 354 226 q 410 210 376 210 q 455 218 443 210 q 469 257 467 226 q 472 375 472 288 l 472 956 l 758 956 m 306 1042 l 306 1049 l 403 1247 l 649 1247 l 649 1240 l 497 1042 l 306 1042 z "},"Ŭ":{"ha":819,"x_min":61,"x_max":758,"o":"m 758 956 l 758 435 q 741 153 758 238 q 651 29 724 69 q 410 -11 579 -11 q 168 29 240 -11 q 78 153 96 69 q 61 435 61 238 l 61 956 l 349 956 l 349 375 q 351 256 349 286 q 365 218 354 226 q 410 210 376 210 q 455 218 443 210 q 469 257 467 226 q 472 375 472 288 l 472 956 l 758 956 m 618 1233 q 602 1125 618 1168 q 540 1058 586 1082 q 408 1033 494 1033 q 278 1058 324 1033 q 216 1125 232 1082 q 200 1233 200 1168 l 343 1233 q 353 1183 343 1199 q 408 1167 364 1167 q 454 1175 440 1167 q 472 1197 468 1183 q 475 1233 475 1210 l 618 1233 z "},"Ǔ":{"ha":819,"x_min":61,"x_max":758,"o":"m 758 956 l 758 435 q 741 153 758 238 q 651 29 724 69 q 410 -11 579 -11 q 168 29 240 -11 q 78 153 96 69 q 61 435 61 238 l 61 956 l 349 956 l 349 375 q 351 256 349 286 q 365 218 354 226 q 410 210 376 210 q 455 218 443 210 q 469 257 467 226 q 472 375 472 288 l 472 956 l 758 956 m 289 1039 l 175 1222 l 175 1233 l 344 1233 l 411 1140 l 474 1233 l 643 1233 l 643 1222 l 528 1039 l 289 1039 z "},"Û":{"ha":819,"x_min":61,"x_max":758,"o":"m 758 956 l 758 435 q 741 153 758 238 q 651 29 724 69 q 410 -11 579 -11 q 168 29 240 -11 q 78 153 96 69 q 61 435 61 238 l 61 956 l 349 956 l 349 375 q 351 256 349 286 q 365 218 354 226 q 410 210 376 210 q 455 218 443 210 q 469 257 467 226 q 472 375 472 288 l 472 956 l 758 956 m 175 1042 l 175 1054 l 289 1236 l 528 1236 l 643 1054 l 643 1042 l 474 1042 l 408 1135 l 344 1042 l 175 1042 z "},"Ȕ":{"ha":819,"x_min":61,"x_max":758,"o":"m 758 956 l 758 435 q 741 153 758 238 q 651 29 724 69 q 410 -11 579 -11 q 168 29 240 -11 q 78 153 96 69 q 61 435 61 238 l 61 956 l 349 956 l 349 375 q 351 256 349 286 q 365 218 354 226 q 410 210 376 210 q 455 218 443 210 q 469 257 467 226 q 472 375 472 288 l 472 956 l 758 956 m 379 1050 l 222 1050 l 104 1208 l 104 1214 l 303 1214 l 379 1056 l 379 1050 m 615 1050 l 460 1050 l 340 1208 l 340 1214 l 540 1214 l 615 1056 l 615 1050 z "},"Ü":{"ha":819,"x_min":61,"x_max":758,"o":"m 758 956 l 758 435 q 741 153 758 238 q 651 29 724 69 q 410 -11 579 -11 q 168 29 240 -11 q 78 153 96 69 q 61 435 61 238 l 61 956 l 349 956 l 349 375 q 351 256 349 286 q 365 218 354 226 q 410 210 376 210 q 455 218 443 210 q 469 257 467 226 q 472 375 472 288 l 472 956 l 758 956 m 167 1079 l 167 1244 l 375 1244 l 375 1079 l 167 1079 m 443 1079 l 443 1244 l 653 1244 l 653 1079 l 443 1079 z "},"Ǘ":{"ha":819,"x_min":61,"x_max":758,"o":"m 375 1204 l 375 1050 l 167 1050 l 167 1215 l 313 1215 l 408 1410 l 654 1410 l 654 1403 l 511 1215 l 653 1215 l 653 1050 l 443 1050 l 443 1204 l 375 1204 m 758 956 l 758 435 q 741 153 758 238 q 651 29 724 69 q 410 -11 579 -11 q 168 29 240 -11 q 78 153 96 69 q 61 435 61 238 l 61 956 l 349 956 l 349 375 q 351 256 349 286 q 365 218 354 226 q 410 210 376 210 q 455 218 443 210 q 469 257 467 226 q 472 375 472 288 l 472 956 l 758 956 z "},"Ǚ":{"ha":819,"x_min":61,"x_max":758,"o":"m 758 956 l 758 435 q 741 153 758 238 q 651 29 724 69 q 410 -11 579 -11 q 168 29 240 -11 q 78 153 96 69 q 61 435 61 238 l 61 956 l 349 956 l 349 375 q 351 256 349 286 q 365 218 354 226 q 410 210 376 210 q 455 218 443 210 q 469 257 467 226 q 472 375 472 288 l 472 956 l 758 956 m 167 1050 l 167 1215 l 375 1215 l 375 1050 l 167 1050 m 443 1050 l 443 1215 l 653 1215 l 653 1050 l 443 1050 m 292 1215 l 178 1399 l 178 1410 l 347 1410 l 414 1317 l 476 1410 l 646 1410 l 646 1399 l 531 1215 l 292 1215 z "},"Ǜ":{"ha":819,"x_min":61,"x_max":758,"o":"m 375 1204 l 375 1050 l 167 1050 l 167 1215 l 319 1215 l 176 1403 l 176 1410 l 424 1410 l 518 1215 l 653 1215 l 653 1050 l 443 1050 l 443 1204 l 375 1204 m 758 956 l 758 435 q 741 153 758 238 q 651 29 724 69 q 410 -11 579 -11 q 168 29 240 -11 q 78 153 96 69 q 61 435 61 238 l 61 956 l 349 956 l 349 375 q 351 256 349 286 q 365 218 354 226 q 410 210 376 210 q 455 218 443 210 q 469 257 467 226 q 472 375 472 288 l 472 956 l 758 956 z "},"Ǖ":{"ha":819,"x_min":61,"x_max":758,"o":"m 375 1183 l 375 1050 l 167 1050 l 167 1215 l 235 1215 l 235 1336 l 592 1336 l 592 1215 l 653 1215 l 653 1050 l 443 1050 l 443 1183 l 375 1183 m 758 956 l 758 435 q 741 153 758 238 q 651 29 724 69 q 410 -11 579 -11 q 168 29 240 -11 q 78 153 96 69 q 61 435 61 238 l 61 956 l 349 956 l 349 375 q 351 256 349 286 q 365 218 354 226 q 410 210 376 210 q 455 218 443 210 q 469 257 467 226 q 472 375 472 288 l 472 956 l 758 956 z "},"Ụ":{"ha":819,"x_min":61,"x_max":758,"o":"m 758 956 l 758 435 q 741 153 758 238 q 651 29 724 69 q 410 -11 579 -11 q 168 29 240 -11 q 78 153 96 69 q 61 435 61 238 l 61 956 l 349 956 l 349 375 q 351 256 349 286 q 365 218 354 226 q 410 210 376 210 q 455 218 443 210 q 469 257 467 226 q 472 375 472 288 l 472 956 l 758 956 m 272 -311 l 272 -86 l 546 -86 l 546 -311 l 272 -311 z "},"Ù":{"ha":819,"x_min":61,"x_max":758,"o":"m 758 956 l 758 435 q 741 153 758 238 q 651 29 724 69 q 410 -11 579 -11 q 168 29 240 -11 q 78 153 96 69 q 61 435 61 238 l 61 956 l 349 956 l 349 375 q 351 256 349 286 q 365 218 354 226 q 410 210 376 210 q 455 218 443 210 q 469 257 467 226 q 472 375 472 288 l 472 956 l 758 956 m 322 1042 l 171 1240 l 171 1247 l 418 1247 l 514 1049 l 514 1042 l 322 1042 z "},"Ủ":{"ha":819,"x_min":61,"x_max":758,"o":"m 758 956 l 758 435 q 741 153 758 238 q 651 29 724 69 q 410 -11 579 -11 q 168 29 240 -11 q 78 153 96 69 q 61 435 61 238 l 61 956 l 349 956 l 349 375 q 351 256 349 286 q 365 218 354 226 q 410 210 376 210 q 455 218 443 210 q 469 257 467 226 q 472 375 472 288 l 472 956 l 758 956 m 301 1024 q 313 1088 301 1069 q 364 1115 325 1106 l 382 1119 q 422 1135 413 1129 q 431 1157 431 1142 q 418 1181 431 1176 q 365 1185 406 1185 q 221 1179 296 1185 l 221 1300 q 403 1318 314 1318 q 508 1310 467 1318 q 574 1272 549 1301 q 600 1179 600 1242 q 578 1098 600 1121 q 504 1057 557 1075 l 490 1051 q 451 1033 460 1040 q 443 1008 443 1025 l 301 1008 l 301 1024 z "},"Ư":{"ha":819,"x_min":61,"x_max":857,"o":"m 857 1078 l 857 1060 q 838 930 857 971 q 758 874 819 889 l 758 435 q 741 153 758 238 q 651 29 724 69 q 410 -11 579 -11 q 168 29 240 -11 q 78 153 96 69 q 61 435 61 238 l 61 956 l 349 956 l 349 375 q 351 256 349 286 q 365 218 354 226 q 410 210 376 210 q 455 218 443 210 q 469 257 467 226 q 472 375 472 288 l 472 956 l 603 956 q 660 963 642 956 q 684 989 678 971 q 690 1043 690 1007 l 690 1078 l 857 1078 z "},"Ứ":{"ha":819,"x_min":61,"x_max":857,"o":"m 857 1078 l 857 1060 q 838 930 857 971 q 758 874 819 889 l 758 435 q 741 153 758 238 q 651 29 724 69 q 410 -11 579 -11 q 168 29 240 -11 q 78 153 96 69 q 61 435 61 238 l 61 956 l 349 956 l 349 375 q 351 256 349 286 q 365 218 354 226 q 410 210 376 210 q 455 218 443 210 q 469 257 467 226 q 472 375 472 288 l 472 956 l 603 956 q 660 963 642 956 q 684 989 678 971 q 690 1043 690 1007 l 690 1078 l 857 1078 m 308 1028 l 308 1035 l 406 1233 l 651 1233 l 651 1226 l 500 1028 l 308 1028 z "},"Ự":{"ha":819,"x_min":61,"x_max":857,"o":"m 857 1078 l 857 1060 q 838 930 857 971 q 758 874 819 889 l 758 435 q 741 153 758 238 q 651 29 724 69 q 410 -11 579 -11 q 168 29 240 -11 q 78 153 96 69 q 61 435 61 238 l 61 956 l 349 956 l 349 375 q 351 256 349 286 q 365 218 354 226 q 410 210 376 210 q 455 218 443 210 q 469 257 467 226 q 472 375 472 288 l 472 956 l 603 956 q 660 963 642 956 q 684 989 678 971 q 690 1043 690 1007 l 690 1078 l 857 1078 m 272 -311 l 272 -86 l 546 -86 l 546 -311 l 272 -311 z "},"Ừ":{"ha":819,"x_min":61,"x_max":857,"o":"m 857 1078 l 857 1060 q 838 930 857 971 q 758 874 819 889 l 758 435 q 741 153 758 238 q 651 29 724 69 q 410 -11 579 -11 q 168 29 240 -11 q 78 153 96 69 q 61 435 61 238 l 61 956 l 349 956 l 349 375 q 351 256 349 286 q 365 218 354 226 q 410 210 376 210 q 455 218 443 210 q 469 257 467 226 q 472 375 472 288 l 472 956 l 603 956 q 660 963 642 956 q 684 989 678 971 q 690 1043 690 1007 l 690 1078 l 857 1078 m 325 1028 l 174 1226 l 174 1233 l 421 1233 l 517 1035 l 517 1028 l 325 1028 z "},"Ử":{"ha":819,"x_min":61,"x_max":857,"o":"m 857 1078 l 857 1060 q 838 930 857 971 q 758 874 819 889 l 758 435 q 741 153 758 238 q 651 29 724 69 q 410 -11 579 -11 q 168 29 240 -11 q 78 153 96 69 q 61 435 61 238 l 61 956 l 349 956 l 349 375 q 351 256 349 286 q 365 218 354 226 q 410 210 376 210 q 455 218 443 210 q 469 257 467 226 q 472 375 472 288 l 472 956 l 603 956 q 660 963 642 956 q 684 989 678 971 q 690 1043 690 1007 l 690 1078 l 857 1078 m 301 1024 q 313 1088 301 1069 q 364 1115 325 1106 l 382 1119 q 422 1135 413 1129 q 431 1157 431 1142 q 418 1181 431 1176 q 365 1185 406 1185 q 221 1179 296 1185 l 221 1300 q 403 1318 314 1318 q 508 1310 467 1318 q 574 1272 549 1301 q 600 1179 600 1242 q 578 1098 600 1121 q 504 1057 557 1075 l 490 1051 q 451 1033 460 1040 q 443 1008 443 1025 l 301 1008 l 301 1024 z "},"Ữ":{"ha":819,"x_min":61,"x_max":857,"o":"m 857 1078 l 857 1060 q 838 930 857 971 q 758 874 819 889 l 758 435 q 741 153 758 238 q 651 29 724 69 q 410 -11 579 -11 q 168 29 240 -11 q 78 153 96 69 q 61 435 61 238 l 61 956 l 349 956 l 349 375 q 351 256 349 286 q 365 218 354 226 q 410 210 376 210 q 455 218 443 210 q 469 257 467 226 q 472 375 472 288 l 472 956 l 603 956 q 660 963 642 956 q 684 989 678 971 q 690 1043 690 1007 l 690 1078 l 857 1078 m 665 1233 q 659 1113 665 1153 q 625 1050 653 1074 q 535 1026 597 1026 q 392 1047 481 1026 l 358 1053 q 311 1060 326 1060 q 289 1050 293 1060 q 285 1010 285 1040 l 153 1010 q 159 1129 153 1089 q 194 1193 165 1169 q 283 1217 222 1217 q 428 1196 339 1217 q 507 1183 488 1183 q 529 1193 525 1183 q 533 1233 533 1203 l 665 1233 z "},"Ű":{"ha":819,"x_min":61,"x_max":758,"o":"m 758 956 l 758 435 q 741 153 758 238 q 651 29 724 69 q 410 -11 579 -11 q 168 29 240 -11 q 78 153 96 69 q 61 435 61 238 l 61 956 l 349 956 l 349 375 q 351 256 349 286 q 365 218 354 226 q 410 210 376 210 q 455 218 443 210 q 469 257 467 226 q 472 375 472 288 l 472 956 l 758 956 m 219 1050 l 219 1056 l 294 1214 l 494 1214 l 494 1208 l 375 1050 l 219 1050 m 456 1050 l 456 1056 l 532 1214 l 731 1214 l 731 1208 l 613 1050 l 456 1050 z "},"Ȗ":{"ha":819,"x_min":61,"x_max":758,"o":"m 758 956 l 758 435 q 741 153 758 238 q 651 29 724 69 q 410 -11 579 -11 q 168 29 240 -11 q 78 153 96 69 q 61 435 61 238 l 61 956 l 349 956 l 349 375 q 351 256 349 286 q 365 218 354 226 q 410 210 376 210 q 455 218 443 210 q 469 257 467 226 q 472 375 472 288 l 472 956 l 758 956 m 200 1040 q 216 1149 200 1106 q 278 1216 232 1192 q 410 1240 324 1240 q 540 1216 494 1240 q 602 1149 586 1192 q 618 1040 618 1106 l 475 1040 q 465 1091 475 1075 q 410 1107 454 1107 q 364 1099 378 1107 q 347 1077 350 1090 q 343 1040 343 1064 l 200 1040 z "},"Ū":{"ha":819,"x_min":61,"x_max":758,"o":"m 758 956 l 758 435 q 741 153 758 238 q 651 29 724 69 q 410 -11 579 -11 q 168 29 240 -11 q 78 153 96 69 q 61 435 61 238 l 61 956 l 349 956 l 349 375 q 351 256 349 286 q 365 218 354 226 q 410 210 376 210 q 455 218 443 210 q 469 257 467 226 q 472 375 472 288 l 472 956 l 758 956 m 232 1026 l 232 1233 l 589 1233 l 589 1026 l 232 1026 z "},"Ų":{"ha":819,"x_min":61,"x_max":758,"o":"m 758 956 l 758 435 q 753 227 758 299 q 723 105 747 156 q 647 26 699 54 q 576 -26 603 3 q 549 -99 549 -56 q 561 -135 549 -122 q 608 -147 574 -147 l 628 -146 l 628 -267 q 522 -272 575 -272 q 385 -237 426 -272 q 344 -147 344 -203 q 410 -11 344 -81 l 407 -11 q 167 29 239 -11 q 78 153 94 69 q 61 435 61 238 l 61 956 l 349 956 l 349 375 q 351 256 349 286 q 365 218 354 226 q 410 210 376 210 q 455 218 443 210 q 469 257 467 226 q 472 375 472 288 l 472 956 l 758 956 z "},"Ů":{"ha":819,"x_min":61,"x_max":758,"o":"m 758 956 l 758 435 q 741 153 758 238 q 651 29 724 69 q 410 -11 579 -11 q 168 29 240 -11 q 78 153 96 69 q 61 435 61 238 l 61 956 l 349 956 l 349 375 q 351 256 349 286 q 365 218 354 226 q 410 210 376 210 q 455 218 443 210 q 469 257 467 226 q 472 375 472 288 l 472 956 l 758 956 m 408 990 q 274 1006 317 990 q 219 1055 232 1022 q 206 1154 206 1088 q 219 1254 206 1221 q 275 1304 232 1288 q 408 1321 318 1321 q 543 1305 500 1321 q 599 1255 586 1289 q 611 1154 611 1221 q 599 1055 611 1088 q 543 1006 586 1022 q 408 990 500 990 m 408 1094 q 453 1099 440 1094 q 469 1115 467 1104 q 472 1154 472 1126 q 469 1194 472 1182 q 453 1210 467 1206 q 408 1215 440 1215 q 365 1210 378 1215 q 349 1194 351 1206 q 346 1154 346 1182 q 349 1115 346 1126 q 365 1099 351 1104 q 408 1094 378 1094 z "},"Ũ":{"ha":819,"x_min":61,"x_max":758,"o":"m 758 956 l 758 435 q 741 153 758 238 q 651 29 724 69 q 410 -11 579 -11 q 168 29 240 -11 q 78 153 96 69 q 61 435 61 238 l 61 956 l 349 956 l 349 375 q 351 256 349 286 q 365 218 354 226 q 410 210 376 210 q 455 218 443 210 q 469 257 467 226 q 472 375 472 288 l 472 956 l 758 956 m 665 1233 q 659 1113 665 1153 q 625 1050 653 1074 q 535 1026 597 1026 q 392 1047 481 1026 l 358 1053 q 311 1060 326 1060 q 289 1050 293 1060 q 285 1010 285 1040 l 153 1010 q 159 1129 153 1089 q 194 1193 165 1169 q 283 1217 222 1217 q 428 1196 339 1217 q 507 1183 488 1183 q 529 1193 525 1183 q 533 1233 533 1203 l 665 1233 z "},"V":{"ha":807,"x_min":1,"x_max":806,"o":"m 207 0 l 1 956 l 293 956 l 399 297 l 414 297 l 519 956 l 806 956 l 600 0 l 207 0 z "},"W":{"ha":1225,"x_min":7,"x_max":1218,"o":"m 699 0 l 619 535 l 606 535 l 528 0 l 154 0 l 7 956 l 293 956 l 357 307 l 371 307 l 463 956 l 771 956 l 864 307 l 878 307 l 933 956 l 1218 956 l 1071 0 l 699 0 z "},"Ẃ":{"ha":1225,"x_min":7,"x_max":1218,"o":"m 699 0 l 619 535 l 606 535 l 528 0 l 154 0 l 7 956 l 293 956 l 357 307 l 371 307 l 463 956 l 771 956 l 864 307 l 878 307 l 933 956 l 1218 956 l 1071 0 l 699 0 m 513 1028 l 513 1035 l 610 1233 l 856 1233 l 856 1226 l 704 1028 l 513 1028 z "},"Ŵ":{"ha":1225,"x_min":7,"x_max":1218,"o":"m 699 0 l 619 535 l 606 535 l 528 0 l 154 0 l 7 956 l 293 956 l 357 307 l 371 307 l 463 956 l 771 956 l 864 307 l 878 307 l 933 956 l 1218 956 l 1071 0 l 699 0 m 379 1039 l 379 1051 l 493 1233 l 732 1233 l 847 1051 l 847 1039 l 678 1039 l 613 1132 l 549 1039 l 379 1039 z "},"Ẅ":{"ha":1225,"x_min":7,"x_max":1218,"o":"m 699 0 l 619 535 l 606 535 l 528 0 l 154 0 l 7 956 l 293 956 l 357 307 l 371 307 l 463 956 l 771 956 l 864 307 l 878 307 l 933 956 l 1218 956 l 1071 0 l 699 0 m 371 1050 l 371 1215 l 579 1215 l 579 1050 l 371 1050 m 647 1050 l 647 1215 l 857 1215 l 857 1050 l 647 1050 z "},"Ẁ":{"ha":1225,"x_min":7,"x_max":1218,"o":"m 699 0 l 619 535 l 606 535 l 528 0 l 154 0 l 7 956 l 293 956 l 357 307 l 371 307 l 463 956 l 771 956 l 864 307 l 878 307 l 933 956 l 1218 956 l 1071 0 l 699 0 m 529 1028 l 378 1226 l 378 1233 l 625 1233 l 721 1035 l 721 1028 l 529 1028 z "},"X":{"ha":849,"x_min":8,"x_max":840,"o":"m 526 0 l 426 275 l 413 275 l 311 0 l 8 0 l 235 481 l 13 956 l 326 956 l 422 689 l 435 689 l 535 956 l 838 956 l 614 486 l 840 0 l 526 0 z "},"Y":{"ha":799,"x_min":-4,"x_max":803,"o":"m 256 0 l 256 313 l -4 956 l 288 956 l 399 585 l 410 585 l 518 956 l 803 956 l 543 313 l 543 0 l 256 0 z "},"Ý":{"ha":799,"x_min":-4,"x_max":803,"o":"m 256 0 l 256 313 l -4 956 l 288 956 l 399 585 l 410 585 l 518 956 l 803 956 l 543 313 l 543 0 l 256 0 m 306 1042 l 306 1049 l 403 1247 l 649 1247 l 649 1240 l 497 1042 l 306 1042 z "},"Ŷ":{"ha":799,"x_min":-4,"x_max":803,"o":"m 256 0 l 256 313 l -4 956 l 288 956 l 399 585 l 410 585 l 518 956 l 803 956 l 543 313 l 543 0 l 256 0 m 165 1039 l 165 1051 l 279 1233 l 518 1233 l 633 1051 l 633 1039 l 464 1039 l 399 1132 l 335 1039 l 165 1039 z "},"Ÿ":{"ha":799,"x_min":-4,"x_max":803,"o":"m 256 0 l 256 313 l -4 956 l 288 956 l 399 585 l 410 585 l 518 956 l 803 956 l 543 313 l 543 0 l 256 0 m 161 1079 l 161 1244 l 369 1244 l 369 1079 l 161 1079 m 438 1079 l 438 1244 l 647 1244 l 647 1079 l 438 1079 z "},"Ỵ":{"ha":799,"x_min":-4,"x_max":803,"o":"m 256 0 l 256 313 l -4 956 l 288 956 l 399 585 l 410 585 l 518 956 l 803 956 l 543 313 l 543 0 l 256 0 m 263 -311 l 263 -86 l 536 -86 l 536 -311 l 263 -311 z "},"Ỳ":{"ha":799,"x_min":-4,"x_max":803,"o":"m 256 0 l 256 313 l -4 956 l 288 956 l 399 585 l 410 585 l 518 956 l 803 956 l 543 313 l 543 0 l 256 0 m 315 1028 l 164 1226 l 164 1233 l 411 1233 l 507 1035 l 507 1028 l 315 1028 z "},"Ỷ":{"ha":799,"x_min":-4,"x_max":803,"o":"m 256 0 l 256 313 l -4 956 l 288 956 l 399 585 l 410 585 l 518 956 l 803 956 l 543 313 l 543 0 l 256 0 m 292 1024 q 303 1088 292 1069 q 354 1115 315 1106 l 372 1119 q 412 1135 403 1129 q 421 1157 421 1142 q 408 1181 421 1176 q 356 1185 396 1185 q 211 1179 286 1185 l 211 1300 q 393 1318 304 1318 q 498 1310 457 1318 q 565 1272 539 1301 q 590 1179 590 1242 q 569 1098 590 1121 q 494 1057 547 1075 l 481 1051 q 442 1033 450 1040 q 433 1008 433 1025 l 292 1008 l 292 1024 z "},"Ȳ":{"ha":799,"x_min":-4,"x_max":803,"o":"m 256 0 l 256 313 l -4 956 l 288 956 l 399 585 l 410 585 l 518 956 l 803 956 l 543 313 l 543 0 l 256 0 m 222 1026 l 222 1233 l 579 1233 l 579 1026 l 222 1026 z "},"Ỹ":{"ha":799,"x_min":-4,"x_max":803,"o":"m 256 0 l 256 313 l -4 956 l 288 956 l 399 585 l 410 585 l 518 956 l 803 956 l 543 313 l 543 0 l 256 0 m 656 1233 q 649 1113 656 1153 q 615 1050 643 1074 q 525 1026 588 1026 q 382 1047 471 1026 l 349 1053 q 301 1060 317 1060 q 279 1050 283 1060 q 275 1010 275 1040 l 143 1010 q 149 1129 143 1089 q 184 1193 156 1169 q 274 1217 213 1217 q 418 1196 329 1217 q 497 1183 478 1183 q 519 1193 515 1183 q 524 1233 524 1203 l 656 1233 z "},"Z":{"ha":744,"x_min":47,"x_max":697,"o":"m 47 0 l 47 208 l 360 738 l 60 738 l 60 956 l 697 956 l 697 751 l 381 218 l 696 218 l 696 0 l 47 0 z "},"Ź":{"ha":744,"x_min":47,"x_max":697,"o":"m 47 0 l 47 208 l 360 738 l 60 738 l 60 956 l 697 956 l 697 751 l 381 218 l 696 218 l 696 0 l 47 0 m 271 1028 l 271 1035 l 368 1233 l 614 1233 l 614 1226 l 463 1028 l 271 1028 z "},"Ž":{"ha":744,"x_min":47,"x_max":697,"o":"m 47 0 l 47 208 l 360 738 l 60 738 l 60 956 l 697 956 l 697 751 l 381 218 l 696 218 l 696 0 l 47 0 m 263 1043 l 149 1226 l 149 1238 l 318 1238 l 385 1144 l 447 1238 l 617 1238 l 617 1226 l 501 1043 l 263 1043 z "},"Ż":{"ha":744,"x_min":47,"x_max":697,"o":"m 47 0 l 47 208 l 360 738 l 60 738 l 60 956 l 697 956 l 697 751 l 381 218 l 696 218 l 696 0 l 47 0 m 267 1050 l 267 1215 l 476 1215 l 476 1050 l 267 1050 z "},"Ẓ":{"ha":744,"x_min":47,"x_max":697,"o":"m 47 0 l 47 208 l 360 738 l 60 738 l 60 956 l 697 956 l 697 751 l 381 218 l 696 218 l 696 0 l 47 0 m 235 -311 l 235 -86 l 508 -86 l 508 -311 l 235 -311 z "},"a":{"ha":696,"x_min":33,"x_max":642,"o":"m 207 -11 q 75 42 117 -11 q 33 207 33 94 q 51 336 33 290 q 113 402 68 382 q 242 422 157 422 q 378 417 297 422 l 378 443 q 370 501 378 485 q 338 521 363 517 q 249 525 314 525 q 68 517 171 525 l 68 697 q 329 719 204 719 q 535 688 468 719 q 622 597 601 657 q 642 424 642 536 l 642 0 l 385 0 l 379 78 l 367 78 q 298 8 336 26 q 207 -11 260 -11 m 328 175 q 358 181 347 175 q 374 199 368 186 q 378 260 378 211 l 378 297 l 331 297 q 287 285 296 297 q 278 231 278 274 q 286 186 278 197 q 328 175 294 175 z "},"á":{"ha":696,"x_min":33,"x_max":642,"o":"m 207 -11 q 75 42 117 -11 q 33 207 33 94 q 51 336 33 290 q 113 402 68 382 q 242 422 157 422 q 378 417 297 422 l 378 443 q 370 501 378 485 q 338 521 363 517 q 249 525 314 525 q 68 517 171 525 l 68 697 q 329 719 204 719 q 535 688 468 719 q 622 597 601 657 q 642 424 642 536 l 642 0 l 385 0 l 379 78 l 367 78 q 298 8 336 26 q 207 -11 260 -11 m 328 175 q 358 181 347 175 q 374 199 368 186 q 378 260 378 211 l 378 297 l 331 297 q 287 285 296 297 q 278 231 278 274 q 286 186 278 197 q 328 175 294 175 m 249 826 l 249 833 l 346 1032 l 592 1032 l 592 1025 l 440 826 l 249 826 z "},"ă":{"ha":696,"x_min":33,"x_max":642,"o":"m 207 -11 q 75 42 117 -11 q 33 207 33 94 q 51 336 33 290 q 113 402 68 382 q 242 422 157 422 q 378 417 297 422 l 378 443 q 370 501 378 485 q 338 521 363 517 q 249 525 314 525 q 68 517 171 525 l 68 697 q 329 719 204 719 q 535 688 468 719 q 622 597 601 657 q 642 424 642 536 l 642 0 l 385 0 l 379 78 l 367 78 q 298 8 336 26 q 207 -11 260 -11 m 328 175 q 358 181 347 175 q 374 199 368 186 q 378 260 378 211 l 378 297 l 331 297 q 287 285 296 297 q 278 231 278 274 q 286 186 278 197 q 328 175 294 175 m 557 1032 q 541 924 557 967 q 479 856 525 881 q 347 832 433 832 q 217 856 263 832 q 155 924 171 881 q 139 1032 139 967 l 282 1032 q 292 981 282 997 q 347 965 303 965 q 393 974 379 965 q 410 995 407 982 q 414 1032 414 1008 l 557 1032 z "},"ắ":{"ha":696,"x_min":33,"x_max":642,"o":"m 207 -11 q 75 42 117 -11 q 33 207 33 94 q 51 336 33 290 q 113 402 68 382 q 242 422 157 422 q 378 417 297 422 l 378 443 q 370 501 378 485 q 338 521 363 517 q 249 525 314 525 q 68 517 171 525 l 68 697 q 329 719 204 719 q 535 688 468 719 q 622 597 601 657 q 642 424 642 536 l 642 0 l 385 0 l 379 78 l 367 78 q 298 8 336 26 q 207 -11 260 -11 m 328 175 q 358 181 347 175 q 374 199 368 186 q 378 260 378 211 l 378 297 l 331 297 q 287 285 296 297 q 278 231 278 274 q 286 186 278 197 q 328 175 294 175 m 542 1032 q 526 924 542 967 q 464 856 510 881 q 332 832 418 832 q 201 856 247 832 q 140 924 156 881 q 124 1032 124 967 l 267 1032 q 277 981 267 997 q 332 965 288 965 q 378 974 364 965 q 395 995 392 982 q 399 1032 399 1008 l 542 1032 m 221 1067 l 221 1074 l 318 1272 l 564 1272 l 564 1265 l 413 1067 l 221 1067 z "},"ặ":{"ha":696,"x_min":33,"x_max":642,"o":"m 207 -11 q 75 42 117 -11 q 33 207 33 94 q 51 336 33 290 q 113 402 68 382 q 242 422 157 422 q 378 417 297 422 l 378 443 q 370 501 378 485 q 338 521 363 517 q 249 525 314 525 q 68 517 171 525 l 68 697 q 329 719 204 719 q 535 688 468 719 q 622 597 601 657 q 642 424 642 536 l 642 0 l 385 0 l 379 78 l 367 78 q 298 8 336 26 q 207 -11 260 -11 m 328 175 q 358 181 347 175 q 374 199 368 186 q 378 260 378 211 l 378 297 l 331 297 q 287 285 296 297 q 278 231 278 274 q 286 186 278 197 q 328 175 294 175 m 211 -311 l 211 -86 l 485 -86 l 485 -311 l 211 -311 m 557 1032 q 541 924 557 967 q 479 856 525 881 q 347 832 433 832 q 217 856 263 832 q 155 924 171 881 q 139 1032 139 967 l 282 1032 q 292 981 282 997 q 347 965 303 965 q 393 974 379 965 q 410 995 407 982 q 414 1032 414 1008 l 557 1032 z "},"ằ":{"ha":696,"x_min":33,"x_max":642,"o":"m 207 -11 q 75 42 117 -11 q 33 207 33 94 q 51 336 33 290 q 113 402 68 382 q 242 422 157 422 q 378 417 297 422 l 378 443 q 370 501 378 485 q 338 521 363 517 q 249 525 314 525 q 68 517 171 525 l 68 697 q 329 719 204 719 q 535 688 468 719 q 622 597 601 657 q 642 424 642 536 l 642 0 l 385 0 l 379 78 l 367 78 q 298 8 336 26 q 207 -11 260 -11 m 328 175 q 358 181 347 175 q 374 199 368 186 q 378 260 378 211 l 378 297 l 331 297 q 287 285 296 297 q 278 231 278 274 q 286 186 278 197 q 328 175 294 175 m 576 1032 q 560 924 576 967 q 499 856 544 881 q 367 832 453 832 q 236 856 282 832 q 174 924 190 881 q 158 1032 158 967 l 301 1032 q 312 981 301 997 q 367 965 322 965 q 413 974 399 965 q 430 995 426 982 q 433 1032 433 1008 l 576 1032 m 276 1067 l 125 1265 l 125 1272 l 372 1272 l 468 1074 l 468 1067 l 276 1067 z "},"ẳ":{"ha":696,"x_min":33,"x_max":642,"o":"m 207 -11 q 75 42 117 -11 q 33 207 33 94 q 51 336 33 290 q 113 402 68 382 q 242 422 157 422 q 378 417 297 422 l 378 443 q 370 501 378 485 q 338 521 363 517 q 249 525 314 525 q 68 517 171 525 l 68 697 q 329 719 204 719 q 535 688 468 719 q 622 597 601 657 q 642 424 642 536 l 642 0 l 385 0 l 379 78 l 367 78 q 298 8 336 26 q 207 -11 260 -11 m 328 175 q 358 181 347 175 q 374 199 368 186 q 378 260 378 211 l 378 297 l 331 297 q 287 285 296 297 q 278 231 278 274 q 286 186 278 197 q 328 175 294 175 m 549 1032 q 533 924 549 967 q 471 856 517 881 q 339 832 425 832 q 208 856 254 832 q 147 924 163 881 q 131 1032 131 967 l 274 1032 q 284 981 274 997 q 339 965 294 965 q 385 974 371 965 q 402 995 399 982 q 406 1032 406 1008 l 549 1032 m 268 1060 q 280 1124 268 1106 q 331 1151 292 1142 l 349 1157 q 388 1172 379 1165 q 397 1193 397 1179 q 385 1217 397 1213 q 332 1222 372 1222 q 188 1217 263 1222 l 188 1338 q 369 1356 281 1356 q 474 1347 433 1356 q 541 1309 515 1339 q 567 1217 567 1279 q 556 1153 567 1175 q 527 1118 546 1131 q 471 1093 508 1106 l 457 1089 q 418 1070 426 1078 q 410 1044 410 1063 l 268 1044 l 268 1060 z "},"ẵ":{"ha":696,"x_min":33,"x_max":642,"o":"m 207 -11 q 75 42 117 -11 q 33 207 33 94 q 51 336 33 290 q 113 402 68 382 q 242 422 157 422 q 378 417 297 422 l 378 443 q 370 501 378 485 q 338 521 363 517 q 249 525 314 525 q 68 517 171 525 l 68 697 q 329 719 204 719 q 535 688 468 719 q 622 597 601 657 q 642 424 642 536 l 642 0 l 385 0 l 379 78 l 367 78 q 298 8 336 26 q 207 -11 260 -11 m 328 175 q 358 181 347 175 q 374 199 368 186 q 378 260 378 211 l 378 297 l 331 297 q 287 285 296 297 q 278 231 278 274 q 286 186 278 197 q 328 175 294 175 m 554 1032 q 538 924 554 967 q 476 856 522 881 q 344 832 431 832 q 214 856 260 832 q 152 924 168 881 q 136 1032 136 967 l 279 1032 q 290 981 279 997 q 344 965 300 965 q 390 974 376 965 q 408 995 404 982 q 411 1032 411 1008 l 554 1032 m 604 1318 q 598 1198 604 1238 q 564 1135 592 1158 q 474 1111 536 1111 q 331 1132 419 1111 l 297 1138 q 250 1144 265 1144 q 228 1135 232 1144 q 224 1094 224 1125 l 92 1094 q 98 1214 92 1174 q 133 1278 104 1254 q 222 1301 161 1301 q 367 1281 278 1301 q 446 1268 426 1268 q 468 1278 464 1268 q 472 1318 472 1288 l 604 1318 z "},"ǎ":{"ha":696,"x_min":33,"x_max":642,"o":"m 207 -11 q 75 42 117 -11 q 33 207 33 94 q 51 336 33 290 q 113 402 68 382 q 242 422 157 422 q 378 417 297 422 l 378 443 q 370 501 378 485 q 338 521 363 517 q 249 525 314 525 q 68 517 171 525 l 68 697 q 329 719 204 719 q 535 688 468 719 q 622 597 601 657 q 642 424 642 536 l 642 0 l 385 0 l 379 78 l 367 78 q 298 8 336 26 q 207 -11 260 -11 m 328 175 q 358 181 347 175 q 374 199 368 186 q 378 260 378 211 l 378 297 l 331 297 q 287 285 296 297 q 278 231 278 274 q 286 186 278 197 q 328 175 294 175 m 228 838 l 114 1021 l 114 1032 l 283 1032 l 350 939 l 413 1032 l 582 1032 l 582 1021 l 467 838 l 228 838 z "},"â":{"ha":696,"x_min":33,"x_max":642,"o":"m 207 -11 q 75 42 117 -11 q 33 207 33 94 q 51 336 33 290 q 113 402 68 382 q 242 422 157 422 q 378 417 297 422 l 378 443 q 370 501 378 485 q 338 521 363 517 q 249 525 314 525 q 68 517 171 525 l 68 697 q 329 719 204 719 q 535 688 468 719 q 622 597 601 657 q 642 424 642 536 l 642 0 l 385 0 l 379 78 l 367 78 q 298 8 336 26 q 207 -11 260 -11 m 328 175 q 358 181 347 175 q 374 199 368 186 q 378 260 378 211 l 378 297 l 331 297 q 287 285 296 297 q 278 231 278 274 q 286 186 278 197 q 328 175 294 175 m 118 838 l 118 850 l 232 1032 l 471 1032 l 586 850 l 586 838 l 417 838 l 351 931 l 288 838 l 118 838 z "},"ấ":{"ha":696,"x_min":33,"x_max":703,"o":"m 207 -11 q 75 42 117 -11 q 33 207 33 94 q 51 336 33 290 q 113 402 68 382 q 242 422 157 422 q 378 417 297 422 l 378 443 q 370 501 378 485 q 338 521 363 517 q 249 525 314 525 q 68 517 171 525 l 68 697 q 329 719 204 719 q 535 688 468 719 q 622 597 601 657 q 642 424 642 536 l 642 0 l 385 0 l 379 78 l 367 78 q 298 8 336 26 q 207 -11 260 -11 m 328 175 q 358 181 347 175 q 374 199 368 186 q 378 260 378 211 l 378 297 l 331 297 q 287 285 296 297 q 278 231 278 274 q 286 186 278 197 q 328 175 294 175 m 114 838 l 114 850 l 228 1032 l 467 1032 l 582 850 l 582 838 l 413 838 l 347 931 l 283 838 l 114 838 m 360 1067 l 360 1074 l 457 1272 l 703 1272 l 703 1265 l 551 1067 l 360 1067 z "},"ậ":{"ha":696,"x_min":33,"x_max":642,"o":"m 207 -11 q 75 42 117 -11 q 33 207 33 94 q 51 336 33 290 q 113 402 68 382 q 242 422 157 422 q 378 417 297 422 l 378 443 q 370 501 378 485 q 338 521 363 517 q 249 525 314 525 q 68 517 171 525 l 68 697 q 329 719 204 719 q 535 688 468 719 q 622 597 601 657 q 642 424 642 536 l 642 0 l 385 0 l 379 78 l 367 78 q 298 8 336 26 q 207 -11 260 -11 m 328 175 q 358 181 347 175 q 374 199 368 186 q 378 260 378 211 l 378 297 l 331 297 q 287 285 296 297 q 278 231 278 274 q 286 186 278 197 q 328 175 294 175 m 211 -311 l 211 -86 l 485 -86 l 485 -311 l 211 -311 m 114 838 l 114 850 l 228 1032 l 467 1032 l 582 850 l 582 838 l 413 838 l 347 931 l 283 838 l 114 838 z "},"ầ":{"ha":696,"x_min":33,"x_max":642,"o":"m 207 -11 q 75 42 117 -11 q 33 207 33 94 q 51 336 33 290 q 113 402 68 382 q 242 422 157 422 q 378 417 297 422 l 378 443 q 370 501 378 485 q 338 521 363 517 q 249 525 314 525 q 68 517 171 525 l 68 697 q 329 719 204 719 q 535 688 468 719 q 622 597 601 657 q 642 424 642 536 l 642 0 l 385 0 l 379 78 l 367 78 q 298 8 336 26 q 207 -11 260 -11 m 328 175 q 358 181 347 175 q 374 199 368 186 q 378 260 378 211 l 378 297 l 331 297 q 287 285 296 297 q 278 231 278 274 q 286 186 278 197 q 328 175 294 175 m 97 838 l 97 850 l 211 1032 l 450 1032 l 565 850 l 565 838 l 396 838 l 331 931 l 267 838 l 97 838 m 406 1067 l 254 1265 l 254 1272 l 501 1272 l 597 1074 l 597 1067 l 406 1067 z "},"ẩ":{"ha":696,"x_min":33,"x_max":724,"o":"m 207 -11 q 75 42 117 -11 q 33 207 33 94 q 51 336 33 290 q 113 402 68 382 q 242 422 157 422 q 378 417 297 422 l 378 443 q 370 501 378 485 q 338 521 363 517 q 249 525 314 525 q 68 517 171 525 l 68 697 q 329 719 204 719 q 535 688 468 719 q 622 597 601 657 q 642 424 642 536 l 642 0 l 385 0 l 379 78 l 367 78 q 298 8 336 26 q 207 -11 260 -11 m 328 175 q 358 181 347 175 q 374 199 368 186 q 378 260 378 211 l 378 297 l 331 297 q 287 285 296 297 q 278 231 278 274 q 286 186 278 197 q 328 175 294 175 m 114 838 l 114 850 l 228 1032 l 467 1032 l 582 850 l 582 838 l 413 838 l 347 931 l 283 838 l 114 838 m 425 1076 q 437 1140 425 1122 q 488 1168 449 1158 l 506 1174 q 545 1189 536 1182 q 554 1210 554 1196 q 542 1234 554 1229 q 489 1239 529 1239 q 344 1233 419 1239 l 344 1354 q 526 1372 438 1372 q 631 1364 590 1372 q 698 1326 672 1356 q 724 1233 724 1296 q 713 1169 724 1192 q 684 1135 703 1147 q 628 1110 665 1122 l 614 1106 q 575 1087 583 1094 q 567 1061 567 1079 l 425 1061 l 425 1076 z "},"ẫ":{"ha":696,"x_min":33,"x_max":642,"o":"m 207 -11 q 75 42 117 -11 q 33 207 33 94 q 51 336 33 290 q 113 402 68 382 q 242 422 157 422 q 378 417 297 422 l 378 443 q 370 501 378 485 q 338 521 363 517 q 249 525 314 525 q 68 517 171 525 l 68 697 q 329 719 204 719 q 535 688 468 719 q 622 597 601 657 q 642 424 642 536 l 642 0 l 385 0 l 379 78 l 367 78 q 298 8 336 26 q 207 -11 260 -11 m 328 175 q 358 181 347 175 q 374 199 368 186 q 378 260 378 211 l 378 297 l 331 297 q 287 285 296 297 q 278 231 278 274 q 286 186 278 197 q 328 175 294 175 m 111 838 l 111 850 l 225 1032 l 464 1032 l 579 850 l 579 838 l 410 838 l 344 931 l 281 838 l 111 838 m 604 1272 q 598 1152 604 1192 q 564 1089 592 1113 q 474 1065 536 1065 q 331 1086 419 1065 l 297 1092 q 250 1099 265 1099 q 228 1089 232 1099 q 224 1049 224 1079 l 92 1049 q 98 1168 92 1128 q 133 1232 104 1208 q 222 1256 161 1256 q 367 1235 278 1256 q 446 1222 426 1222 q 468 1232 464 1222 q 472 1272 472 1242 l 604 1272 z "},"ȁ":{"ha":696,"x_min":33,"x_max":642,"o":"m 207 -11 q 75 42 117 -11 q 33 207 33 94 q 51 336 33 290 q 113 402 68 382 q 242 422 157 422 q 378 417 297 422 l 378 443 q 370 501 378 485 q 338 521 363 517 q 249 525 314 525 q 68 517 171 525 l 68 697 q 329 719 204 719 q 535 688 468 719 q 622 597 601 657 q 642 424 642 536 l 642 0 l 385 0 l 379 78 l 367 78 q 298 8 336 26 q 207 -11 260 -11 m 328 175 q 358 181 347 175 q 374 199 368 186 q 378 260 378 211 l 378 297 l 331 297 q 287 285 296 297 q 278 231 278 274 q 286 186 278 197 q 328 175 294 175 m 318 849 l 161 849 l 43 1007 l 43 1013 l 242 1013 l 318 854 l 318 849 m 554 849 l 399 849 l 279 1007 l 279 1013 l 479 1013 l 554 854 l 554 849 z "},"ä":{"ha":696,"x_min":33,"x_max":642,"o":"m 207 -11 q 75 42 117 -11 q 33 207 33 94 q 51 336 33 290 q 113 402 68 382 q 242 422 157 422 q 378 417 297 422 l 378 443 q 370 501 378 485 q 338 521 363 517 q 249 525 314 525 q 68 517 171 525 l 68 697 q 329 719 204 719 q 535 688 468 719 q 622 597 601 657 q 642 424 642 536 l 642 0 l 385 0 l 379 78 l 367 78 q 298 8 336 26 q 207 -11 260 -11 m 328 175 q 358 181 347 175 q 374 199 368 186 q 378 260 378 211 l 378 297 l 331 297 q 287 285 296 297 q 278 231 278 274 q 286 186 278 197 q 328 175 294 175 m 110 849 l 110 1014 l 318 1014 l 318 849 l 110 849 m 386 849 l 386 1014 l 596 1014 l 596 849 l 386 849 z "},"ạ":{"ha":696,"x_min":33,"x_max":642,"o":"m 207 -11 q 75 42 117 -11 q 33 207 33 94 q 51 336 33 290 q 113 402 68 382 q 242 422 157 422 q 378 417 297 422 l 378 443 q 370 501 378 485 q 338 521 363 517 q 249 525 314 525 q 68 517 171 525 l 68 697 q 329 719 204 719 q 535 688 468 719 q 622 597 601 657 q 642 424 642 536 l 642 0 l 385 0 l 379 78 l 367 78 q 298 8 336 26 q 207 -11 260 -11 m 328 175 q 358 181 347 175 q 374 199 368 186 q 378 260 378 211 l 378 297 l 331 297 q 287 285 296 297 q 278 231 278 274 q 286 186 278 197 q 328 175 294 175 m 211 -311 l 211 -86 l 485 -86 l 485 -311 l 211 -311 z "},"à":{"ha":696,"x_min":33,"x_max":642,"o":"m 207 -11 q 75 42 117 -11 q 33 207 33 94 q 51 336 33 290 q 113 402 68 382 q 242 422 157 422 q 378 417 297 422 l 378 443 q 370 501 378 485 q 338 521 363 517 q 249 525 314 525 q 68 517 171 525 l 68 697 q 329 719 204 719 q 535 688 468 719 q 622 597 601 657 q 642 424 642 536 l 642 0 l 385 0 l 379 78 l 367 78 q 298 8 336 26 q 207 -11 260 -11 m 328 175 q 358 181 347 175 q 374 199 368 186 q 378 260 378 211 l 378 297 l 331 297 q 287 285 296 297 q 278 231 278 274 q 286 186 278 197 q 328 175 294 175 m 264 826 l 113 1025 l 113 1032 l 360 1032 l 456 833 l 456 826 l 264 826 z "},"ả":{"ha":696,"x_min":33,"x_max":642,"o":"m 207 -11 q 75 42 117 -11 q 33 207 33 94 q 51 336 33 290 q 113 402 68 382 q 242 422 157 422 q 378 417 297 422 l 378 443 q 370 501 378 485 q 338 521 363 517 q 249 525 314 525 q 68 517 171 525 l 68 697 q 329 719 204 719 q 535 688 468 719 q 622 597 601 657 q 642 424 642 536 l 642 0 l 385 0 l 379 78 l 367 78 q 298 8 336 26 q 207 -11 260 -11 m 328 175 q 358 181 347 175 q 374 199 368 186 q 378 260 378 211 l 378 297 l 331 297 q 287 285 296 297 q 278 231 278 274 q 286 186 278 197 q 328 175 294 175 m 240 865 q 252 929 240 911 q 303 957 264 947 l 321 963 q 360 978 351 971 q 369 999 369 985 q 357 1023 369 1018 q 304 1028 344 1028 q 160 1022 235 1028 l 160 1143 q 342 1161 253 1161 q 447 1153 406 1161 q 513 1115 488 1144 q 539 1022 539 1085 q 528 958 539 981 q 499 924 518 936 q 443 899 481 911 l 429 894 q 390 876 399 883 q 382 850 382 868 l 240 850 l 240 865 z "},"ȃ":{"ha":696,"x_min":33,"x_max":642,"o":"m 207 -11 q 75 42 117 -11 q 33 207 33 94 q 51 336 33 290 q 113 402 68 382 q 242 422 157 422 q 378 417 297 422 l 378 443 q 370 501 378 485 q 338 521 363 517 q 249 525 314 525 q 68 517 171 525 l 68 697 q 329 719 204 719 q 535 688 468 719 q 622 597 601 657 q 642 424 642 536 l 642 0 l 385 0 l 379 78 l 367 78 q 298 8 336 26 q 207 -11 260 -11 m 328 175 q 358 181 347 175 q 374 199 368 186 q 378 260 378 211 l 378 297 l 331 297 q 287 285 296 297 q 278 231 278 274 q 286 186 278 197 q 328 175 294 175 m 139 839 q 155 947 139 904 q 217 1015 171 990 q 349 1039 263 1039 q 479 1015 433 1039 q 541 947 525 990 q 557 839 557 904 l 414 839 q 403 890 414 874 q 349 906 393 906 q 303 897 317 906 q 285 876 289 889 q 282 839 282 863 l 139 839 z "},"ā":{"ha":696,"x_min":33,"x_max":642,"o":"m 207 -11 q 75 42 117 -11 q 33 207 33 94 q 51 336 33 290 q 113 402 68 382 q 242 422 157 422 q 378 417 297 422 l 378 443 q 370 501 378 485 q 338 521 363 517 q 249 525 314 525 q 68 517 171 525 l 68 697 q 329 719 204 719 q 535 688 468 719 q 622 597 601 657 q 642 424 642 536 l 642 0 l 385 0 l 379 78 l 367 78 q 298 8 336 26 q 207 -11 260 -11 m 328 175 q 358 181 347 175 q 374 199 368 186 q 378 260 378 211 l 378 297 l 331 297 q 287 285 296 297 q 278 231 278 274 q 286 186 278 197 q 328 175 294 175 m 171 825 l 171 1032 l 528 1032 l 528 825 l 171 825 z "},"ą":{"ha":696,"x_min":33,"x_max":642,"o":"m 642 0 q 585 -43 610 -14 q 561 -103 561 -72 q 619 -147 561 -147 l 640 -146 l 640 -267 q 538 -272 585 -272 q 399 -238 442 -272 q 357 -151 357 -204 q 440 0 357 -76 l 385 0 l 379 78 l 367 78 q 298 8 336 26 q 207 -11 260 -11 q 75 42 117 -11 q 33 207 33 94 q 51 336 33 290 q 113 402 68 382 q 242 422 157 422 q 378 417 297 422 l 378 443 q 370 501 378 485 q 338 521 363 517 q 249 525 314 525 q 136 521 199 525 q 68 517 74 517 l 68 697 q 329 719 204 719 q 535 688 468 719 q 622 597 601 657 q 642 424 642 536 l 642 0 m 378 297 l 331 297 q 287 285 296 297 q 278 231 278 274 q 286 186 278 197 q 328 175 294 175 q 358 181 347 175 q 374 199 368 186 q 378 260 378 211 l 378 297 z "},"å":{"ha":696,"x_min":33,"x_max":642,"o":"m 207 -11 q 75 42 117 -11 q 33 207 33 94 q 51 336 33 290 q 113 402 68 382 q 242 422 157 422 q 378 417 297 422 l 378 443 q 370 501 378 485 q 338 521 363 517 q 249 525 314 525 q 68 517 171 525 l 68 697 q 329 719 204 719 q 535 688 468 719 q 622 597 601 657 q 642 424 642 536 l 642 0 l 385 0 l 379 78 l 367 78 q 298 8 336 26 q 207 -11 260 -11 m 328 175 q 358 181 347 175 q 374 199 368 186 q 378 260 378 211 l 378 297 l 331 297 q 287 285 296 297 q 278 231 278 274 q 286 186 278 197 q 328 175 294 175 m 356 807 q 222 823 264 807 q 166 872 179 839 q 153 971 153 904 q 166 1071 153 1038 q 222 1121 179 1104 q 356 1138 265 1138 q 490 1122 447 1138 q 546 1072 533 1106 q 558 971 558 1038 q 546 872 558 904 q 490 823 533 839 q 356 807 447 807 m 356 911 q 401 916 388 911 q 417 932 414 921 q 419 971 419 943 q 417 1010 419 999 q 401 1027 414 1022 q 356 1032 388 1032 q 312 1027 325 1032 q 296 1010 299 1022 q 293 971 293 999 q 296 932 293 943 q 312 916 299 921 q 356 911 325 911 z "},"ǻ":{"ha":696,"x_min":33,"x_max":642,"o":"m 207 -11 q 75 42 117 -11 q 33 207 33 94 q 51 336 33 290 q 113 402 68 382 q 242 422 157 422 q 378 417 297 422 l 378 443 q 370 501 378 485 q 338 521 363 517 q 249 525 314 525 q 68 517 171 525 l 68 697 q 329 719 204 719 q 535 688 468 719 q 622 597 601 657 q 642 424 642 536 l 642 0 l 385 0 l 379 78 l 367 78 q 298 8 336 26 q 207 -11 260 -11 m 328 175 q 358 181 347 175 q 374 199 368 186 q 378 260 378 211 l 378 297 l 331 297 q 287 285 296 297 q 278 231 278 274 q 286 186 278 197 q 328 175 294 175 m 347 831 q 213 847 256 831 q 158 895 171 863 q 144 994 144 928 q 158 1094 144 1061 q 214 1144 171 1128 q 347 1161 257 1161 q 482 1145 439 1161 q 538 1095 525 1129 q 550 994 550 1061 q 538 895 550 928 q 482 847 525 863 q 347 831 439 831 m 347 935 q 392 940 379 935 q 408 956 406 944 q 411 994 411 967 q 408 1034 411 1022 q 392 1051 406 1046 q 347 1056 379 1056 q 303 1051 317 1056 q 288 1034 290 1046 q 285 994 285 1022 q 288 956 285 967 q 303 940 290 944 q 347 935 317 935 m 256 1196 l 256 1203 l 353 1401 l 599 1401 l 599 1394 l 447 1196 l 256 1196 z "},"ã":{"ha":696,"x_min":33,"x_max":642,"o":"m 207 -11 q 75 42 117 -11 q 33 207 33 94 q 51 336 33 290 q 113 402 68 382 q 242 422 157 422 q 378 417 297 422 l 378 443 q 370 501 378 485 q 338 521 363 517 q 249 525 314 525 q 68 517 171 525 l 68 697 q 329 719 204 719 q 535 688 468 719 q 622 597 601 657 q 642 424 642 536 l 642 0 l 385 0 l 379 78 l 367 78 q 298 8 336 26 q 207 -11 260 -11 m 328 175 q 358 181 347 175 q 374 199 368 186 q 378 260 378 211 l 378 297 l 331 297 q 287 285 296 297 q 278 231 278 274 q 286 186 278 197 q 328 175 294 175 m 604 1032 q 598 912 604 951 q 564 849 592 872 q 474 825 536 825 q 331 846 419 825 l 297 851 q 250 858 265 858 q 228 849 232 858 q 224 808 224 839 l 92 808 q 98 928 92 888 q 133 992 104 968 q 222 1015 161 1015 q 367 994 278 1015 q 446 982 426 982 q 468 992 464 982 q 472 1032 472 1001 l 604 1032 z "},"æ":{"ha":1032,"x_min":33,"x_max":989,"o":"m 989 297 l 642 297 q 649 216 642 238 q 683 189 657 194 q 779 183 708 183 q 967 192 839 183 l 967 14 q 856 -4 926 3 q 715 -11 786 -11 q 488 38 553 -11 q 389 -1 442 10 q 267 -11 336 -11 q 120 12 171 -11 q 51 81 69 35 q 33 207 33 128 q 51 336 33 290 q 113 402 68 382 q 242 422 157 422 q 378 417 297 422 l 378 443 q 370 501 378 485 q 338 521 363 517 q 249 525 314 525 q 68 517 171 525 l 68 697 q 311 719 194 719 q 514 671 440 719 q 711 719 583 719 q 905 685 847 719 q 976 583 963 651 q 989 353 989 514 l 989 297 m 692 539 q 658 533 668 539 q 645 503 649 526 q 642 421 642 479 l 744 421 q 741 505 744 482 q 728 533 738 528 q 692 539 718 539 m 378 297 l 331 297 q 287 285 296 297 q 278 231 278 274 q 286 184 278 196 q 328 172 294 172 q 363 181 353 172 q 376 207 374 189 q 378 258 378 222 l 378 297 z "},"ǽ":{"ha":1032,"x_min":33,"x_max":989,"o":"m 989 297 l 642 297 q 649 216 642 238 q 683 189 657 194 q 779 183 708 183 q 967 192 839 183 l 967 14 q 856 -4 926 3 q 715 -11 786 -11 q 488 38 553 -11 q 389 -1 442 10 q 267 -11 336 -11 q 120 12 171 -11 q 51 81 69 35 q 33 207 33 128 q 51 336 33 290 q 113 402 68 382 q 242 422 157 422 q 378 417 297 422 l 378 443 q 370 501 378 485 q 338 521 363 517 q 249 525 314 525 q 68 517 171 525 l 68 697 q 311 719 194 719 q 514 671 440 719 q 711 719 583 719 q 905 685 847 719 q 976 583 963 651 q 989 353 989 514 l 989 297 m 692 539 q 658 533 668 539 q 645 503 649 526 q 642 421 642 479 l 744 421 q 741 505 744 482 q 728 533 738 528 q 692 539 718 539 m 378 297 l 331 297 q 287 285 296 297 q 278 231 278 274 q 286 184 278 196 q 328 172 294 172 q 363 181 353 172 q 376 207 374 189 q 378 258 378 222 l 378 297 m 419 826 l 419 833 l 517 1032 l 763 1032 l 763 1025 l 611 826 l 419 826 z "},"b":{"ha":721,"x_min":54,"x_max":682,"o":"m 490 -11 q 329 79 371 -11 l 315 79 l 310 0 l 54 0 l 54 1032 l 318 1032 l 318 638 l 332 638 q 396 700 357 682 q 489 718 435 718 q 603 685 561 718 q 663 574 644 653 q 682 353 682 494 q 663 130 682 208 q 602 20 643 51 q 490 -11 561 -11 m 368 201 q 405 208 396 201 q 417 244 414 215 q 419 354 419 272 q 417 465 419 436 q 405 500 414 493 q 368 507 396 507 q 337 502 346 507 q 324 479 328 497 q 318 354 318 447 q 319 281 318 313 q 324 232 319 249 q 336 207 326 213 q 368 201 346 201 z "},"c":{"ha":564,"x_min":38,"x_max":526,"o":"m 526 13 q 325 -11 421 -11 q 134 31 196 -11 q 55 147 72 72 q 38 353 38 221 q 55 562 38 488 q 133 678 72 636 q 325 719 194 719 q 522 697 433 719 l 522 518 q 401 525 446 525 q 335 514 354 525 q 310 469 317 503 q 304 354 304 436 q 310 238 304 271 q 335 194 315 204 q 401 183 354 183 q 526 192 449 183 l 526 13 z "},"ć":{"ha":564,"x_min":38,"x_max":529,"o":"m 526 13 q 325 -11 421 -11 q 134 31 196 -11 q 55 147 72 72 q 38 353 38 221 q 55 562 38 488 q 133 678 72 636 q 325 719 194 719 q 522 697 433 719 l 522 518 q 401 525 446 525 q 335 514 354 525 q 310 469 317 503 q 304 354 304 436 q 310 238 304 271 q 335 194 315 204 q 401 183 354 183 q 526 192 449 183 l 526 13 m 186 826 l 186 833 l 283 1032 l 529 1032 l 529 1025 l 378 826 l 186 826 z "},"č":{"ha":564,"x_min":38,"x_max":526,"o":"m 526 13 q 325 -11 421 -11 q 134 31 196 -11 q 55 147 72 72 q 38 353 38 221 q 55 562 38 488 q 133 678 72 636 q 325 719 194 719 q 522 697 433 719 l 522 518 q 401 525 446 525 q 335 514 354 525 q 310 469 317 503 q 304 354 304 436 q 310 238 304 271 q 335 194 315 204 q 401 183 354 183 q 526 192 449 183 l 526 13 m 161 838 l 47 1021 l 47 1032 l 217 1032 l 283 939 l 346 1032 l 515 1032 l 515 1021 l 400 838 l 161 838 z "},"ç":{"ha":564,"x_min":38,"x_max":526,"o":"m 526 13 q 365 -10 449 -6 l 322 -262 l 94 -262 l 94 -256 l 197 3 q 92 69 126 22 q 47 181 57 115 q 38 353 38 246 q 55 562 38 488 q 133 678 72 636 q 325 719 194 719 q 522 697 433 719 l 522 518 q 401 525 446 525 q 335 514 354 525 q 310 469 317 503 q 304 354 304 436 q 310 238 304 271 q 335 194 315 204 q 401 183 354 183 q 526 192 449 183 l 526 13 z "},"ĉ":{"ha":564,"x_min":38,"x_max":526,"o":"m 526 13 q 325 -11 421 -11 q 134 31 196 -11 q 55 147 72 72 q 38 353 38 221 q 55 562 38 488 q 133 678 72 636 q 325 719 194 719 q 522 697 433 719 l 522 518 q 401 525 446 525 q 335 514 354 525 q 310 469 317 503 q 304 354 304 436 q 310 238 304 271 q 335 194 315 204 q 401 183 354 183 q 526 192 449 183 l 526 13 m 47 838 l 47 850 l 161 1032 l 400 1032 l 515 850 l 515 838 l 346 838 l 281 931 l 217 838 l 47 838 z "},"ċ":{"ha":564,"x_min":38,"x_max":526,"o":"m 526 13 q 325 -11 421 -11 q 134 31 196 -11 q 55 147 72 72 q 38 353 38 221 q 55 562 38 488 q 133 678 72 636 q 325 719 194 719 q 522 697 433 719 l 522 518 q 401 525 446 525 q 335 514 354 525 q 310 469 317 503 q 304 354 304 436 q 310 238 304 271 q 335 194 315 204 q 401 183 354 183 q 526 192 449 183 l 526 13 m 176 849 l 176 1014 l 386 1014 l 386 849 l 176 849 z "},"d":{"ha":721,"x_min":38,"x_max":665,"o":"m 229 -11 q 117 20 158 -11 q 57 130 76 51 q 38 353 38 208 q 57 574 38 494 q 118 685 76 653 q 232 718 160 718 q 324 700 286 718 q 388 638 363 682 l 401 638 l 401 1032 l 665 1032 l 665 0 l 410 0 l 404 79 l 390 79 q 229 -11 350 -11 m 351 201 q 385 208 376 201 q 397 238 394 214 q 401 354 401 268 q 399 464 401 440 q 386 499 396 492 q 351 507 376 507 q 315 500 324 507 q 303 466 306 493 q 301 354 301 439 q 303 242 301 269 q 315 208 306 215 q 351 201 324 201 z "},"ð":{"ha":704,"x_min":38,"x_max":665,"o":"m 351 -11 q 138 20 203 -11 q 56 123 74 51 q 38 354 38 194 q 53 569 38 494 q 115 682 68 644 q 258 719 161 719 q 354 710 293 719 l 361 715 q 329 806 351 753 l 169 785 l 169 924 l 250 933 q 165 1026 217 975 l 165 1032 l 442 1032 q 496 968 471 1004 l 658 990 l 658 851 l 583 839 q 651 601 631 743 q 665 353 665 494 q 647 123 665 194 q 565 20 629 51 q 351 -11 500 -11 m 351 183 q 388 192 379 183 q 400 233 397 201 q 403 354 403 264 q 400 476 403 444 q 388 516 397 507 q 351 525 379 525 q 315 516 325 525 q 303 476 306 507 q 301 354 301 446 q 303 232 301 263 q 315 192 306 201 q 351 183 325 183 z "},"ď":{"ha":882,"x_min":38,"x_max":954,"o":"m 229 -11 q 117 20 158 -11 q 57 130 76 51 q 38 353 38 208 q 57 574 38 494 q 118 685 76 653 q 232 718 160 718 q 324 700 286 718 q 388 638 363 682 l 401 638 l 401 1032 l 665 1032 l 665 0 l 410 0 l 404 79 l 390 79 q 229 -11 350 -11 m 351 201 q 385 208 376 201 q 397 238 394 214 q 401 354 401 268 q 399 464 401 440 q 386 499 396 492 q 351 507 376 507 q 315 500 324 507 q 303 466 306 493 q 301 354 301 439 q 303 242 301 269 q 315 208 306 215 q 351 201 324 201 m 706 585 l 722 893 l 722 956 l 954 956 l 954 893 l 886 585 l 706 585 z "},"đ":{"ha":721,"x_min":38,"x_max":729,"o":"m 729 772 l 665 772 l 665 0 l 410 0 l 404 79 l 390 79 q 229 -11 350 -11 q 117 20 158 -11 q 57 130 76 51 q 38 353 38 208 q 57 574 38 494 q 118 685 76 653 q 232 718 160 718 q 324 700 286 718 q 388 638 363 682 l 401 638 l 401 772 l 256 772 l 256 956 l 401 956 l 401 1032 l 665 1032 l 665 956 l 729 956 l 729 772 m 397 238 q 401 354 401 268 q 399 464 401 440 q 386 499 396 492 q 351 507 376 507 q 315 500 324 507 q 303 466 306 493 q 301 354 301 439 q 303 242 301 269 q 315 208 306 215 q 351 201 324 201 q 385 208 376 201 q 397 238 394 214 z "},"ḍ":{"ha":721,"x_min":38,"x_max":665,"o":"m 229 -11 q 117 20 158 -11 q 57 130 76 51 q 38 353 38 208 q 57 574 38 494 q 118 685 76 653 q 232 718 160 718 q 324 700 286 718 q 388 638 363 682 l 401 638 l 401 1032 l 665 1032 l 665 0 l 410 0 l 404 79 l 390 79 q 229 -11 350 -11 m 351 201 q 385 208 376 201 q 397 238 394 214 q 401 354 401 268 q 399 464 401 440 q 386 499 396 492 q 351 507 376 507 q 315 500 324 507 q 303 466 306 493 q 301 354 301 439 q 303 242 301 269 q 315 208 306 215 q 351 201 324 201 m 222 -311 l 222 -86 l 496 -86 l 496 -311 l 222 -311 z "},"ǳ":{"ha":1378,"x_min":38,"x_max":1333,"o":"m 229 -11 q 117 20 158 -11 q 57 130 76 51 q 38 353 38 208 q 57 574 38 494 q 118 685 76 653 q 232 718 160 718 q 324 700 286 718 q 388 638 363 682 l 401 638 l 401 1032 l 665 1032 l 665 0 l 410 0 l 404 79 l 390 79 q 229 -11 350 -11 m 351 201 q 385 208 376 201 q 397 238 394 214 q 401 354 401 268 q 399 464 401 440 q 386 499 396 492 q 351 507 376 507 q 315 500 324 507 q 303 466 306 493 q 301 354 301 439 q 303 242 301 269 q 315 208 306 215 q 351 201 324 201 m 765 0 l 765 183 l 1011 514 l 778 514 l 778 708 l 1332 708 l 1332 525 l 1086 194 l 1333 194 l 1333 0 l 765 0 z "},"ǆ":{"ha":1378,"x_min":38,"x_max":1333,"o":"m 229 -11 q 117 20 158 -11 q 57 130 76 51 q 38 353 38 208 q 57 574 38 494 q 118 685 76 653 q 232 718 160 718 q 324 700 286 718 q 388 638 363 682 l 401 638 l 401 1032 l 665 1032 l 665 0 l 410 0 l 404 79 l 390 79 q 229 -11 350 -11 m 351 201 q 385 208 376 201 q 397 238 394 214 q 401 354 401 268 q 399 464 401 440 q 386 499 396 492 q 351 507 376 507 q 315 500 324 507 q 303 466 306 493 q 301 354 301 439 q 303 242 301 269 q 315 208 306 215 q 351 201 324 201 m 765 0 l 765 183 l 1011 514 l 778 514 l 778 708 l 1332 708 l 1332 525 l 1086 194 l 1333 194 l 1333 0 l 765 0 m 924 838 l 810 1021 l 810 1032 l 979 1032 l 1046 939 l 1108 1032 l 1278 1032 l 1278 1021 l 1163 838 l 924 838 z "},"e":{"ha":686,"x_min":38,"x_max":644,"o":"m 644 297 l 297 297 q 305 216 297 238 q 338 189 313 194 q 433 183 363 183 q 622 192 489 183 l 622 14 q 513 -4 583 3 q 371 -11 442 -11 q 144 26 215 -11 q 56 134 74 63 q 38 353 38 206 q 56 573 38 500 q 139 683 74 646 q 347 719 204 719 q 555 685 493 719 q 631 583 617 651 q 644 353 644 514 l 644 297 m 347 539 q 314 533 324 539 q 301 503 304 526 q 297 421 297 479 l 400 421 q 397 503 400 481 q 383 533 393 526 q 347 539 374 539 z "},"é":{"ha":686,"x_min":38,"x_max":644,"o":"m 644 297 l 297 297 q 305 216 297 238 q 338 189 313 194 q 433 183 363 183 q 622 192 489 183 l 622 14 q 513 -4 583 3 q 371 -11 442 -11 q 144 26 215 -11 q 56 134 74 63 q 38 353 38 206 q 56 573 38 500 q 139 683 74 646 q 347 719 204 719 q 555 685 493 719 q 631 583 617 651 q 644 353 644 514 l 644 297 m 347 539 q 314 533 324 539 q 301 503 304 526 q 297 421 297 479 l 400 421 q 397 503 400 481 q 383 533 393 526 q 347 539 374 539 m 254 826 l 254 833 l 351 1032 l 597 1032 l 597 1025 l 446 826 l 254 826 z "},"ĕ":{"ha":686,"x_min":38,"x_max":644,"o":"m 644 297 l 297 297 q 305 216 297 238 q 338 189 313 194 q 433 183 363 183 q 622 192 489 183 l 622 14 q 513 -4 583 3 q 371 -11 442 -11 q 144 26 215 -11 q 56 134 74 63 q 38 353 38 206 q 56 573 38 500 q 139 683 74 646 q 347 719 204 719 q 555 685 493 719 q 631 583 617 651 q 644 353 644 514 l 644 297 m 347 539 q 314 533 324 539 q 301 503 304 526 q 297 421 297 479 l 400 421 q 397 503 400 481 q 383 533 393 526 q 347 539 374 539 m 551 1032 q 535 924 551 967 q 474 856 519 881 q 342 832 428 832 q 211 856 257 832 q 149 924 165 881 q 133 1032 133 967 l 276 1032 q 287 981 276 997 q 342 965 297 965 q 388 974 374 965 q 405 995 401 982 q 408 1032 408 1008 l 551 1032 z "},"ě":{"ha":686,"x_min":38,"x_max":644,"o":"m 644 297 l 297 297 q 305 216 297 238 q 338 189 313 194 q 433 183 363 183 q 622 192 489 183 l 622 14 q 513 -4 583 3 q 371 -11 442 -11 q 144 26 215 -11 q 56 134 74 63 q 38 353 38 206 q 56 573 38 500 q 139 683 74 646 q 347 719 204 719 q 555 685 493 719 q 631 583 617 651 q 644 353 644 514 l 644 297 m 347 539 q 314 533 324 539 q 301 503 304 526 q 297 421 297 479 l 400 421 q 397 503 400 481 q 383 533 393 526 q 347 539 374 539 m 222 838 l 108 1021 l 108 1032 l 278 1032 l 344 939 l 407 1032 l 576 1032 l 576 1021 l 461 838 l 222 838 z "},"ê":{"ha":686,"x_min":38,"x_max":644,"o":"m 644 297 l 297 297 q 305 216 297 238 q 338 189 313 194 q 433 183 363 183 q 622 192 489 183 l 622 14 q 513 -4 583 3 q 371 -11 442 -11 q 144 26 215 -11 q 56 134 74 63 q 38 353 38 206 q 56 573 38 500 q 139 683 74 646 q 347 719 204 719 q 555 685 493 719 q 631 583 617 651 q 644 353 644 514 l 644 297 m 347 539 q 314 533 324 539 q 301 503 304 526 q 297 421 297 479 l 400 421 q 397 503 400 481 q 383 533 393 526 q 347 539 374 539 m 122 838 l 122 850 l 236 1032 l 475 1032 l 590 850 l 590 838 l 421 838 l 356 931 l 292 838 l 122 838 z "},"ế":{"ha":686,"x_min":38,"x_max":697,"o":"m 644 297 l 297 297 q 305 216 297 238 q 338 189 313 194 q 433 183 363 183 q 622 192 489 183 l 622 14 q 513 -4 583 3 q 371 -11 442 -11 q 144 26 215 -11 q 56 134 74 63 q 38 353 38 206 q 56 573 38 500 q 139 683 74 646 q 347 719 204 719 q 555 685 493 719 q 631 583 617 651 q 644 353 644 514 l 644 297 m 347 539 q 314 533 324 539 q 301 503 304 526 q 297 421 297 479 l 400 421 q 397 503 400 481 q 383 533 393 526 q 347 539 374 539 m 108 838 l 108 850 l 222 1032 l 461 1032 l 576 850 l 576 838 l 407 838 l 342 931 l 278 838 l 108 838 m 354 1067 l 354 1074 l 451 1272 l 697 1272 l 697 1265 l 546 1067 l 354 1067 z "},"ệ":{"ha":686,"x_min":38,"x_max":644,"o":"m 644 297 l 297 297 q 305 216 297 238 q 338 189 313 194 q 433 183 363 183 q 622 192 489 183 l 622 14 q 513 -4 583 3 q 371 -11 442 -11 q 144 26 215 -11 q 56 134 74 63 q 38 353 38 206 q 56 573 38 500 q 139 683 74 646 q 347 719 204 719 q 555 685 493 719 q 631 583 617 651 q 644 353 644 514 l 644 297 m 347 539 q 314 533 324 539 q 301 503 304 526 q 297 421 297 479 l 400 421 q 397 503 400 481 q 383 533 393 526 q 347 539 374 539 m 206 -311 l 206 -86 l 479 -86 l 479 -311 l 206 -311 m 108 838 l 108 850 l 222 1032 l 461 1032 l 576 850 l 576 838 l 407 838 l 342 931 l 278 838 l 108 838 z "},"ề":{"ha":686,"x_min":38,"x_max":644,"o":"m 644 297 l 297 297 q 305 216 297 238 q 338 189 313 194 q 433 183 363 183 q 622 192 489 183 l 622 14 q 513 -4 583 3 q 371 -11 442 -11 q 144 26 215 -11 q 56 134 74 63 q 38 353 38 206 q 56 573 38 500 q 139 683 74 646 q 347 719 204 719 q 555 685 493 719 q 631 583 617 651 q 644 353 644 514 l 644 297 m 347 539 q 314 533 324 539 q 301 503 304 526 q 297 421 297 479 l 400 421 q 397 503 400 481 q 383 533 393 526 q 347 539 374 539 m 92 838 l 92 850 l 206 1032 l 444 1032 l 560 850 l 560 838 l 390 838 l 325 931 l 261 838 l 92 838 m 400 1067 l 249 1265 l 249 1272 l 496 1272 l 592 1074 l 592 1067 l 400 1067 z "},"ể":{"ha":686,"x_min":38,"x_max":718,"o":"m 644 297 l 297 297 q 305 216 297 238 q 338 189 313 194 q 433 183 363 183 q 622 192 489 183 l 622 14 q 513 -4 583 3 q 371 -11 442 -11 q 144 26 215 -11 q 56 134 74 63 q 38 353 38 206 q 56 573 38 500 q 139 683 74 646 q 347 719 204 719 q 555 685 493 719 q 631 583 617 651 q 644 353 644 514 l 644 297 m 347 539 q 314 533 324 539 q 301 503 304 526 q 297 421 297 479 l 400 421 q 397 503 400 481 q 383 533 393 526 q 347 539 374 539 m 108 838 l 108 850 l 222 1032 l 461 1032 l 576 850 l 576 838 l 407 838 l 342 931 l 278 838 l 108 838 m 419 1076 q 431 1140 419 1122 q 482 1168 443 1158 l 500 1174 q 540 1189 531 1182 q 549 1210 549 1196 q 536 1234 549 1229 q 483 1239 524 1239 q 339 1233 414 1239 l 339 1354 q 521 1372 432 1372 q 626 1364 585 1372 q 692 1326 667 1356 q 718 1233 718 1296 q 708 1169 718 1192 q 678 1135 697 1147 q 622 1110 660 1122 l 608 1106 q 569 1087 578 1094 q 561 1061 561 1079 l 419 1061 l 419 1076 z "},"ễ":{"ha":686,"x_min":38,"x_max":644,"o":"m 644 297 l 297 297 q 305 216 297 238 q 338 189 313 194 q 433 183 363 183 q 622 192 489 183 l 622 14 q 513 -4 583 3 q 371 -11 442 -11 q 144 26 215 -11 q 56 134 74 63 q 38 353 38 206 q 56 573 38 500 q 139 683 74 646 q 347 719 204 719 q 555 685 493 719 q 631 583 617 651 q 644 353 644 514 l 644 297 m 347 539 q 314 533 324 539 q 301 503 304 526 q 297 421 297 479 l 400 421 q 397 503 400 481 q 383 533 393 526 q 347 539 374 539 m 106 838 l 106 850 l 219 1032 l 458 1032 l 574 850 l 574 838 l 404 838 l 339 931 l 275 838 l 106 838 m 599 1272 q 592 1152 599 1192 q 558 1089 586 1113 q 468 1065 531 1065 q 325 1086 414 1065 l 292 1092 q 244 1099 260 1099 q 222 1089 226 1099 q 218 1049 218 1079 l 86 1049 q 92 1168 86 1128 q 127 1232 99 1208 q 217 1256 156 1256 q 361 1235 272 1256 q 440 1222 421 1222 q 463 1232 458 1222 q 467 1272 467 1242 l 599 1272 z "},"ȅ":{"ha":686,"x_min":38,"x_max":644,"o":"m 644 297 l 297 297 q 305 216 297 238 q 338 189 313 194 q 433 183 363 183 q 622 192 489 183 l 622 14 q 513 -4 583 3 q 371 -11 442 -11 q 144 26 215 -11 q 56 134 74 63 q 38 353 38 206 q 56 573 38 500 q 139 683 74 646 q 347 719 204 719 q 555 685 493 719 q 631 583 617 651 q 644 353 644 514 l 644 297 m 347 539 q 314 533 324 539 q 301 503 304 526 q 297 421 297 479 l 400 421 q 397 503 400 481 q 383 533 393 526 q 347 539 374 539 m 313 849 l 156 849 l 38 1007 l 38 1013 l 236 1013 l 313 854 l 313 849 m 549 849 l 393 849 l 274 1007 l 274 1013 l 474 1013 l 549 854 l 549 849 z "},"ë":{"ha":686,"x_min":38,"x_max":644,"o":"m 644 297 l 297 297 q 305 216 297 238 q 338 189 313 194 q 433 183 363 183 q 622 192 489 183 l 622 14 q 513 -4 583 3 q 371 -11 442 -11 q 144 26 215 -11 q 56 134 74 63 q 38 353 38 206 q 56 573 38 500 q 139 683 74 646 q 347 719 204 719 q 555 685 493 719 q 631 583 617 651 q 644 353 644 514 l 644 297 m 347 539 q 314 533 324 539 q 301 503 304 526 q 297 421 297 479 l 400 421 q 397 503 400 481 q 383 533 393 526 q 347 539 374 539 m 113 849 l 113 1014 l 321 1014 l 321 849 l 113 849 m 389 849 l 389 1014 l 599 1014 l 599 849 l 389 849 z "},"ė":{"ha":686,"x_min":38,"x_max":644,"o":"m 644 297 l 297 297 q 305 216 297 238 q 338 189 313 194 q 433 183 363 183 q 622 192 489 183 l 622 14 q 513 -4 583 3 q 371 -11 442 -11 q 144 26 215 -11 q 56 134 74 63 q 38 353 38 206 q 56 573 38 500 q 139 683 74 646 q 347 719 204 719 q 555 685 493 719 q 631 583 617 651 q 644 353 644 514 l 644 297 m 347 539 q 314 533 324 539 q 301 503 304 526 q 297 421 297 479 l 400 421 q 397 503 400 481 q 383 533 393 526 q 347 539 374 539 m 238 849 l 238 1014 l 447 1014 l 447 849 l 238 849 z "},"ẹ":{"ha":686,"x_min":38,"x_max":644,"o":"m 644 297 l 297 297 q 305 216 297 238 q 338 189 313 194 q 433 183 363 183 q 622 192 489 183 l 622 14 q 513 -4 583 3 q 371 -11 442 -11 q 144 26 215 -11 q 56 134 74 63 q 38 353 38 206 q 56 573 38 500 q 139 683 74 646 q 347 719 204 719 q 555 685 493 719 q 631 583 617 651 q 644 353 644 514 l 644 297 m 347 539 q 314 533 324 539 q 301 503 304 526 q 297 421 297 479 l 400 421 q 397 503 400 481 q 383 533 393 526 q 347 539 374 539 m 206 -311 l 206 -86 l 479 -86 l 479 -311 l 206 -311 z "},"è":{"ha":686,"x_min":38,"x_max":644,"o":"m 644 297 l 297 297 q 305 216 297 238 q 338 189 313 194 q 433 183 363 183 q 622 192 489 183 l 622 14 q 513 -4 583 3 q 371 -11 442 -11 q 144 26 215 -11 q 56 134 74 63 q 38 353 38 206 q 56 573 38 500 q 139 683 74 646 q 347 719 204 719 q 555 685 493 719 q 631 583 617 651 q 644 353 644 514 l 644 297 m 347 539 q 314 533 324 539 q 301 503 304 526 q 297 421 297 479 l 400 421 q 397 503 400 481 q 383 533 393 526 q 347 539 374 539 m 265 826 l 114 1025 l 114 1032 l 361 1032 l 457 833 l 457 826 l 265 826 z "},"ẻ":{"ha":686,"x_min":38,"x_max":644,"o":"m 644 297 l 297 297 q 305 216 297 238 q 338 189 313 194 q 433 183 363 183 q 622 192 489 183 l 622 14 q 513 -4 583 3 q 371 -11 442 -11 q 144 26 215 -11 q 56 134 74 63 q 38 353 38 206 q 56 573 38 500 q 139 683 74 646 q 347 719 204 719 q 555 685 493 719 q 631 583 617 651 q 644 353 644 514 l 644 297 m 347 539 q 314 533 324 539 q 301 503 304 526 q 297 421 297 479 l 400 421 q 397 503 400 481 q 383 533 393 526 q 347 539 374 539 m 235 865 q 247 929 235 911 q 297 957 258 947 l 315 963 q 355 978 346 971 q 364 999 364 985 q 351 1023 364 1018 q 299 1028 339 1028 q 154 1022 229 1028 l 154 1143 q 336 1161 247 1161 q 441 1153 400 1161 q 508 1115 482 1144 q 533 1022 533 1085 q 523 958 533 981 q 494 924 513 936 q 438 899 475 911 l 424 894 q 385 876 393 883 q 376 850 376 868 l 235 850 l 235 865 z "},"ȇ":{"ha":686,"x_min":38,"x_max":644,"o":"m 644 297 l 297 297 q 305 216 297 238 q 338 189 313 194 q 433 183 363 183 q 622 192 489 183 l 622 14 q 513 -4 583 3 q 371 -11 442 -11 q 144 26 215 -11 q 56 134 74 63 q 38 353 38 206 q 56 573 38 500 q 139 683 74 646 q 347 719 204 719 q 555 685 493 719 q 631 583 617 651 q 644 353 644 514 l 644 297 m 347 539 q 314 533 324 539 q 301 503 304 526 q 297 421 297 479 l 400 421 q 397 503 400 481 q 383 533 393 526 q 347 539 374 539 m 133 839 q 149 947 133 904 q 211 1015 165 990 q 343 1039 257 1039 q 474 1015 428 1039 q 535 947 519 990 q 551 839 551 904 l 408 839 q 398 890 408 874 q 343 906 388 906 q 297 897 311 906 q 280 876 283 889 q 276 839 276 863 l 133 839 z "},"ē":{"ha":686,"x_min":38,"x_max":644,"o":"m 644 297 l 297 297 q 305 216 297 238 q 338 189 313 194 q 433 183 363 183 q 622 192 489 183 l 622 14 q 513 -4 583 3 q 371 -11 442 -11 q 144 26 215 -11 q 56 134 74 63 q 38 353 38 206 q 56 573 38 500 q 139 683 74 646 q 347 719 204 719 q 555 685 493 719 q 631 583 617 651 q 644 353 644 514 l 644 297 m 347 539 q 314 533 324 539 q 301 503 304 526 q 297 421 297 479 l 400 421 q 397 503 400 481 q 383 533 393 526 q 347 539 374 539 m 165 825 l 165 1032 l 522 1032 l 522 825 l 165 825 z "},"ę":{"ha":686,"x_min":38,"x_max":644,"o":"m 644 297 l 297 297 q 305 216 297 238 q 338 189 313 194 q 433 183 363 183 q 622 192 489 183 l 622 14 q 543 -37 579 -6 q 507 -104 507 -68 q 565 -147 507 -147 l 586 -146 l 586 -267 q 483 -272 531 -272 q 344 -238 386 -272 q 301 -153 301 -204 q 386 -11 301 -79 l 371 -11 q 144 26 215 -11 q 56 134 74 63 q 38 353 38 206 q 56 573 38 500 q 139 683 74 646 q 347 719 204 719 q 555 685 493 719 q 631 583 617 651 q 644 353 644 514 l 644 297 m 347 539 q 314 533 324 539 q 301 503 304 526 q 297 421 297 479 l 400 421 q 397 503 400 481 q 383 533 393 526 q 347 539 374 539 z "},"ẽ":{"ha":686,"x_min":38,"x_max":644,"o":"m 644 297 l 297 297 q 305 216 297 238 q 338 189 313 194 q 433 183 363 183 q 622 192 489 183 l 622 14 q 513 -4 583 3 q 371 -11 442 -11 q 144 26 215 -11 q 56 134 74 63 q 38 353 38 206 q 56 573 38 500 q 139 683 74 646 q 347 719 204 719 q 555 685 493 719 q 631 583 617 651 q 644 353 644 514 l 644 297 m 347 539 q 314 533 324 539 q 301 503 304 526 q 297 421 297 479 l 400 421 q 397 503 400 481 q 383 533 393 526 q 347 539 374 539 m 599 1032 q 592 912 599 951 q 558 849 586 872 q 468 825 531 825 q 325 846 414 825 l 292 851 q 244 858 260 858 q 222 849 226 858 q 218 808 218 839 l 86 808 q 92 928 86 888 q 127 992 99 968 q 217 1015 156 1015 q 361 994 272 1015 q 440 982 421 982 q 463 992 458 982 q 467 1032 467 1001 l 599 1032 z "},"ə":{"ha":686,"x_min":42,"x_max":649,"o":"m 315 719 q 542 683 471 719 q 631 574 613 646 q 649 356 649 503 q 631 135 649 208 q 547 26 613 63 q 339 -11 482 -11 q 131 23 193 -11 q 56 126 69 57 q 42 356 42 194 l 42 411 l 389 411 q 381 492 389 471 q 349 519 374 514 q 253 525 324 525 q 64 517 197 525 l 64 694 q 174 713 103 706 q 315 719 244 719 m 339 169 q 372 176 363 169 q 385 206 382 182 q 389 288 389 229 l 286 288 q 290 205 286 228 q 303 176 293 182 q 339 169 313 169 z "},"f":{"ha":551,"x_min":21,"x_max":521,"o":"m 119 514 l 21 514 l 21 708 l 119 708 l 119 724 q 148 938 119 876 q 252 1015 176 999 q 521 1031 328 1031 l 521 856 q 426 851 451 856 q 394 828 401 846 q 386 764 386 811 l 386 708 l 521 708 l 521 514 l 386 514 l 386 0 l 119 0 l 119 514 z "},"g":{"ha":721,"x_min":38,"x_max":665,"o":"m 331 -286 q 201 -281 268 -286 q 94 -268 135 -276 l 94 -92 l 261 -92 q 363 -85 336 -92 q 395 -58 389 -79 q 401 25 401 -37 l 401 93 l 388 93 q 324 29 363 47 q 232 11 286 11 q 118 43 160 11 q 57 151 76 75 q 38 367 38 228 q 57 583 38 507 q 117 690 76 660 q 229 719 158 719 q 390 629 350 719 l 404 629 l 410 708 l 665 708 l 665 76 q 647 -135 665 -64 q 557 -247 628 -207 q 331 -286 486 -286 m 351 222 q 385 228 376 222 q 397 257 394 235 q 401 365 401 279 q 399 467 401 446 q 386 500 396 493 q 351 507 376 507 q 315 501 324 507 q 303 469 306 494 q 301 365 301 443 q 303 262 301 288 q 315 229 306 236 q 351 222 324 222 z "},"ǵ":{"ha":721,"x_min":38,"x_max":665,"o":"m 331 -286 q 201 -281 268 -286 q 94 -268 135 -276 l 94 -92 l 261 -92 q 363 -85 336 -92 q 395 -58 389 -79 q 401 25 401 -37 l 401 93 l 388 93 q 324 29 363 47 q 232 11 286 11 q 118 43 160 11 q 57 151 76 75 q 38 367 38 228 q 57 583 38 507 q 117 690 76 660 q 229 719 158 719 q 390 629 350 719 l 404 629 l 410 708 l 665 708 l 665 76 q 647 -135 665 -64 q 557 -247 628 -207 q 331 -286 486 -286 m 351 222 q 385 228 376 222 q 397 257 394 235 q 401 365 401 279 q 399 467 401 446 q 386 500 396 493 q 351 507 376 507 q 315 501 324 507 q 303 469 306 494 q 301 365 301 443 q 303 262 301 288 q 315 229 306 236 q 351 222 324 222 m 264 826 l 264 833 l 361 1032 l 607 1032 l 607 1025 l 456 826 l 264 826 z "},"ğ":{"ha":721,"x_min":38,"x_max":665,"o":"m 331 -286 q 201 -281 268 -286 q 94 -268 135 -276 l 94 -92 l 261 -92 q 363 -85 336 -92 q 395 -58 389 -79 q 401 25 401 -37 l 401 93 l 388 93 q 324 29 363 47 q 232 11 286 11 q 118 43 160 11 q 57 151 76 75 q 38 367 38 228 q 57 583 38 507 q 117 690 76 660 q 229 719 158 719 q 390 629 350 719 l 404 629 l 410 708 l 665 708 l 665 76 q 647 -135 665 -64 q 557 -247 628 -207 q 331 -286 486 -286 m 351 222 q 385 228 376 222 q 397 257 394 235 q 401 365 401 279 q 399 467 401 446 q 386 500 396 493 q 351 507 376 507 q 315 501 324 507 q 303 469 306 494 q 301 365 301 443 q 303 262 301 288 q 315 229 306 236 q 351 222 324 222 m 568 1032 q 552 924 568 967 q 490 856 536 881 q 358 832 444 832 q 228 856 274 832 q 166 924 182 881 q 150 1032 150 967 l 293 1032 q 303 981 293 997 q 358 965 314 965 q 404 974 390 965 q 422 995 418 982 q 425 1032 425 1008 l 568 1032 z "},"ǧ":{"ha":721,"x_min":38,"x_max":665,"o":"m 331 -286 q 201 -281 268 -286 q 94 -268 135 -276 l 94 -92 l 261 -92 q 363 -85 336 -92 q 395 -58 389 -79 q 401 25 401 -37 l 401 93 l 388 93 q 324 29 363 47 q 232 11 286 11 q 118 43 160 11 q 57 151 76 75 q 38 367 38 228 q 57 583 38 507 q 117 690 76 660 q 229 719 158 719 q 390 629 350 719 l 404 629 l 410 708 l 665 708 l 665 76 q 647 -135 665 -64 q 557 -247 628 -207 q 331 -286 486 -286 m 351 222 q 385 228 376 222 q 397 257 394 235 q 401 365 401 279 q 399 467 401 446 q 386 500 396 493 q 351 507 376 507 q 315 501 324 507 q 303 469 306 494 q 301 365 301 443 q 303 262 301 288 q 315 229 306 236 q 351 222 324 222 m 239 838 l 125 1021 l 125 1032 l 294 1032 l 361 939 l 424 1032 l 593 1032 l 593 1021 l 478 838 l 239 838 z "},"ĝ":{"ha":721,"x_min":38,"x_max":665,"o":"m 331 -286 q 201 -281 268 -286 q 94 -268 135 -276 l 94 -92 l 261 -92 q 363 -85 336 -92 q 395 -58 389 -79 q 401 25 401 -37 l 401 93 l 388 93 q 324 29 363 47 q 232 11 286 11 q 118 43 160 11 q 57 151 76 75 q 38 367 38 228 q 57 583 38 507 q 117 690 76 660 q 229 719 158 719 q 390 629 350 719 l 404 629 l 410 708 l 665 708 l 665 76 q 647 -135 665 -64 q 557 -247 628 -207 q 331 -286 486 -286 m 351 222 q 385 228 376 222 q 397 257 394 235 q 401 365 401 279 q 399 467 401 446 q 386 500 396 493 q 351 507 376 507 q 315 501 324 507 q 303 469 306 494 q 301 365 301 443 q 303 262 301 288 q 315 229 306 236 q 351 222 324 222 m 125 838 l 125 850 l 239 1032 l 478 1032 l 593 850 l 593 838 l 424 838 l 358 931 l 294 838 l 125 838 z "},"ģ":{"ha":721,"x_min":38,"x_max":665,"o":"m 331 -286 q 201 -281 268 -286 q 94 -268 135 -276 l 94 -92 l 261 -92 q 363 -85 336 -92 q 395 -58 389 -79 q 401 25 401 -37 l 401 93 l 388 93 q 324 29 363 47 q 232 11 286 11 q 118 43 160 11 q 57 151 76 75 q 38 367 38 228 q 57 583 38 507 q 117 690 76 660 q 229 719 158 719 q 390 629 350 719 l 404 629 l 410 708 l 665 708 l 665 76 q 647 -135 665 -64 q 557 -247 628 -207 q 331 -286 486 -286 m 351 222 q 385 228 376 222 q 397 257 394 235 q 401 365 401 279 q 399 467 401 446 q 386 500 396 493 q 351 507 376 507 q 315 501 324 507 q 303 469 306 494 q 301 365 301 443 q 303 262 301 288 q 315 229 306 236 q 351 222 324 222 m 485 1051 q 413 1040 429 1051 q 397 997 397 1029 l 397 985 l 488 985 l 488 828 l 231 828 l 231 925 q 247 1063 231 1018 q 317 1128 264 1108 q 485 1147 371 1147 l 485 1051 z "},"ġ":{"ha":721,"x_min":38,"x_max":665,"o":"m 331 -286 q 201 -281 268 -286 q 94 -268 135 -276 l 94 -92 l 261 -92 q 363 -85 336 -92 q 395 -58 389 -79 q 401 25 401 -37 l 401 93 l 388 93 q 324 29 363 47 q 232 11 286 11 q 118 43 160 11 q 57 151 76 75 q 38 367 38 228 q 57 583 38 507 q 117 690 76 660 q 229 719 158 719 q 390 629 350 719 l 404 629 l 410 708 l 665 708 l 665 76 q 647 -135 665 -64 q 557 -247 628 -207 q 331 -286 486 -286 m 351 222 q 385 228 376 222 q 397 257 394 235 q 401 365 401 279 q 399 467 401 446 q 386 500 396 493 q 351 507 376 507 q 315 501 324 507 q 303 469 306 494 q 301 365 301 443 q 303 262 301 288 q 315 229 306 236 q 351 222 324 222 m 254 849 l 254 1014 l 464 1014 l 464 849 l 254 849 z "},"h":{"ha":725,"x_min":54,"x_max":671,"o":"m 407 376 q 405 469 407 446 q 395 499 403 493 q 364 506 388 506 q 331 499 339 506 q 320 466 322 492 q 318 365 318 440 l 318 0 l 54 0 l 54 1032 l 318 1032 l 318 629 l 332 629 q 496 719 379 719 q 610 691 572 719 q 659 608 647 663 q 671 456 671 553 l 671 0 l 407 0 l 407 376 z "},"ħ":{"ha":725,"x_min":-8,"x_max":671,"o":"m 496 719 q 610 691 572 719 q 659 608 647 663 q 671 456 671 553 l 671 0 l 407 0 l 407 376 q 405 469 407 446 q 395 499 403 493 q 364 506 388 506 q 331 499 339 506 q 320 466 322 492 q 318 365 318 440 l 318 0 l 54 0 l 54 772 l -8 772 l -8 956 l 54 956 l 54 1032 l 318 1032 l 318 956 l 464 956 l 464 772 l 318 772 l 318 629 l 332 629 q 496 719 379 719 z "},"ĥ":{"ha":725,"x_min":-49,"x_max":671,"o":"m 407 376 q 405 469 407 446 q 395 499 403 493 q 364 506 388 506 q 331 499 339 506 q 320 466 322 492 q 318 365 318 440 l 318 0 l 54 0 l 54 1032 l 318 1032 l 318 629 l 332 629 q 496 719 379 719 q 610 691 572 719 q 659 608 647 663 q 671 456 671 553 l 671 0 l 407 0 l 407 376 m -49 1085 l -49 1097 l 65 1279 l 304 1279 l 419 1097 l 419 1085 l 250 1085 l 185 1178 l 121 1085 l -49 1085 z "},"ḥ":{"ha":725,"x_min":54,"x_max":671,"o":"m 407 376 q 405 469 407 446 q 395 499 403 493 q 364 506 388 506 q 331 499 339 506 q 320 466 322 492 q 318 365 318 440 l 318 0 l 54 0 l 54 1032 l 318 1032 l 318 629 l 332 629 q 496 719 379 719 q 610 691 572 719 q 659 608 647 663 q 671 456 671 553 l 671 0 l 407 0 l 407 376 m 225 -311 l 225 -86 l 499 -86 l 499 -311 l 225 -311 z "},"i":{"ha":378,"x_min":54,"x_max":322,"o":"m 54 831 l 54 1032 l 322 1032 l 322 831 l 54 831 m 54 0 l 54 708 l 322 708 l 322 0 l 54 0 z "},"ı":{"ha":378,"x_min":54,"x_max":322,"o":"m 54 0 l 54 708 l 322 708 l 322 0 l 54 0 z "},"í":{"ha":378,"x_min":54,"x_max":397,"o":"m 54 0 l 54 708 l 322 708 l 322 0 l 54 0 m 54 826 l 54 833 l 151 1032 l 397 1032 l 397 1025 l 246 826 l 54 826 z "},"ĭ":{"ha":378,"x_min":-21,"x_max":397,"o":"m 54 0 l 54 708 l 322 708 l 322 0 l 54 0 m 397 1032 q 381 924 397 967 q 319 856 365 881 q 188 832 274 832 q 57 856 103 832 q -5 924 11 881 q -21 1032 -21 967 l 122 1032 q 133 981 122 997 q 188 965 143 965 q 233 974 219 965 q 251 995 247 982 q 254 1032 254 1008 l 397 1032 z "},"ǐ":{"ha":378,"x_min":-46,"x_max":422,"o":"m 54 0 l 54 708 l 322 708 l 322 0 l 54 0 m 68 838 l -46 1021 l -46 1032 l 124 1032 l 190 939 l 253 1032 l 422 1032 l 422 1021 l 307 838 l 68 838 z "},"î":{"ha":378,"x_min":-46,"x_max":422,"o":"m 54 0 l 54 708 l 322 708 l 322 0 l 54 0 m -46 838 l -46 850 l 68 1032 l 307 1032 l 422 850 l 422 838 l 253 838 l 188 931 l 124 838 l -46 838 z "},"ȉ":{"ha":378,"x_min":-117,"x_max":394,"o":"m 54 0 l 54 708 l 322 708 l 322 0 l 54 0 m 158 849 l 1 849 l -117 1007 l -117 1013 l 82 1013 l 158 854 l 158 849 m 394 849 l 239 849 l 119 1007 l 119 1013 l 319 1013 l 394 854 l 394 849 z "},"ï":{"ha":378,"x_min":-54,"x_max":432,"o":"m 54 0 l 54 708 l 322 708 l 322 0 l 54 0 m -54 849 l -54 1014 l 154 1014 l 154 849 l -54 849 m 222 849 l 222 1014 l 432 1014 l 432 849 l 222 849 z "},"ị":{"ha":378,"x_min":54,"x_max":353,"o":"m 54 831 l 54 1032 l 322 1032 l 322 831 l 54 831 m 54 0 l 54 708 l 322 708 l 322 0 l 54 0 m 79 -311 l 79 -86 l 353 -86 l 353 -311 l 79 -311 z "},"ì":{"ha":378,"x_min":-22,"x_max":322,"o":"m 54 0 l 54 708 l 322 708 l 322 0 l 54 0 m 129 826 l -22 1025 l -22 1032 l 225 1032 l 321 833 l 321 826 l 129 826 z "},"ỉ":{"ha":378,"x_min":0,"x_max":379,"o":"m 54 0 l 54 708 l 322 708 l 322 0 l 54 0 m 81 865 q 92 929 81 911 q 143 957 104 947 l 161 963 q 201 978 192 971 q 210 999 210 985 q 197 1023 210 1018 q 144 1028 185 1028 q 0 1022 75 1028 l 0 1143 q 182 1161 93 1161 q 287 1153 246 1161 q 353 1115 328 1144 q 379 1022 379 1085 q 369 958 379 981 q 340 924 358 936 q 283 899 321 911 l 269 894 q 231 876 239 883 q 222 850 222 868 l 81 850 l 81 865 z "},"ȋ":{"ha":378,"x_min":-21,"x_max":397,"o":"m 54 0 l 54 708 l 322 708 l 322 0 l 54 0 m -21 839 q -5 947 -21 904 q 57 1015 11 990 q 189 1039 103 1039 q 319 1015 274 1039 q 381 947 365 990 q 397 839 397 904 l 254 839 q 244 890 254 874 q 189 906 233 906 q 143 897 157 906 q 126 876 129 889 q 122 839 122 863 l -21 839 z "},"ĳ":{"ha":756,"x_min":54,"x_max":700,"o":"m 54 831 l 54 1032 l 322 1032 l 322 831 l 54 831 m 54 0 l 54 708 l 322 708 l 322 0 l 54 0 m 432 831 l 432 1032 l 700 1032 l 700 831 l 432 831 m 344 -99 q 404 -92 386 -99 q 427 -71 422 -85 q 432 -28 432 -57 l 432 708 l 700 708 l 700 50 q 673 -169 700 -103 q 576 -256 646 -236 q 344 -276 506 -276 l 344 -99 z "},"ī":{"ha":378,"x_min":11,"x_max":368,"o":"m 54 0 l 54 708 l 322 708 l 322 0 l 54 0 m 11 825 l 11 1032 l 368 1032 l 368 825 l 11 825 z "},"į":{"ha":378,"x_min":39,"x_max":322,"o":"m 293 1014 l 293 849 l 83 849 l 83 1014 l 293 1014 m 322 0 q 266 -43 289 -14 q 243 -103 243 -72 q 301 -147 243 -147 l 322 -146 l 322 -267 q 219 -272 267 -272 q 81 -238 124 -272 q 39 -151 39 -204 q 121 0 39 -75 l 54 0 l 54 708 l 322 708 l 322 0 z "},"ĩ":{"ha":378,"x_min":-68,"x_max":444,"o":"m 54 0 l 54 708 l 322 708 l 322 0 l 54 0 m 444 1032 q 438 912 444 951 q 404 849 432 872 q 314 825 376 825 q 171 846 260 825 l 138 851 q 90 858 106 858 q 68 849 72 858 q 64 808 64 839 l -68 808 q -62 928 -68 888 q -27 992 -56 968 q 63 1015 1 1015 q 207 994 118 1015 q 286 982 267 982 q 308 992 304 982 q 313 1032 313 1001 l 444 1032 z "},"j":{"ha":378,"x_min":-33,"x_max":322,"o":"m 54 831 l 54 1032 l 322 1032 l 322 831 l 54 831 m -33 -99 q 26 -92 8 -99 q 49 -71 44 -85 q 54 -28 54 -57 l 54 708 l 322 708 l 322 50 q 295 -169 322 -103 q 198 -256 268 -236 q -33 -276 128 -276 l -33 -99 z "},"ȷ":{"ha":378,"x_min":-33,"x_max":322,"o":"m -33 -99 q 26 -92 8 -99 q 49 -71 44 -85 q 54 -28 54 -57 l 54 708 l 322 708 l 322 50 q 295 -169 322 -103 q 198 -256 268 -236 q -33 -276 128 -276 l -33 -99 z "},"ĵ":{"ha":378,"x_min":-46,"x_max":422,"o":"m -33 -99 q 26 -92 8 -99 q 49 -71 44 -85 q 54 -28 54 -57 l 54 708 l 322 708 l 322 50 q 295 -169 322 -103 q 198 -256 268 -236 q -33 -276 128 -276 l -33 -99 m -46 838 l -46 850 l 68 1032 l 307 1032 l 422 850 l 422 838 l 253 838 l 188 931 l 124 838 l -46 838 z "},"k":{"ha":732,"x_min":54,"x_max":732,"o":"m 447 0 l 333 253 l 318 253 l 318 0 l 54 0 l 54 1032 l 318 1032 l 318 447 l 333 447 l 457 708 l 729 708 l 553 374 l 732 0 l 447 0 z "},"ķ":{"ha":732,"x_min":54,"x_max":732,"o":"m 447 0 l 333 253 l 318 253 l 318 0 l 54 0 l 54 1032 l 318 1032 l 318 447 l 333 447 l 457 708 l 729 708 l 553 374 l 732 0 l 447 0 m 240 -306 q 312 -294 296 -306 q 328 -250 328 -283 l 328 -239 l 238 -239 l 238 -82 l 494 -82 l 494 -178 q 478 -317 494 -272 q 408 -382 461 -362 q 240 -401 354 -401 l 240 -306 z "},"ĸ":{"ha":732,"x_min":54,"x_max":732,"o":"m 447 0 l 333 253 l 318 253 l 318 0 l 54 0 l 54 708 l 318 708 l 318 447 l 333 447 l 457 708 l 729 708 l 553 374 l 732 0 l 447 0 z "},"l":{"ha":378,"x_min":54,"x_max":322,"o":"m 54 0 l 54 1032 l 322 1032 l 322 0 l 54 0 z "},"ĺ":{"ha":378,"x_min":54,"x_max":436,"o":"m 54 0 l 54 1032 l 322 1032 l 322 0 l 54 0 m 93 1074 l 93 1081 l 190 1279 l 436 1279 l 436 1272 l 285 1074 l 93 1074 z "},"ľ":{"ha":551,"x_min":54,"x_max":614,"o":"m 54 0 l 54 1032 l 322 1032 l 322 0 l 54 0 m 365 585 l 382 893 l 382 956 l 614 956 l 614 893 l 546 585 l 365 585 z "},"ļ":{"ha":378,"x_min":54,"x_max":322,"o":"m 54 0 l 54 1032 l 322 1032 l 322 0 l 54 0 m 63 -306 q 134 -294 118 -306 q 150 -250 150 -283 l 150 -239 l 60 -239 l 60 -82 l 317 -82 l 317 -178 q 300 -317 317 -272 q 230 -382 283 -362 q 63 -401 176 -401 l 63 -306 z "},"ŀ":{"ha":569,"x_min":54,"x_max":582,"o":"m 54 0 l 54 1032 l 322 1032 l 322 0 l 54 0 m 363 303 l 363 528 l 582 528 l 582 303 l 363 303 z "},"ǉ":{"ha":756,"x_min":54,"x_max":700,"o":"m 54 0 l 54 1032 l 322 1032 l 322 0 l 54 0 m 432 831 l 432 1032 l 700 1032 l 700 831 l 432 831 m 344 -99 q 404 -92 386 -99 q 427 -71 422 -85 q 432 -28 432 -57 l 432 708 l 700 708 l 700 50 q 673 -169 700 -103 q 576 -256 646 -236 q 344 -276 506 -276 l 344 -99 z "},"ł":{"ha":411,"x_min":6,"x_max":406,"o":"m 71 0 l 71 382 l 6 360 l 6 550 l 71 572 l 71 1032 l 338 1032 l 338 663 l 406 686 l 406 496 l 338 472 l 338 0 l 71 0 z "},"m":{"ha":1068,"x_min":54,"x_max":1015,"o":"m 751 376 q 749 468 751 443 q 738 499 746 493 q 710 506 731 506 q 678 499 686 506 q 669 467 671 492 q 667 365 667 442 l 667 0 l 403 0 l 403 376 q 401 469 403 444 q 391 499 399 493 q 361 506 383 506 q 330 499 338 506 q 320 466 322 492 q 318 365 318 440 l 318 0 l 54 0 l 54 708 l 310 708 l 315 629 l 329 629 q 496 719 378 719 q 603 698 565 719 q 656 629 640 676 l 669 629 q 838 719 721 719 q 949 691 911 719 q 1001 608 988 663 q 1015 460 1015 553 l 1015 0 l 751 0 l 751 376 z "},"n":{"ha":725,"x_min":54,"x_max":671,"o":"m 407 376 q 405 469 407 446 q 395 499 403 493 q 364 506 388 506 q 331 499 339 506 q 320 466 322 492 q 318 365 318 440 l 318 0 l 54 0 l 54 708 l 310 708 l 315 629 l 329 629 q 494 719 376 719 q 608 691 571 719 q 658 608 646 663 q 671 456 671 553 l 671 0 l 407 0 l 407 376 z "},"ń":{"ha":725,"x_min":54,"x_max":671,"o":"m 407 376 q 405 469 407 446 q 395 499 403 493 q 364 506 388 506 q 331 499 339 506 q 320 466 322 492 q 318 365 318 440 l 318 0 l 54 0 l 54 708 l 310 708 l 315 629 l 329 629 q 494 719 376 719 q 608 691 571 719 q 658 608 646 663 q 671 456 671 553 l 671 0 l 407 0 l 407 376 m 267 826 l 267 833 l 364 1032 l 610 1032 l 610 1025 l 458 826 l 267 826 z "},"ŉ":{"ha":965,"x_min":31,"x_max":911,"o":"m 32 749 q 88 758 69 749 q 113 786 107 767 q 119 844 119 806 l 119 864 l 31 864 l 31 1032 l 286 1032 l 286 917 q 269 752 286 806 q 199 676 253 699 q 32 653 146 653 l 32 749 m 647 376 q 645 469 647 446 q 635 499 643 493 q 604 506 628 506 q 571 499 579 506 q 560 466 563 492 q 558 365 558 440 l 558 0 l 294 0 l 294 708 l 550 708 l 556 629 l 569 629 q 735 719 617 719 q 849 691 811 719 q 899 608 886 663 q 911 456 911 553 l 911 0 l 647 0 l 647 376 z "},"ň":{"ha":725,"x_min":54,"x_max":671,"o":"m 407 376 q 405 469 407 446 q 395 499 403 493 q 364 506 388 506 q 331 499 339 506 q 320 466 322 492 q 318 365 318 440 l 318 0 l 54 0 l 54 708 l 310 708 l 315 629 l 329 629 q 494 719 376 719 q 608 691 571 719 q 658 608 646 663 q 671 456 671 553 l 671 0 l 407 0 l 407 376 m 242 838 l 128 1021 l 128 1032 l 297 1032 l 364 939 l 426 1032 l 596 1032 l 596 1021 l 481 838 l 242 838 z "},"ņ":{"ha":725,"x_min":54,"x_max":671,"o":"m 407 376 q 405 469 407 446 q 395 499 403 493 q 364 506 388 506 q 331 499 339 506 q 320 466 322 492 q 318 365 318 440 l 318 0 l 54 0 l 54 708 l 310 708 l 315 629 l 329 629 q 494 719 376 719 q 608 691 571 719 q 658 608 646 663 q 671 456 671 553 l 671 0 l 407 0 l 407 376 m 236 -306 q 308 -294 292 -306 q 324 -250 324 -283 l 324 -239 l 233 -239 l 233 -82 l 490 -82 l 490 -178 q 474 -317 490 -272 q 403 -382 457 -362 q 236 -401 350 -401 l 236 -306 z "},"ṅ":{"ha":725,"x_min":54,"x_max":671,"o":"m 407 376 q 405 469 407 446 q 395 499 403 493 q 364 506 388 506 q 331 499 339 506 q 320 466 322 492 q 318 365 318 440 l 318 0 l 54 0 l 54 708 l 310 708 l 315 629 l 329 629 q 494 719 376 719 q 608 691 571 719 q 658 608 646 663 q 671 456 671 553 l 671 0 l 407 0 l 407 376 m 257 849 l 257 1014 l 467 1014 l 467 849 l 257 849 z "},"ŋ":{"ha":725,"x_min":54,"x_max":671,"o":"m 494 719 q 608 691 571 719 q 658 608 646 663 q 671 456 671 553 l 671 50 q 644 -169 671 -103 q 549 -256 618 -236 q 319 -276 479 -276 l 319 -99 q 379 -92 361 -99 q 402 -71 397 -85 q 407 -28 407 -57 l 407 376 q 405 469 407 446 q 395 499 403 493 q 364 506 388 506 q 331 499 339 506 q 320 466 322 492 q 318 365 318 440 l 318 0 l 54 0 l 54 708 l 310 708 l 315 629 l 329 629 q 494 719 376 719 z "},"ɲ":{"ha":725,"x_min":-33,"x_max":671,"o":"m -33 -99 q 26 -92 8 -99 q 49 -71 44 -85 q 54 -28 54 -57 l 54 708 l 310 708 l 315 629 l 329 629 q 494 719 376 719 q 608 691 571 719 q 658 608 646 663 q 671 456 671 553 l 671 0 l 407 0 l 407 376 q 405 469 407 446 q 395 499 403 493 q 364 506 388 506 q 331 499 339 506 q 320 466 322 492 q 318 367 318 440 l 318 50 q 292 -169 318 -103 q 196 -256 265 -236 q -33 -276 126 -276 l -33 -99 z "},"ǌ":{"ha":1103,"x_min":54,"x_max":1047,"o":"m 407 376 q 405 469 407 446 q 395 499 403 493 q 364 506 388 506 q 331 499 339 506 q 320 466 322 492 q 318 365 318 440 l 318 0 l 54 0 l 54 708 l 310 708 l 315 629 l 329 629 q 494 719 376 719 q 608 691 571 719 q 658 608 646 663 q 671 456 671 553 l 671 0 l 407 0 l 407 376 m 779 831 l 779 1032 l 1047 1032 l 1047 831 l 779 831 m 692 -99 q 751 -92 733 -99 q 774 -71 769 -85 q 779 -28 779 -57 l 779 708 l 1047 708 l 1047 50 q 1020 -169 1047 -103 q 923 -256 993 -236 q 692 -276 853 -276 l 692 -99 z "},"ñ":{"ha":725,"x_min":54,"x_max":671,"o":"m 407 376 q 405 469 407 446 q 395 499 403 493 q 364 506 388 506 q 331 499 339 506 q 320 466 322 492 q 318 365 318 440 l 318 0 l 54 0 l 54 708 l 310 708 l 315 629 l 329 629 q 494 719 376 719 q 608 691 571 719 q 658 608 646 663 q 671 456 671 553 l 671 0 l 407 0 l 407 376 m 624 1032 q 617 912 624 951 q 583 849 611 872 q 493 825 556 825 q 350 846 439 825 l 317 851 q 269 858 285 858 q 247 849 251 858 q 243 808 243 839 l 111 808 q 117 928 111 888 q 152 992 124 968 q 242 1015 181 1015 q 386 994 297 1015 q 465 982 446 982 q 488 992 483 982 q 492 1032 492 1001 l 624 1032 z "},"o":{"ha":704,"x_min":38,"x_max":665,"o":"m 351 -11 q 138 19 203 -11 q 56 122 74 50 q 38 354 38 193 q 56 587 38 515 q 138 689 74 658 q 351 719 203 719 q 565 689 500 719 q 647 587 629 658 q 665 354 665 515 q 647 122 665 193 q 565 19 629 50 q 351 -11 500 -11 m 351 183 q 388 192 379 183 q 400 233 397 201 q 403 354 403 264 q 400 476 403 444 q 388 516 397 507 q 351 525 379 525 q 315 516 325 525 q 303 476 306 507 q 301 354 301 446 q 303 232 301 263 q 315 192 306 201 q 351 183 325 183 z "},"ó":{"ha":704,"x_min":38,"x_max":665,"o":"m 351 -11 q 138 19 203 -11 q 56 122 74 50 q 38 354 38 193 q 56 587 38 515 q 138 689 74 658 q 351 719 203 719 q 565 689 500 719 q 647 587 629 658 q 665 354 665 515 q 647 122 665 193 q 565 19 629 50 q 351 -11 500 -11 m 351 183 q 388 192 379 183 q 400 233 397 201 q 403 354 403 264 q 400 476 403 444 q 388 516 397 507 q 351 525 379 525 q 315 516 325 525 q 303 476 306 507 q 301 354 301 446 q 303 232 301 263 q 315 192 306 201 q 351 183 325 183 m 242 826 l 242 833 l 339 1032 l 585 1032 l 585 1025 l 433 826 l 242 826 z "},"ŏ":{"ha":704,"x_min":38,"x_max":665,"o":"m 351 -11 q 138 19 203 -11 q 56 122 74 50 q 38 354 38 193 q 56 587 38 515 q 138 689 74 658 q 351 719 203 719 q 565 689 500 719 q 647 587 629 658 q 665 354 665 515 q 647 122 665 193 q 565 19 629 50 q 351 -11 500 -11 m 351 183 q 388 192 379 183 q 400 233 397 201 q 403 354 403 264 q 400 476 403 444 q 388 516 397 507 q 351 525 379 525 q 315 516 325 525 q 303 476 306 507 q 301 354 301 446 q 303 232 301 263 q 315 192 306 201 q 351 183 325 183 m 561 1032 q 545 924 561 967 q 483 856 529 881 q 351 832 438 832 q 221 856 267 832 q 159 924 175 881 q 143 1032 143 967 l 286 1032 q 297 981 286 997 q 351 965 307 965 q 397 974 383 965 q 415 995 411 982 q 418 1032 418 1008 l 561 1032 z "},"ǒ":{"ha":704,"x_min":38,"x_max":665,"o":"m 351 -11 q 138 19 203 -11 q 56 122 74 50 q 38 354 38 193 q 56 587 38 515 q 138 689 74 658 q 351 719 203 719 q 565 689 500 719 q 647 587 629 658 q 665 354 665 515 q 647 122 665 193 q 565 19 629 50 q 351 -11 500 -11 m 351 183 q 388 192 379 183 q 400 233 397 201 q 403 354 403 264 q 400 476 403 444 q 388 516 397 507 q 351 525 379 525 q 315 516 325 525 q 303 476 306 507 q 301 354 301 446 q 303 232 301 263 q 315 192 306 201 q 351 183 325 183 m 232 838 l 118 1021 l 118 1032 l 288 1032 l 354 939 l 417 1032 l 586 1032 l 586 1021 l 471 838 l 232 838 z "},"ô":{"ha":704,"x_min":38,"x_max":665,"o":"m 351 -11 q 138 19 203 -11 q 56 122 74 50 q 38 354 38 193 q 56 587 38 515 q 138 689 74 658 q 351 719 203 719 q 565 689 500 719 q 647 587 629 658 q 665 354 665 515 q 647 122 665 193 q 565 19 629 50 q 351 -11 500 -11 m 351 183 q 388 192 379 183 q 400 233 397 201 q 403 354 403 264 q 400 476 403 444 q 388 516 397 507 q 351 525 379 525 q 315 516 325 525 q 303 476 306 507 q 301 354 301 446 q 303 232 301 263 q 315 192 306 201 q 351 183 325 183 m 121 838 l 121 850 l 235 1032 l 474 1032 l 589 850 l 589 838 l 419 838 l 354 931 l 290 838 l 121 838 z "},"ố":{"ha":704,"x_min":38,"x_max":707,"o":"m 351 -11 q 138 19 203 -11 q 56 122 74 50 q 38 354 38 193 q 56 587 38 515 q 138 689 74 658 q 351 719 203 719 q 565 689 500 719 q 647 587 629 658 q 665 354 665 515 q 647 122 665 193 q 565 19 629 50 q 351 -11 500 -11 m 351 183 q 388 192 379 183 q 400 233 397 201 q 403 354 403 264 q 400 476 403 444 q 388 516 397 507 q 351 525 379 525 q 315 516 325 525 q 303 476 306 507 q 301 354 301 446 q 303 232 301 263 q 315 192 306 201 q 351 183 325 183 m 118 838 l 118 850 l 232 1032 l 471 1032 l 586 850 l 586 838 l 417 838 l 351 931 l 288 838 l 118 838 m 364 1067 l 364 1074 l 461 1272 l 707 1272 l 707 1265 l 556 1067 l 364 1067 z "},"ộ":{"ha":704,"x_min":38,"x_max":665,"o":"m 351 -11 q 138 19 203 -11 q 56 122 74 50 q 38 354 38 193 q 56 587 38 515 q 138 689 74 658 q 351 719 203 719 q 565 689 500 719 q 647 587 629 658 q 665 354 665 515 q 647 122 665 193 q 565 19 629 50 q 351 -11 500 -11 m 351 183 q 388 192 379 183 q 400 233 397 201 q 403 354 403 264 q 400 476 403 444 q 388 516 397 507 q 351 525 379 525 q 315 516 325 525 q 303 476 306 507 q 301 354 301 446 q 303 232 301 263 q 315 192 306 201 q 351 183 325 183 m 215 -311 l 215 -86 l 489 -86 l 489 -311 l 215 -311 m 118 838 l 118 850 l 232 1032 l 471 1032 l 586 850 l 586 838 l 417 838 l 351 931 l 288 838 l 118 838 z "},"ồ":{"ha":704,"x_min":38,"x_max":665,"o":"m 351 -11 q 138 19 203 -11 q 56 122 74 50 q 38 354 38 193 q 56 587 38 515 q 138 689 74 658 q 351 719 203 719 q 565 689 500 719 q 647 587 629 658 q 665 354 665 515 q 647 122 665 193 q 565 19 629 50 q 351 -11 500 -11 m 351 183 q 388 192 379 183 q 400 233 397 201 q 403 354 403 264 q 400 476 403 444 q 388 516 397 507 q 351 525 379 525 q 315 516 325 525 q 303 476 306 507 q 301 354 301 446 q 303 232 301 263 q 315 192 306 201 q 351 183 325 183 m 101 838 l 101 850 l 215 1032 l 454 1032 l 569 850 l 569 838 l 400 838 l 335 931 l 271 838 l 101 838 m 410 1067 l 258 1265 l 258 1272 l 506 1272 l 601 1074 l 601 1067 l 410 1067 z "},"ổ":{"ha":704,"x_min":38,"x_max":728,"o":"m 351 -11 q 138 19 203 -11 q 56 122 74 50 q 38 354 38 193 q 56 587 38 515 q 138 689 74 658 q 351 719 203 719 q 565 689 500 719 q 647 587 629 658 q 665 354 665 515 q 647 122 665 193 q 565 19 629 50 q 351 -11 500 -11 m 351 183 q 388 192 379 183 q 400 233 397 201 q 403 354 403 264 q 400 476 403 444 q 388 516 397 507 q 351 525 379 525 q 315 516 325 525 q 303 476 306 507 q 301 354 301 446 q 303 232 301 263 q 315 192 306 201 q 351 183 325 183 m 118 838 l 118 850 l 232 1032 l 471 1032 l 586 850 l 586 838 l 417 838 l 351 931 l 288 838 l 118 838 m 429 1076 q 441 1140 429 1122 q 492 1168 453 1158 l 510 1174 q 549 1189 540 1182 q 558 1210 558 1196 q 546 1234 558 1229 q 493 1239 533 1239 q 349 1233 424 1239 l 349 1354 q 531 1372 442 1372 q 635 1364 594 1372 q 702 1326 676 1356 q 728 1233 728 1296 q 717 1169 728 1192 q 688 1135 707 1147 q 632 1110 669 1122 l 618 1106 q 579 1087 588 1094 q 571 1061 571 1079 l 429 1061 l 429 1076 z "},"ỗ":{"ha":704,"x_min":38,"x_max":665,"o":"m 351 -11 q 138 19 203 -11 q 56 122 74 50 q 38 354 38 193 q 56 587 38 515 q 138 689 74 658 q 351 719 203 719 q 565 689 500 719 q 647 587 629 658 q 665 354 665 515 q 647 122 665 193 q 565 19 629 50 q 351 -11 500 -11 m 351 183 q 388 192 379 183 q 400 233 397 201 q 403 354 403 264 q 400 476 403 444 q 388 516 397 507 q 351 525 379 525 q 315 516 325 525 q 303 476 306 507 q 301 354 301 446 q 303 232 301 263 q 315 192 306 201 q 351 183 325 183 m 115 838 l 115 850 l 229 1032 l 468 1032 l 583 850 l 583 838 l 414 838 l 349 931 l 285 838 l 115 838 m 608 1272 q 602 1152 608 1192 q 568 1089 596 1113 q 478 1065 540 1065 q 335 1086 424 1065 l 301 1092 q 254 1099 269 1099 q 232 1089 236 1099 q 228 1049 228 1079 l 96 1049 q 102 1168 96 1128 q 137 1232 108 1208 q 226 1256 165 1256 q 371 1235 282 1256 q 450 1222 431 1222 q 472 1232 468 1222 q 476 1272 476 1242 l 608 1272 z "},"ȍ":{"ha":704,"x_min":38,"x_max":665,"o":"m 351 -11 q 138 19 203 -11 q 56 122 74 50 q 38 354 38 193 q 56 587 38 515 q 138 689 74 658 q 351 719 203 719 q 565 689 500 719 q 647 587 629 658 q 665 354 665 515 q 647 122 665 193 q 565 19 629 50 q 351 -11 500 -11 m 351 183 q 388 192 379 183 q 400 233 397 201 q 403 354 403 264 q 400 476 403 444 q 388 516 397 507 q 351 525 379 525 q 315 516 325 525 q 303 476 306 507 q 301 354 301 446 q 303 232 301 263 q 315 192 306 201 q 351 183 325 183 m 322 849 l 165 849 l 47 1007 l 47 1013 l 246 1013 l 322 854 l 322 849 m 558 849 l 403 849 l 283 1007 l 283 1013 l 483 1013 l 558 854 l 558 849 z "},"ö":{"ha":704,"x_min":38,"x_max":665,"o":"m 351 -11 q 138 19 203 -11 q 56 122 74 50 q 38 354 38 193 q 56 587 38 515 q 138 689 74 658 q 351 719 203 719 q 565 689 500 719 q 647 587 629 658 q 665 354 665 515 q 647 122 665 193 q 565 19 629 50 q 351 -11 500 -11 m 351 183 q 388 192 379 183 q 400 233 397 201 q 403 354 403 264 q 400 476 403 444 q 388 516 397 507 q 351 525 379 525 q 315 516 325 525 q 303 476 306 507 q 301 354 301 446 q 303 232 301 263 q 315 192 306 201 q 351 183 325 183 m 113 849 l 113 1014 l 321 1014 l 321 849 l 113 849 m 389 849 l 389 1014 l 599 1014 l 599 849 l 389 849 z "},"ọ":{"ha":704,"x_min":38,"x_max":665,"o":"m 351 -11 q 138 19 203 -11 q 56 122 74 50 q 38 354 38 193 q 56 587 38 515 q 138 689 74 658 q 351 719 203 719 q 565 689 500 719 q 647 587 629 658 q 665 354 665 515 q 647 122 665 193 q 565 19 629 50 q 351 -11 500 -11 m 351 183 q 388 192 379 183 q 400 233 397 201 q 403 354 403 264 q 400 476 403 444 q 388 516 397 507 q 351 525 379 525 q 315 516 325 525 q 303 476 306 507 q 301 354 301 446 q 303 232 301 263 q 315 192 306 201 q 351 183 325 183 m 215 -311 l 215 -86 l 489 -86 l 489 -311 l 215 -311 z "},"ò":{"ha":704,"x_min":38,"x_max":665,"o":"m 351 -11 q 138 19 203 -11 q 56 122 74 50 q 38 354 38 193 q 56 587 38 515 q 138 689 74 658 q 351 719 203 719 q 565 689 500 719 q 647 587 629 658 q 665 354 665 515 q 647 122 665 193 q 565 19 629 50 q 351 -11 500 -11 m 351 183 q 388 192 379 183 q 400 233 397 201 q 403 354 403 264 q 400 476 403 444 q 388 516 397 507 q 351 525 379 525 q 315 516 325 525 q 303 476 306 507 q 301 354 301 446 q 303 232 301 263 q 315 192 306 201 q 351 183 325 183 m 263 826 l 111 1025 l 111 1032 l 358 1032 l 454 833 l 454 826 l 263 826 z "},"ỏ":{"ha":704,"x_min":38,"x_max":665,"o":"m 351 -11 q 138 19 203 -11 q 56 122 74 50 q 38 354 38 193 q 56 587 38 515 q 138 689 74 658 q 351 719 203 719 q 565 689 500 719 q 647 587 629 658 q 665 354 665 515 q 647 122 665 193 q 565 19 629 50 q 351 -11 500 -11 m 351 183 q 388 192 379 183 q 400 233 397 201 q 403 354 403 264 q 400 476 403 444 q 388 516 397 507 q 351 525 379 525 q 315 516 325 525 q 303 476 306 507 q 301 354 301 446 q 303 232 301 263 q 315 192 306 201 q 351 183 325 183 m 244 865 q 256 929 244 911 q 307 957 268 947 l 325 963 q 365 978 356 971 q 374 999 374 985 q 361 1023 374 1018 q 308 1028 349 1028 q 164 1022 239 1028 l 164 1143 q 346 1161 257 1161 q 451 1153 410 1161 q 517 1115 492 1144 q 543 1022 543 1085 q 533 958 543 981 q 503 924 522 936 q 447 899 485 911 l 433 894 q 394 876 403 883 q 386 850 386 868 l 244 850 l 244 865 z "},"ơ":{"ha":704,"x_min":38,"x_max":742,"o":"m 742 831 l 742 813 q 734 715 742 751 q 703 656 726 679 q 633 624 679 633 q 659 524 653 585 q 665 354 665 464 q 647 122 665 193 q 565 19 629 50 q 351 -11 500 -11 q 138 19 203 -11 q 56 122 74 50 q 38 354 38 193 q 56 587 38 515 q 138 689 74 658 q 351 719 203 719 q 501 708 447 719 q 561 728 547 710 q 575 796 575 747 l 575 831 l 742 831 m 351 183 q 388 192 379 183 q 400 233 397 201 q 403 354 403 264 q 400 476 403 444 q 388 516 397 507 q 351 525 379 525 q 315 516 325 525 q 303 476 306 507 q 301 354 301 446 q 303 232 301 263 q 315 192 306 201 q 351 183 325 183 z "},"ớ":{"ha":704,"x_min":38,"x_max":742,"o":"m 742 831 l 742 813 q 734 715 742 751 q 703 656 726 679 q 633 624 679 633 q 659 524 653 585 q 665 354 665 464 q 647 122 665 193 q 565 19 629 50 q 351 -11 500 -11 q 138 19 203 -11 q 56 122 74 50 q 38 354 38 193 q 56 587 38 515 q 138 689 74 658 q 351 719 203 719 q 501 708 447 719 q 561 728 547 710 q 575 796 575 747 l 575 831 l 742 831 m 351 183 q 388 192 379 183 q 400 233 397 201 q 403 354 403 264 q 400 476 403 444 q 388 516 397 507 q 351 525 379 525 q 315 516 325 525 q 303 476 306 507 q 301 354 301 446 q 303 232 301 263 q 315 192 306 201 q 351 183 325 183 m 257 826 l 257 833 l 354 1032 l 600 1032 l 600 1025 l 449 826 l 257 826 z "},"ợ":{"ha":704,"x_min":38,"x_max":742,"o":"m 742 831 l 742 813 q 734 715 742 751 q 703 656 726 679 q 633 624 679 633 q 659 524 653 585 q 665 354 665 464 q 647 122 665 193 q 565 19 629 50 q 351 -11 500 -11 q 138 19 203 -11 q 56 122 74 50 q 38 354 38 193 q 56 587 38 515 q 138 689 74 658 q 351 719 203 719 q 501 708 447 719 q 561 728 547 710 q 575 796 575 747 l 575 831 l 742 831 m 351 183 q 388 192 379 183 q 400 233 397 201 q 403 354 403 264 q 400 476 403 444 q 388 516 397 507 q 351 525 379 525 q 315 516 325 525 q 303 476 306 507 q 301 354 301 446 q 303 232 301 263 q 315 192 306 201 q 351 183 325 183 m 215 -311 l 215 -86 l 489 -86 l 489 -311 l 215 -311 z "},"ờ":{"ha":704,"x_min":38,"x_max":742,"o":"m 742 831 l 742 813 q 734 715 742 751 q 703 656 726 679 q 633 624 679 633 q 659 524 653 585 q 665 354 665 464 q 647 122 665 193 q 565 19 629 50 q 351 -11 500 -11 q 138 19 203 -11 q 56 122 74 50 q 38 354 38 193 q 56 587 38 515 q 138 689 74 658 q 351 719 203 719 q 501 708 447 719 q 561 728 547 710 q 575 796 575 747 l 575 831 l 742 831 m 351 183 q 388 192 379 183 q 400 233 397 201 q 403 354 403 264 q 400 476 403 444 q 388 516 397 507 q 351 525 379 525 q 315 516 325 525 q 303 476 306 507 q 301 354 301 446 q 303 232 301 263 q 315 192 306 201 q 351 183 325 183 m 258 826 l 107 1025 l 107 1032 l 354 1032 l 450 833 l 450 826 l 258 826 z "},"ở":{"ha":704,"x_min":38,"x_max":742,"o":"m 742 831 l 742 813 q 734 715 742 751 q 703 656 726 679 q 633 624 679 633 q 659 524 653 585 q 665 354 665 464 q 647 122 665 193 q 565 19 629 50 q 351 -11 500 -11 q 138 19 203 -11 q 56 122 74 50 q 38 354 38 193 q 56 587 38 515 q 138 689 74 658 q 351 719 203 719 q 501 708 447 719 q 561 728 547 710 q 575 796 575 747 l 575 831 l 742 831 m 351 183 q 388 192 379 183 q 400 233 397 201 q 403 354 403 264 q 400 476 403 444 q 388 516 397 507 q 351 525 379 525 q 315 516 325 525 q 303 476 306 507 q 301 354 301 446 q 303 232 301 263 q 315 192 306 201 q 351 183 325 183 m 244 865 q 256 929 244 911 q 307 957 268 947 l 325 963 q 365 978 356 971 q 374 999 374 985 q 361 1023 374 1018 q 308 1028 349 1028 q 164 1022 239 1028 l 164 1143 q 346 1161 257 1161 q 451 1153 410 1161 q 517 1115 492 1144 q 543 1022 543 1085 q 533 958 543 981 q 503 924 522 936 q 447 899 485 911 l 433 894 q 394 876 403 883 q 386 850 386 868 l 244 850 l 244 865 z "},"ỡ":{"ha":704,"x_min":38,"x_max":742,"o":"m 742 831 l 742 813 q 734 715 742 751 q 703 656 726 679 q 633 624 679 633 q 659 524 653 585 q 665 354 665 464 q 647 122 665 193 q 565 19 629 50 q 351 -11 500 -11 q 138 19 203 -11 q 56 122 74 50 q 38 354 38 193 q 56 587 38 515 q 138 689 74 658 q 351 719 203 719 q 501 708 447 719 q 561 728 547 710 q 575 796 575 747 l 575 831 l 742 831 m 351 183 q 388 192 379 183 q 400 233 397 201 q 403 354 403 264 q 400 476 403 444 q 388 516 397 507 q 351 525 379 525 q 315 516 325 525 q 303 476 306 507 q 301 354 301 446 q 303 232 301 263 q 315 192 306 201 q 351 183 325 183 m 608 1032 q 602 912 608 951 q 568 849 596 872 q 478 825 540 825 q 335 846 424 825 l 301 851 q 254 858 269 858 q 232 849 236 858 q 228 808 228 839 l 96 808 q 102 928 96 888 q 137 992 108 968 q 226 1015 165 1015 q 371 994 282 1015 q 450 982 431 982 q 472 992 468 982 q 476 1032 476 1001 l 608 1032 z "},"ő":{"ha":704,"x_min":38,"x_max":669,"o":"m 351 -11 q 138 19 203 -11 q 56 122 74 50 q 38 354 38 193 q 56 587 38 515 q 138 689 74 658 q 351 719 203 719 q 565 689 500 719 q 647 587 629 658 q 665 354 665 515 q 647 122 665 193 q 565 19 629 50 q 351 -11 500 -11 m 351 183 q 388 192 379 183 q 400 233 397 201 q 403 354 403 264 q 400 476 403 444 q 388 516 397 507 q 351 525 379 525 q 315 516 325 525 q 303 476 306 507 q 301 354 301 446 q 303 232 301 263 q 315 192 306 201 q 351 183 325 183 m 158 849 l 158 854 l 233 1013 l 433 1013 l 433 1007 l 314 849 l 158 849 m 394 849 l 394 854 l 471 1013 l 669 1013 l 669 1007 l 551 849 l 394 849 z "},"ȏ":{"ha":704,"x_min":38,"x_max":665,"o":"m 351 -11 q 138 19 203 -11 q 56 122 74 50 q 38 354 38 193 q 56 587 38 515 q 138 689 74 658 q 351 719 203 719 q 565 689 500 719 q 647 587 629 658 q 665 354 665 515 q 647 122 665 193 q 565 19 629 50 q 351 -11 500 -11 m 351 183 q 388 192 379 183 q 400 233 397 201 q 403 354 403 264 q 400 476 403 444 q 388 516 397 507 q 351 525 379 525 q 315 516 325 525 q 303 476 306 507 q 301 354 301 446 q 303 232 301 263 q 315 192 306 201 q 351 183 325 183 m 143 839 q 159 947 143 904 q 221 1015 175 990 q 353 1039 267 1039 q 483 1015 438 1039 q 545 947 529 990 q 561 839 561 904 l 418 839 q 408 890 418 874 q 353 906 397 906 q 307 897 321 906 q 290 876 293 889 q 286 839 286 863 l 143 839 z "},"ō":{"ha":704,"x_min":38,"x_max":665,"o":"m 351 -11 q 138 19 203 -11 q 56 122 74 50 q 38 354 38 193 q 56 587 38 515 q 138 689 74 658 q 351 719 203 719 q 565 689 500 719 q 647 587 629 658 q 665 354 665 515 q 647 122 665 193 q 565 19 629 50 q 351 -11 500 -11 m 351 183 q 388 192 379 183 q 400 233 397 201 q 403 354 403 264 q 400 476 403 444 q 388 516 397 507 q 351 525 379 525 q 315 516 325 525 q 303 476 306 507 q 301 354 301 446 q 303 232 301 263 q 315 192 306 201 q 351 183 325 183 m 175 825 l 175 1032 l 532 1032 l 532 825 l 175 825 z "},"ǫ":{"ha":704,"x_min":38,"x_max":665,"o":"m 351 719 q 565 689 500 719 q 647 587 629 658 q 665 354 665 515 q 660 189 665 247 q 635 91 654 131 q 576 26 617 51 q 519 -27 542 3 q 497 -99 497 -57 q 509 -135 497 -122 q 556 -147 521 -147 l 576 -146 l 576 -267 q 472 -272 521 -272 q 333 -238 375 -272 q 292 -149 292 -204 q 344 -11 292 -82 q 135 22 199 -8 q 55 122 72 51 q 38 354 38 193 q 56 587 38 515 q 138 689 74 658 q 351 719 203 719 m 301 354 q 303 232 301 263 q 315 192 306 201 q 351 183 325 183 q 388 192 379 183 q 400 233 397 201 q 403 354 403 264 q 400 476 403 444 q 388 516 397 507 q 351 525 379 525 q 315 516 325 525 q 303 476 306 507 q 301 354 301 446 z "},"ø":{"ha":704,"x_min":38,"x_max":665,"o":"m 97 47 q 49 153 60 85 q 38 354 38 221 q 56 587 38 515 q 138 689 74 658 q 351 719 203 719 q 415 717 376 719 l 446 785 l 665 785 l 607 660 q 654 554 643 622 q 665 354 665 486 q 647 122 665 193 q 565 19 629 50 q 351 -11 500 -11 q 289 -10 308 -11 l 258 -76 l 39 -76 l 97 47 m 351 183 q 388 192 379 183 q 400 233 397 201 q 403 354 403 264 q 400 476 403 444 q 388 516 397 507 q 351 525 379 525 q 315 516 325 525 q 303 476 306 507 q 301 354 301 446 q 303 232 301 263 q 315 192 306 201 q 351 183 325 183 z "},"ǿ":{"ha":704,"x_min":38,"x_max":665,"o":"m 97 47 q 49 153 60 85 q 38 354 38 221 q 56 587 38 515 q 138 689 74 658 q 351 719 203 719 q 415 717 376 719 l 446 785 l 665 785 l 607 660 q 654 554 643 622 q 665 354 665 486 q 647 122 665 193 q 565 19 629 50 q 351 -11 500 -11 q 289 -10 308 -11 l 258 -76 l 39 -76 l 97 47 m 351 183 q 388 192 379 183 q 400 233 397 201 q 403 354 403 264 q 400 476 403 444 q 388 516 397 507 q 351 525 379 525 q 315 516 325 525 q 303 476 306 507 q 301 354 301 446 q 303 232 301 263 q 315 192 306 201 q 351 183 325 183 m 257 826 l 257 833 l 354 1032 l 600 1032 l 600 1025 l 449 826 l 257 826 z "},"õ":{"ha":704,"x_min":38,"x_max":665,"o":"m 351 -11 q 138 19 203 -11 q 56 122 74 50 q 38 354 38 193 q 56 587 38 515 q 138 689 74 658 q 351 719 203 719 q 565 689 500 719 q 647 587 629 658 q 665 354 665 515 q 647 122 665 193 q 565 19 629 50 q 351 -11 500 -11 m 351 183 q 388 192 379 183 q 400 233 397 201 q 403 354 403 264 q 400 476 403 444 q 388 516 397 507 q 351 525 379 525 q 315 516 325 525 q 303 476 306 507 q 301 354 301 446 q 303 232 301 263 q 315 192 306 201 q 351 183 325 183 m 611 1032 q 605 912 611 951 q 571 849 599 872 q 481 825 543 825 q 338 846 426 825 l 304 851 q 257 858 272 858 q 235 849 239 858 q 231 808 231 839 l 99 808 q 105 928 99 888 q 140 992 111 968 q 229 1015 168 1015 q 374 994 285 1015 q 453 982 433 982 q 475 992 471 982 q 479 1032 479 1001 l 611 1032 z "},"œ":{"ha":1056,"x_min":38,"x_max":1013,"o":"m 1013 297 l 665 297 q 673 216 665 238 q 706 189 681 194 q 803 183 732 183 q 990 192 871 183 l 990 14 q 887 -4 953 3 q 754 -11 821 -11 q 543 39 617 -11 q 344 -11 475 -11 q 135 19 199 -11 q 55 122 72 50 q 38 354 38 193 q 55 587 38 515 q 135 689 72 658 q 344 719 199 719 q 540 671 474 719 q 731 719 610 719 q 928 685 869 719 q 999 583 986 651 q 1013 353 1013 514 l 1013 297 m 715 539 q 683 533 692 539 q 670 503 674 526 q 665 421 667 481 l 768 421 q 765 504 768 482 q 753 533 763 526 q 715 539 743 539 m 351 183 q 388 192 379 183 q 400 233 397 201 q 403 354 403 264 q 400 476 403 444 q 388 516 397 507 q 351 525 379 525 q 315 516 325 525 q 303 476 306 507 q 301 354 301 446 q 303 232 301 263 q 315 192 306 201 q 351 183 325 183 z "},"p":{"ha":721,"x_min":54,"x_max":682,"o":"m 54 708 l 310 708 l 315 629 l 329 629 q 490 719 371 719 q 602 688 561 719 q 663 578 643 657 q 682 356 682 500 q 663 135 682 214 q 603 23 644 56 q 489 -10 561 -10 q 396 8 435 -10 q 332 71 357 26 l 318 71 l 318 -276 l 54 -276 l 54 708 m 368 201 q 405 208 396 201 q 417 244 414 215 q 419 354 419 272 q 417 465 419 436 q 405 500 414 493 q 368 507 396 507 q 336 501 346 507 q 322 474 326 494 q 318 354 318 451 q 322 239 318 254 q 336 208 326 214 q 368 201 346 201 z "},"þ":{"ha":721,"x_min":54,"x_max":682,"o":"m 54 1032 l 318 1032 l 318 629 l 333 629 q 396 699 356 679 q 490 719 436 719 q 602 688 561 719 q 663 578 643 657 q 682 356 682 500 q 663 135 682 214 q 603 23 644 56 q 489 -10 561 -10 q 396 8 435 -10 q 332 71 357 26 l 318 71 l 318 -262 l 54 -262 l 54 1032 m 368 201 q 405 208 396 201 q 417 244 414 215 q 419 354 419 272 q 417 465 419 436 q 405 500 414 493 q 368 507 396 507 q 334 500 343 507 q 322 464 325 493 q 318 354 318 440 q 321 244 318 261 q 335 208 325 215 q 368 201 344 201 z "},"q":{"ha":721,"x_min":38,"x_max":665,"o":"m 401 71 l 388 71 q 324 8 363 26 q 232 -10 286 -10 q 118 23 160 -10 q 57 135 76 56 q 38 356 38 214 q 57 578 38 500 q 117 688 76 657 q 229 719 158 719 q 390 629 350 719 l 404 629 l 410 708 l 665 708 l 665 -276 l 401 -276 l 401 71 m 351 201 q 382 206 372 201 q 396 229 392 211 q 401 274 400 240 q 401 354 401 307 q 401 431 401 397 q 396 479 400 464 q 383 502 392 497 q 351 507 374 507 q 315 500 324 507 q 303 466 306 493 q 301 354 301 439 q 303 242 301 269 q 315 208 306 215 q 351 201 324 201 z "},"r":{"ha":536,"x_min":54,"x_max":514,"o":"m 54 708 l 310 708 l 315 593 l 329 593 q 397 692 356 664 q 514 719 439 719 l 514 476 q 399 461 440 476 q 338 402 358 446 q 318 272 318 358 l 318 0 l 54 0 l 54 708 z "},"ŕ":{"ha":536,"x_min":54,"x_max":515,"o":"m 54 708 l 310 708 l 315 593 l 329 593 q 397 692 356 664 q 514 719 439 719 l 514 476 q 399 461 440 476 q 338 402 358 446 q 318 272 318 358 l 318 0 l 54 0 l 54 708 m 172 826 l 172 833 l 269 1032 l 515 1032 l 515 1025 l 364 826 l 172 826 z "},"ř":{"ha":536,"x_min":33,"x_max":514,"o":"m 54 708 l 310 708 l 315 593 l 329 593 q 397 692 356 664 q 514 719 439 719 l 514 476 q 399 461 440 476 q 338 402 358 446 q 318 272 318 358 l 318 0 l 54 0 l 54 708 m 147 838 l 33 1021 l 33 1032 l 203 1032 l 269 939 l 332 1032 l 501 1032 l 501 1021 l 386 838 l 147 838 z "},"ŗ":{"ha":536,"x_min":54,"x_max":514,"o":"m 54 708 l 310 708 l 315 593 l 329 593 q 397 692 356 664 q 514 719 439 719 l 514 476 q 399 461 440 476 q 338 402 358 446 q 318 272 318 358 l 318 0 l 54 0 l 54 708 m 60 -306 q 131 -294 115 -306 q 147 -250 147 -283 l 147 -239 l 57 -239 l 57 -82 l 314 -82 l 314 -178 q 297 -317 314 -272 q 227 -382 281 -362 q 60 -401 174 -401 l 60 -306 z "},"ȑ":{"ha":536,"x_min":-37,"x_max":514,"o":"m 54 708 l 310 708 l 315 593 l 329 593 q 397 692 356 664 q 514 719 439 719 l 514 476 q 399 461 440 476 q 338 402 358 446 q 318 272 318 358 l 318 0 l 54 0 l 54 708 m 238 849 l 81 849 l -37 1007 l -37 1013 l 161 1013 l 238 854 l 238 849 m 474 849 l 318 849 l 199 1007 l 199 1013 l 399 1013 l 474 854 l 474 849 z "},"ṛ":{"ha":536,"x_min":49,"x_max":514,"o":"m 54 708 l 310 708 l 315 593 l 329 593 q 397 692 356 664 q 514 719 439 719 l 514 476 q 399 461 440 476 q 338 402 358 446 q 318 272 318 358 l 318 0 l 54 0 l 54 708 m 49 -311 l 49 -86 l 322 -86 l 322 -311 l 49 -311 z "},"ȓ":{"ha":536,"x_min":54,"x_max":514,"o":"m 54 708 l 310 708 l 315 593 l 329 593 q 397 692 356 664 q 514 719 439 719 l 514 476 q 399 461 440 476 q 338 402 358 446 q 318 272 318 358 l 318 0 l 54 0 l 54 708 m 58 839 q 74 947 58 904 q 136 1015 90 990 q 268 1039 182 1039 q 399 1015 353 1039 q 460 947 444 990 q 476 839 476 904 l 333 839 q 323 890 333 874 q 268 906 313 906 q 222 897 236 906 q 205 876 208 889 q 201 839 201 863 l 58 839 z "},"s":{"ha":610,"x_min":29,"x_max":581,"o":"m 317 -11 q 179 -5 254 -11 q 49 10 104 1 l 49 186 q 218 178 165 178 q 300 180 279 178 q 328 189 321 182 q 335 217 335 196 q 332 240 335 233 q 317 249 329 246 q 275 257 306 253 l 136 278 q 51 339 74 286 q 29 501 29 392 q 64 638 29 590 q 158 702 99 685 q 307 719 218 719 q 438 714 371 719 q 544 699 506 708 l 544 521 q 382 531 431 531 q 310 528 331 531 q 283 520 289 526 q 278 497 278 514 q 280 474 278 481 q 292 465 282 468 q 328 458 301 463 l 443 442 q 517 418 488 435 q 563 356 546 401 q 581 228 581 311 q 547 74 581 126 q 458 6 514 22 q 317 -11 403 -11 z "},"ś":{"ha":610,"x_min":29,"x_max":581,"o":"m 317 -11 q 179 -5 254 -11 q 49 10 104 1 l 49 186 q 218 178 165 178 q 300 180 279 178 q 328 189 321 182 q 335 217 335 196 q 332 240 335 233 q 317 249 329 246 q 275 257 306 253 l 136 278 q 51 339 74 286 q 29 501 29 392 q 64 638 29 590 q 158 702 99 685 q 307 719 218 719 q 438 714 371 719 q 544 699 506 708 l 544 521 q 382 531 431 531 q 310 528 331 531 q 283 520 289 526 q 278 497 278 514 q 280 474 278 481 q 292 465 282 468 q 328 458 301 463 l 443 442 q 517 418 488 435 q 563 356 546 401 q 581 228 581 311 q 547 74 581 126 q 458 6 514 22 q 317 -11 403 -11 m 208 826 l 208 833 l 306 1032 l 551 1032 l 551 1025 l 400 826 l 208 826 z "},"ꞌ":{"ha":311,"x_min":40,"x_max":272,"o":"m 40 363 l 40 1032 l 272 1032 l 272 726 l 221 363 l 40 363 z "},"š":{"ha":610,"x_min":29,"x_max":581,"o":"m 317 -11 q 179 -5 254 -11 q 49 10 104 1 l 49 186 q 218 178 165 178 q 300 180 279 178 q 328 189 321 182 q 335 217 335 196 q 332 240 335 233 q 317 249 329 246 q 275 257 306 253 l 136 278 q 51 339 74 286 q 29 501 29 392 q 64 638 29 590 q 158 702 99 685 q 307 719 218 719 q 438 714 371 719 q 544 699 506 708 l 544 521 q 382 531 431 531 q 310 528 331 531 q 283 520 289 526 q 278 497 278 514 q 280 474 278 481 q 292 465 282 468 q 328 458 301 463 l 443 442 q 517 418 488 435 q 563 356 546 401 q 581 228 581 311 q 547 74 581 126 q 458 6 514 22 q 317 -11 403 -11 m 189 838 l 75 1021 l 75 1032 l 244 1032 l 311 939 l 374 1032 l 543 1032 l 543 1021 l 428 838 l 189 838 z "},"ş":{"ha":610,"x_min":29,"x_max":581,"o":"m 581 228 q 531 52 581 103 q 388 -8 482 1 l 344 -262 l 117 -262 l 117 -256 l 215 -7 q 49 10 131 -3 l 49 186 q 218 178 165 178 q 300 180 279 178 q 328 189 321 182 q 335 217 335 196 q 332 240 335 233 q 317 249 329 246 q 275 257 306 253 l 136 278 q 51 339 74 286 q 29 501 29 392 q 64 638 29 590 q 158 702 99 685 q 307 719 218 719 q 438 714 371 719 q 544 699 506 708 l 544 521 q 382 531 431 531 q 310 528 331 531 q 283 520 289 526 q 278 497 278 514 q 280 474 278 481 q 292 465 282 468 q 328 458 301 463 l 443 442 q 517 418 488 435 q 563 356 546 401 q 581 228 581 311 z "},"ŝ":{"ha":610,"x_min":29,"x_max":581,"o":"m 317 -11 q 179 -5 254 -11 q 49 10 104 1 l 49 186 q 218 178 165 178 q 300 180 279 178 q 328 189 321 182 q 335 217 335 196 q 332 240 335 233 q 317 249 329 246 q 275 257 306 253 l 136 278 q 51 339 74 286 q 29 501 29 392 q 64 638 29 590 q 158 702 99 685 q 307 719 218 719 q 438 714 371 719 q 544 699 506 708 l 544 521 q 382 531 431 531 q 310 528 331 531 q 283 520 289 526 q 278 497 278 514 q 280 474 278 481 q 292 465 282 468 q 328 458 301 463 l 443 442 q 517 418 488 435 q 563 356 546 401 q 581 228 581 311 q 547 74 581 126 q 458 6 514 22 q 317 -11 403 -11 m 69 838 l 69 850 l 183 1032 l 422 1032 l 538 850 l 538 838 l 368 838 l 303 931 l 239 838 l 69 838 z "},"ș":{"ha":610,"x_min":29,"x_max":581,"o":"m 317 -11 q 179 -5 254 -11 q 49 10 104 1 l 49 186 q 218 178 165 178 q 300 180 279 178 q 328 189 321 182 q 335 217 335 196 q 332 240 335 233 q 317 249 329 246 q 275 257 306 253 l 136 278 q 51 339 74 286 q 29 501 29 392 q 64 638 29 590 q 158 702 99 685 q 307 719 218 719 q 438 714 371 719 q 544 699 506 708 l 544 521 q 382 531 431 531 q 310 528 331 531 q 283 520 289 526 q 278 497 278 514 q 280 474 278 481 q 292 465 282 468 q 328 458 301 463 l 443 442 q 517 418 488 435 q 563 356 546 401 q 581 228 581 311 q 547 74 581 126 q 458 6 514 22 q 317 -11 403 -11 m 178 -306 q 249 -294 233 -306 q 265 -250 265 -283 l 265 -239 l 175 -239 l 175 -82 l 432 -82 l 432 -178 q 415 -317 432 -272 q 345 -382 399 -362 q 178 -401 292 -401 l 178 -306 z "},"ṣ":{"ha":610,"x_min":29,"x_max":581,"o":"m 317 -11 q 179 -5 254 -11 q 49 10 104 1 l 49 186 q 218 178 165 178 q 300 180 279 178 q 328 189 321 182 q 335 217 335 196 q 332 240 335 233 q 317 249 329 246 q 275 257 306 253 l 136 278 q 51 339 74 286 q 29 501 29 392 q 64 638 29 590 q 158 702 99 685 q 307 719 218 719 q 438 714 371 719 q 544 699 506 708 l 544 521 q 382 531 431 531 q 310 528 331 531 q 283 520 289 526 q 278 497 278 514 q 280 474 278 481 q 292 465 282 468 q 328 458 301 463 l 443 442 q 517 418 488 435 q 563 356 546 401 q 581 228 581 311 q 547 74 581 126 q 458 6 514 22 q 317 -11 403 -11 m 167 -311 l 167 -86 l 440 -86 l 440 -311 l 167 -311 z "},"ß":{"ha":743,"x_min":54,"x_max":704,"o":"m 372 0 l 372 194 l 378 194 q 419 202 407 194 q 435 241 431 210 q 439 353 439 272 q 434 458 439 428 q 417 495 429 488 q 374 503 406 503 l 367 503 l 367 697 l 374 697 q 412 701 401 697 q 424 719 422 706 q 426 774 426 733 q 422 822 426 807 q 408 842 418 838 q 378 847 399 847 q 340 842 351 847 q 323 816 328 836 q 318 751 318 796 l 318 0 l 54 0 l 54 768 q 84 924 54 864 q 183 1013 114 983 q 374 1042 253 1042 q 566 1015 496 1042 q 665 938 636 989 q 694 808 694 888 q 659 671 694 718 q 549 610 624 624 l 549 604 q 667 527 629 588 q 704 335 704 467 q 681 136 704 207 q 591 33 657 65 q 399 0 525 0 l 372 0 z "},"ſ":{"ha":526,"x_min":21,"x_max":521,"o":"m 119 514 l 21 514 l 21 708 l 119 708 l 119 724 q 148 938 119 876 q 252 1015 176 999 q 521 1031 328 1031 l 521 856 q 426 851 451 856 q 394 828 401 846 q 386 764 386 811 l 386 0 l 119 0 l 119 514 z "},"t":{"ha":531,"x_min":21,"x_max":511,"o":"m 119 0 l 119 514 l 21 514 l 21 708 l 119 708 l 119 914 l 386 914 l 386 708 l 511 708 l 511 514 l 386 514 l 386 0 l 119 0 z "},"ŧ":{"ha":531,"x_min":21,"x_max":511,"o":"m 511 514 l 386 514 l 386 415 l 508 415 l 508 232 l 386 232 l 386 0 l 119 0 l 119 232 l 22 232 l 22 415 l 119 415 l 119 514 l 21 514 l 21 708 l 119 708 l 119 914 l 386 914 l 386 708 l 511 708 l 511 514 z "},"ť":{"ha":733,"x_min":21,"x_max":799,"o":"m 119 0 l 119 514 l 21 514 l 21 708 l 119 708 l 119 914 l 386 914 l 386 708 l 511 708 l 511 514 l 386 514 l 386 0 l 119 0 m 550 585 l 567 893 l 567 956 l 799 956 l 799 893 l 731 585 l 550 585 z "},"ţ":{"ha":531,"x_min":21,"x_max":511,"o":"m 386 708 l 511 708 l 511 514 l 386 514 l 386 0 l 338 0 l 293 -262 l 65 -262 l 65 -256 l 167 0 l 119 0 l 119 514 l 21 514 l 21 708 l 119 708 l 119 914 l 386 914 l 386 708 z "},"ț":{"ha":531,"x_min":21,"x_max":511,"o":"m 119 0 l 119 514 l 21 514 l 21 708 l 119 708 l 119 914 l 386 914 l 386 708 l 511 708 l 511 514 l 386 514 l 386 0 l 119 0 m 126 -306 q 198 -294 182 -306 q 214 -250 214 -283 l 214 -239 l 124 -239 l 124 -82 l 381 -82 l 381 -178 q 364 -317 381 -272 q 294 -382 347 -362 q 126 -401 240 -401 l 126 -306 z "},"ṭ":{"ha":531,"x_min":21,"x_max":511,"o":"m 119 0 l 119 514 l 21 514 l 21 708 l 119 708 l 119 914 l 386 914 l 386 708 l 511 708 l 511 514 l 386 514 l 386 0 l 119 0 m 115 -311 l 115 -86 l 389 -86 l 389 -311 l 115 -311 z "},"u":{"ha":725,"x_min":54,"x_max":671,"o":"m 410 79 l 397 79 q 231 -11 350 -11 q 117 17 154 -11 q 67 101 79 46 q 54 253 54 156 l 54 708 l 318 708 l 318 332 q 320 239 318 263 q 330 209 322 215 q 361 203 338 203 q 394 210 386 203 q 405 242 403 217 q 407 343 407 268 l 407 708 l 671 708 l 671 0 l 415 0 l 410 79 z "},"ú":{"ha":725,"x_min":54,"x_max":671,"o":"m 410 79 l 397 79 q 231 -11 350 -11 q 117 17 154 -11 q 67 101 79 46 q 54 253 54 156 l 54 708 l 318 708 l 318 332 q 320 239 318 263 q 330 209 322 215 q 361 203 338 203 q 394 210 386 203 q 405 242 403 217 q 407 343 407 268 l 407 708 l 671 708 l 671 0 l 415 0 l 410 79 m 268 826 l 268 833 l 365 1032 l 611 1032 l 611 1025 l 460 826 l 268 826 z "},"ŭ":{"ha":725,"x_min":54,"x_max":671,"o":"m 410 79 l 397 79 q 231 -11 350 -11 q 117 17 154 -11 q 67 101 79 46 q 54 253 54 156 l 54 708 l 318 708 l 318 332 q 320 239 318 263 q 330 209 322 215 q 361 203 338 203 q 394 210 386 203 q 405 242 403 217 q 407 343 407 268 l 407 708 l 671 708 l 671 0 l 415 0 l 410 79 m 571 1032 q 555 924 571 967 q 493 856 539 881 q 361 832 447 832 q 231 856 276 832 q 169 924 185 881 q 153 1032 153 967 l 296 1032 q 306 981 296 997 q 361 965 317 965 q 407 974 393 965 q 424 995 421 982 q 428 1032 428 1008 l 571 1032 z "},"ǔ":{"ha":725,"x_min":54,"x_max":671,"o":"m 410 79 l 397 79 q 231 -11 350 -11 q 117 17 154 -11 q 67 101 79 46 q 54 253 54 156 l 54 708 l 318 708 l 318 332 q 320 239 318 263 q 330 209 322 215 q 361 203 338 203 q 394 210 386 203 q 405 242 403 217 q 407 343 407 268 l 407 708 l 671 708 l 671 0 l 415 0 l 410 79 m 242 838 l 128 1021 l 128 1032 l 297 1032 l 364 939 l 426 1032 l 596 1032 l 596 1021 l 481 838 l 242 838 z "},"û":{"ha":725,"x_min":54,"x_max":671,"o":"m 410 79 l 397 79 q 231 -11 350 -11 q 117 17 154 -11 q 67 101 79 46 q 54 253 54 156 l 54 708 l 318 708 l 318 332 q 320 239 318 263 q 330 209 322 215 q 361 203 338 203 q 394 210 386 203 q 405 242 403 217 q 407 343 407 268 l 407 708 l 671 708 l 671 0 l 415 0 l 410 79 m 128 838 l 128 850 l 242 1032 l 481 1032 l 596 850 l 596 838 l 426 838 l 361 931 l 297 838 l 128 838 z "},"ȕ":{"ha":725,"x_min":54,"x_max":671,"o":"m 410 79 l 397 79 q 231 -11 350 -11 q 117 17 154 -11 q 67 101 79 46 q 54 253 54 156 l 54 708 l 318 708 l 318 332 q 320 239 318 263 q 330 209 322 215 q 361 203 338 203 q 394 210 386 203 q 405 242 403 217 q 407 343 407 268 l 407 708 l 671 708 l 671 0 l 415 0 l 410 79 m 332 849 l 175 849 l 57 1007 l 57 1013 l 256 1013 l 332 854 l 332 849 m 568 849 l 413 849 l 293 1007 l 293 1013 l 493 1013 l 568 854 l 568 849 z "},"ü":{"ha":725,"x_min":54,"x_max":671,"o":"m 410 79 l 397 79 q 231 -11 350 -11 q 117 17 154 -11 q 67 101 79 46 q 54 253 54 156 l 54 708 l 318 708 l 318 332 q 320 239 318 263 q 330 209 322 215 q 361 203 338 203 q 394 210 386 203 q 405 242 403 217 q 407 343 407 268 l 407 708 l 671 708 l 671 0 l 415 0 l 410 79 m 119 849 l 119 1014 l 328 1014 l 328 849 l 119 849 m 396 849 l 396 1014 l 606 1014 l 606 849 l 396 849 z "},"ǘ":{"ha":725,"x_min":54,"x_max":671,"o":"m 410 79 l 397 79 q 231 -11 350 -11 q 117 17 154 -11 q 67 101 79 46 q 54 253 54 156 l 54 708 l 318 708 l 318 332 q 320 239 318 263 q 330 209 322 215 q 361 203 338 203 q 394 210 386 203 q 405 242 403 217 q 407 343 407 268 l 407 708 l 671 708 l 671 0 l 415 0 l 410 79 m 119 849 l 119 1014 l 328 1014 l 328 849 l 119 849 m 396 849 l 396 1014 l 606 1014 l 606 849 l 396 849 m 269 1049 l 269 1056 l 367 1254 l 613 1254 l 613 1247 l 461 1049 l 269 1049 z "},"ǚ":{"ha":725,"x_min":54,"x_max":671,"o":"m 410 79 l 397 79 q 231 -11 350 -11 q 117 17 154 -11 q 67 101 79 46 q 54 253 54 156 l 54 708 l 318 708 l 318 332 q 320 239 318 263 q 330 209 322 215 q 361 203 338 203 q 394 210 386 203 q 405 242 403 217 q 407 343 407 268 l 407 708 l 671 708 l 671 0 l 415 0 l 410 79 m 119 849 l 119 1014 l 328 1014 l 328 849 l 119 849 m 396 849 l 396 1014 l 606 1014 l 606 849 l 396 849 m 244 1060 l 131 1243 l 131 1254 l 300 1254 l 367 1161 l 429 1254 l 599 1254 l 599 1243 l 483 1060 l 244 1060 z "},"ǜ":{"ha":725,"x_min":54,"x_max":671,"o":"m 410 79 l 397 79 q 231 -11 350 -11 q 117 17 154 -11 q 67 101 79 46 q 54 253 54 156 l 54 708 l 318 708 l 318 332 q 320 239 318 263 q 330 209 322 215 q 361 203 338 203 q 394 210 386 203 q 405 242 403 217 q 407 343 407 268 l 407 708 l 671 708 l 671 0 l 415 0 l 410 79 m 119 849 l 119 1014 l 328 1014 l 328 849 l 119 849 m 396 849 l 396 1014 l 606 1014 l 606 849 l 396 849 m 271 1049 l 119 1247 l 119 1254 l 367 1254 l 463 1056 l 463 1049 l 271 1049 z "},"ǖ":{"ha":725,"x_min":54,"x_max":671,"o":"m 410 79 l 397 79 q 231 -11 350 -11 q 117 17 154 -11 q 67 101 79 46 q 54 253 54 156 l 54 708 l 318 708 l 318 332 q 320 239 318 263 q 330 209 322 215 q 361 203 338 203 q 394 210 386 203 q 405 242 403 217 q 407 343 407 268 l 407 708 l 671 708 l 671 0 l 415 0 l 410 79 m 119 849 l 119 1014 l 328 1014 l 328 849 l 119 849 m 396 849 l 396 1014 l 606 1014 l 606 849 l 396 849 m 188 1047 l 188 1254 l 544 1254 l 544 1047 l 188 1047 z "},"ụ":{"ha":725,"x_min":54,"x_max":671,"o":"m 410 79 l 397 79 q 231 -11 350 -11 q 117 17 154 -11 q 67 101 79 46 q 54 253 54 156 l 54 708 l 318 708 l 318 332 q 320 239 318 263 q 330 209 322 215 q 361 203 338 203 q 394 210 386 203 q 405 242 403 217 q 407 343 407 268 l 407 708 l 671 708 l 671 0 l 415 0 l 410 79 m 215 -311 l 215 -86 l 489 -86 l 489 -311 l 215 -311 z "},"ù":{"ha":725,"x_min":54,"x_max":671,"o":"m 410 79 l 397 79 q 231 -11 350 -11 q 117 17 154 -11 q 67 101 79 46 q 54 253 54 156 l 54 708 l 318 708 l 318 332 q 320 239 318 263 q 330 209 322 215 q 361 203 338 203 q 394 210 386 203 q 405 242 403 217 q 407 343 407 268 l 407 708 l 671 708 l 671 0 l 415 0 l 410 79 m 271 826 l 119 1025 l 119 1032 l 367 1032 l 463 833 l 463 826 l 271 826 z "},"ủ":{"ha":725,"x_min":54,"x_max":671,"o":"m 410 79 l 397 79 q 231 -11 350 -11 q 117 17 154 -11 q 67 101 79 46 q 54 253 54 156 l 54 708 l 318 708 l 318 332 q 320 239 318 263 q 330 209 322 215 q 361 203 338 203 q 394 210 386 203 q 405 242 403 217 q 407 343 407 268 l 407 708 l 671 708 l 671 0 l 415 0 l 410 79 m 254 865 q 266 929 254 911 q 317 957 278 947 l 335 963 q 374 978 365 971 q 383 999 383 985 q 371 1023 383 1018 q 318 1028 358 1028 q 174 1022 249 1028 l 174 1143 q 356 1161 267 1161 q 460 1153 419 1161 q 527 1115 501 1144 q 553 1022 553 1085 q 542 958 553 981 q 513 924 532 936 q 457 899 494 911 l 443 894 q 404 876 413 883 q 396 850 396 868 l 254 850 l 254 865 z "},"ư":{"ha":725,"x_min":54,"x_max":763,"o":"m 763 831 l 763 813 q 744 686 763 726 q 671 628 726 646 l 671 0 l 415 0 l 410 79 l 397 79 q 231 -11 350 -11 q 117 17 154 -11 q 67 101 79 46 q 54 253 54 156 l 54 708 l 318 708 l 318 332 q 320 239 318 263 q 330 209 322 215 q 361 203 338 203 q 394 210 386 203 q 405 242 403 217 q 407 343 407 268 l 407 708 l 508 708 q 565 716 547 708 q 590 742 583 724 q 596 796 596 760 l 596 831 l 763 831 z "},"ứ":{"ha":725,"x_min":54,"x_max":763,"o":"m 763 831 l 763 813 q 744 686 763 726 q 671 628 726 646 l 671 0 l 415 0 l 410 79 l 397 79 q 231 -11 350 -11 q 117 17 154 -11 q 67 101 79 46 q 54 253 54 156 l 54 708 l 318 708 l 318 332 q 320 239 318 263 q 330 209 322 215 q 361 203 338 203 q 394 210 386 203 q 405 242 403 217 q 407 343 407 268 l 407 708 l 508 708 q 565 716 547 708 q 590 742 583 724 q 596 796 596 760 l 596 831 l 763 831 m 267 826 l 267 833 l 364 1032 l 610 1032 l 610 1025 l 458 826 l 267 826 z "},"ự":{"ha":725,"x_min":54,"x_max":763,"o":"m 763 831 l 763 813 q 744 686 763 726 q 671 628 726 646 l 671 0 l 415 0 l 410 79 l 397 79 q 231 -11 350 -11 q 117 17 154 -11 q 67 101 79 46 q 54 253 54 156 l 54 708 l 318 708 l 318 332 q 320 239 318 263 q 330 209 322 215 q 361 203 338 203 q 394 210 386 203 q 405 242 403 217 q 407 343 407 268 l 407 708 l 508 708 q 565 716 547 708 q 590 742 583 724 q 596 796 596 760 l 596 831 l 763 831 m 215 -311 l 215 -86 l 489 -86 l 489 -311 l 215 -311 z "},"ừ":{"ha":725,"x_min":54,"x_max":763,"o":"m 763 831 l 763 813 q 744 686 763 726 q 671 628 726 646 l 671 0 l 415 0 l 410 79 l 397 79 q 231 -11 350 -11 q 117 17 154 -11 q 67 101 79 46 q 54 253 54 156 l 54 708 l 318 708 l 318 332 q 320 239 318 263 q 330 209 322 215 q 361 203 338 203 q 394 210 386 203 q 405 242 403 217 q 407 343 407 268 l 407 708 l 508 708 q 565 716 547 708 q 590 742 583 724 q 596 796 596 760 l 596 831 l 763 831 m 268 826 l 117 1025 l 117 1032 l 364 1032 l 460 833 l 460 826 l 268 826 z "},"ử":{"ha":725,"x_min":54,"x_max":763,"o":"m 763 831 l 763 813 q 744 686 763 726 q 671 628 726 646 l 671 0 l 415 0 l 410 79 l 397 79 q 231 -11 350 -11 q 117 17 154 -11 q 67 101 79 46 q 54 253 54 156 l 54 708 l 318 708 l 318 332 q 320 239 318 263 q 330 209 322 215 q 361 203 338 203 q 394 210 386 203 q 405 242 403 217 q 407 343 407 268 l 407 708 l 508 708 q 565 716 547 708 q 590 742 583 724 q 596 796 596 760 l 596 831 l 763 831 m 254 865 q 266 929 254 911 q 317 957 278 947 l 335 963 q 374 978 365 971 q 383 999 383 985 q 371 1023 383 1018 q 318 1028 358 1028 q 174 1022 249 1028 l 174 1143 q 356 1161 267 1161 q 460 1153 419 1161 q 527 1115 501 1144 q 553 1022 553 1085 q 542 958 553 981 q 513 924 532 936 q 457 899 494 911 l 443 894 q 404 876 413 883 q 396 850 396 868 l 254 850 l 254 865 z "},"ữ":{"ha":725,"x_min":54,"x_max":763,"o":"m 763 831 l 763 813 q 744 686 763 726 q 671 628 726 646 l 671 0 l 415 0 l 410 79 l 397 79 q 231 -11 350 -11 q 117 17 154 -11 q 67 101 79 46 q 54 253 54 156 l 54 708 l 318 708 l 318 332 q 320 239 318 263 q 330 209 322 215 q 361 203 338 203 q 394 210 386 203 q 405 242 403 217 q 407 343 407 268 l 407 708 l 508 708 q 565 716 547 708 q 590 742 583 724 q 596 796 596 760 l 596 831 l 763 831 m 618 1032 q 612 912 618 951 q 578 849 606 872 q 488 825 550 825 q 344 846 433 825 l 311 851 q 264 858 279 858 q 242 849 246 858 q 238 808 238 839 l 106 808 q 112 928 106 888 q 147 992 118 968 q 236 1015 175 1015 q 381 994 292 1015 q 460 982 440 982 q 482 992 478 982 q 486 1032 486 1001 l 618 1032 z "},"ű":{"ha":725,"x_min":54,"x_max":679,"o":"m 410 79 l 397 79 q 231 -11 350 -11 q 117 17 154 -11 q 67 101 79 46 q 54 253 54 156 l 54 708 l 318 708 l 318 332 q 320 239 318 263 q 330 209 322 215 q 361 203 338 203 q 394 210 386 203 q 405 242 403 217 q 407 343 407 268 l 407 708 l 671 708 l 671 0 l 415 0 l 410 79 m 168 849 l 168 854 l 243 1013 l 443 1013 l 443 1007 l 324 849 l 168 849 m 404 849 l 404 854 l 481 1013 l 679 1013 l 679 1007 l 561 849 l 404 849 z "},"ȗ":{"ha":725,"x_min":54,"x_max":671,"o":"m 410 79 l 397 79 q 231 -11 350 -11 q 117 17 154 -11 q 67 101 79 46 q 54 253 54 156 l 54 708 l 318 708 l 318 332 q 320 239 318 263 q 330 209 322 215 q 361 203 338 203 q 394 210 386 203 q 405 242 403 217 q 407 343 407 268 l 407 708 l 671 708 l 671 0 l 415 0 l 410 79 m 153 839 q 169 947 153 904 q 231 1015 185 990 q 363 1039 276 1039 q 493 1015 447 1039 q 555 947 539 990 q 571 839 571 904 l 428 839 q 417 890 428 874 q 363 906 407 906 q 317 897 331 906 q 299 876 303 889 q 296 839 296 863 l 153 839 z "},"ū":{"ha":725,"x_min":54,"x_max":671,"o":"m 410 79 l 397 79 q 231 -11 350 -11 q 117 17 154 -11 q 67 101 79 46 q 54 253 54 156 l 54 708 l 318 708 l 318 332 q 320 239 318 263 q 330 209 322 215 q 361 203 338 203 q 394 210 386 203 q 405 242 403 217 q 407 343 407 268 l 407 708 l 671 708 l 671 0 l 415 0 l 410 79 m 185 825 l 185 1032 l 542 1032 l 542 825 l 185 825 z "}}}
